<svg width="124" height="137" viewBox="0 0 124 137" fill="none" xmlns="http://www.w3.org/2000/svg">
<g clip-path="url(#clip0)">
<path d="M45.2826 129.302C55.6049 121.434 64.1697 110.515 70.3661 99.2157C85.9156 71.3435 83.5574 40.5126 68.7801 13.1416C70.0033 13.5824 71.3321 13.8773 72.5552 14.3181C64.5976 30.7896 54.4827 46.5889 42.6996 60.7359C41.5708 59.2518 40.4808 58.0182 39.352 56.534C61.3529 40.4461 91.5062 34.706 117.847 33.32C118.225 34.9278 118.459 36.4309 118.837 38.0388C100.779 31.6361 84.5871 19.9153 70.8469 6.63416C68.745 4.66799 70.0952 0.976644 72.6307 3.25676C85.7537 15.8688 101.117 27.2122 118.492 33.3421C120.109 33.8464 122.523 37.8168 119.482 38.061C93.7866 39.4692 63.9891 45.0222 42.5551 60.6313C40.604 62.1091 37.69 58.2212 39.2074 56.4294C50.7793 42.5741 60.6829 27.0666 68.4294 10.8868C69.3019 9.07286 71.6539 10.9978 72.2045 12.0633C86.7983 39.0791 90.4462 69.9544 76.6592 98.4356C70.2353 111.571 60.5868 124.595 48.6303 133.503C46.7848 134.835 43.4371 130.634 45.2826 129.302Z" fill="white"/>
</g>
<defs>
<clipPath id="clip0">
<rect width="63" height="123" fill="white" transform="matrix(0.81004 0.586375 0.586375 -0.81004 0 99.6348)"/>
</clipPath>
</defs>
</svg>
