<svg width="102" height="138" viewBox="0 0 102 138" fill="none" xmlns="http://www.w3.org/2000/svg">
<g clip-path="url(#clip0)">
<path d="M61.4037 5.04523C68.7391 15.9448 72.8266 29.1753 74.2357 41.9893C77.9914 73.6851 61.4589 102.31 33.366 123.548C34.8605 123.53 36.4002 123.686 37.8947 123.668C36.9778 105.342 33.4731 86.9477 27.4517 69.5796C25.5819 70.6234 23.8673 71.4412 21.9975 72.485C37.9428 95.0662 67.2224 110.462 94.4518 120.452C95.5841 119.043 96.5158 117.687 97.6482 116.278C75.6323 116.441 53.1694 122.29 32.589 130.433C29.4705 131.617 29.2178 135.581 32.938 134.241C52.5609 126.533 73.9756 120.771 95.144 120.643C97.0849 120.694 101.446 117.703 98.3404 116.469C71.8032 106.671 42.8147 91.5699 27.2511 69.6319C25.8603 67.5806 21.0079 70.3292 21.797 72.5372C27.7279 89.5575 31.142 107.604 31.9684 125.583C32.0652 127.6 35.4295 126.538 36.497 125.703C64.2341 104.743 82.151 76.5006 80.5368 44.8041C79.723 30.1643 75.4482 14.5692 66.8578 2.13991C65.5124 0.262492 60.0583 3.16782 61.4037 5.04523Z" fill="white"/>
</g>
<defs>
<clipPath id="clip0">
<rect width="73.1588" height="122.705" fill="white" transform="translate(0 18.4346) rotate(-14.5947)"/>
</clipPath>
</defs>
</svg>
