<svg width="57" height="77" viewBox="0 0 57 77" fill="none" xmlns="http://www.w3.org/2000/svg">
<g clip-path="url(#clip0)">
<path d="M50.5977 10.9671C51.2068 18.2224 49.6149 25.7293 46.8389 32.3119C40.1033 48.6672 24.3764 58.0607 5.04726 60.7595C5.77544 61.1542 6.47861 61.6452 7.20679 62.0399C11.7085 52.9222 14.9761 43.0729 16.7485 33.0413C15.5618 33.0419 14.5113 32.975 13.3245 32.9757C14.9487 48.2086 24.966 63.5623 35.4501 75.7456C36.3783 75.3694 37.1954 74.9642 38.1236 74.5879C27.4232 68.7257 14.9721 65.4948 2.813 63.8827C0.984262 63.6138 -0.207885 65.4645 1.95436 65.8199C13.5327 67.3842 25.4529 70.3744 35.7336 76.0249C36.6591 76.5737 39.5772 76.3023 38.4071 74.8672C28.2065 62.9632 18.2503 47.8311 16.6373 33.0124C16.5177 31.6442 13.4273 31.6652 13.2134 32.9468C11.491 42.7857 8.27332 52.4423 3.82167 61.3672C3.32427 62.3696 5.23917 62.7636 5.98121 62.6476C25.0631 59.9875 41.3569 51.1525 49.1292 35.3748C52.6861 28.0691 54.8255 19.367 54.0217 11.0327C53.8771 9.76088 50.4531 9.69528 50.5977 10.9671Z" fill="white"/>
</g>
<defs>
<clipPath id="clip0">
<rect width="40.5427" height="68" fill="white" transform="translate(17.2632 0.877441) rotate(14.5463)"/>
</clipPath>
</defs>
</svg>
