<svg id="Слой_1" data-name="Слой 1" xmlns="http://www.w3.org/2000/svg" xmlns:xlink="http://www.w3.org/1999/xlink" viewBox="0 0 112.8 44.51"><defs><style>.cls-1{fill:none;}.cls-2{clip-path:url(#clip-path);}.cls-3{fill:#fff;}</style><clipPath id="clip-path" transform="translate(-0.02 0.86)"><rect class="cls-1" y="-0.86" width="112.77" height="44.51"/></clipPath></defs><title>Bebi_logo2</title><g class="cls-2"><path class="cls-3" d="M12.89,33.75H7.77v2.1a9.13,9.13,0,0,1-.33,2.62,8.29,8.29,0,0,1-.76,1.76L6,40.28l0,3.38H7.44l.09-2h4.6l.09,2H13.6l.09-3.38-.8-.05Zm-1.76,6.43H8.53a8.18,8.18,0,0,0,.57-1.33,9.38,9.38,0,0,0,.33-2.57V35.23h1.7Z" transform="translate(-0.02 0.86)"/><path class="cls-3" d="M16.49,38.28h2.89V36.85H16.49V35.18h3V33.75H14.69v7.91h5V40.18H16.49Z" transform="translate(-0.02 0.86)"/><path class="cls-3" d="M20.33,35.23h2.13v6.43h1.75V35.23h2.18V33.75H20.33Z" transform="translate(-0.02 0.86)"/><path class="cls-3" d="M30.94,35.09a4.38,4.38,0,0,1,1.52.28L32.84,34a5,5,0,0,0-2-.34,4.05,4.05,0,0,0-4.31,4.19,3.76,3.76,0,0,0,4.12,4,5.77,5.77,0,0,0,2-.33L32.46,40a4.38,4.38,0,0,1-1.47.24,2.37,2.37,0,0,1-2.56-2.57A2.39,2.39,0,0,1,30.94,35.09Z" transform="translate(-0.02 0.86)"/><path class="cls-3" d="M38,33.75,35.77,37h-.14V33.75H33.88v7.91h1.75V38.33H36c1,0,1.33.66,1.61,1.57a10,10,0,0,0,.62,1.71h1.89c-.38-.81-.61-1.67-.9-2.48a2.52,2.52,0,0,0-1.8-1.9l2.75-3.52H38Z" transform="translate(-0.02 0.86)"/><path class="cls-3" d="M44.21,33.61a3.82,3.82,0,0,0-3.84,4.14c0,2.24,1.37,4,3.7,4S48,40.23,48,37.66C48,35.42,46.63,33.61,44.21,33.61Zm0,6.76c-1.19,0-1.9-1.09-1.9-2.62s.71-2.66,1.9-2.66,1.89,1.24,1.89,2.62S45.39,40.37,44.21,40.37Z" transform="translate(-0.02 0.86)"/><path class="cls-3" d="M50.94,38.28h2.89V36.85H50.94V35.18h3V33.75H49.14v7.91h5V40.18H50.94Z" transform="translate(-0.02 0.86)"/><path class="cls-3" d="M57.71,41.66h1.8V35.18h2.8v6.48h1.8V33.75h-6.4Z" transform="translate(-0.02 0.86)"/><path class="cls-3" d="M68.61,36.85c-.47.86-1,1.9-1.42,2.81h0c.1-1,.1-2.33.1-3.57V33.75H65.58v7.91h2l1.61-2.86c.47-.86.94-1.9,1.32-2.81h0c-.09,1-.14,2.1-.14,3.34v2.33h1.61V33.75h-1.8Z" transform="translate(-0.02 0.86)"/><path class="cls-3" d="M79.13,33.75h-6v1.48H75.2v6.43H77V35.23h2.13Z" transform="translate(-0.02 0.86)"/><path class="cls-3" d="M81,33.75l-2.37,7.91H80.5l.53-2H83.3l.62,2h1.89l-2.42-7.91Zm.28,4.53.47-1.67c.15-.47.24-1,.38-1.52h0c.1.47.24,1,.38,1.52l.47,1.67Z" transform="translate(-0.02 0.86)"/><path class="cls-3" d="M91.59,36.75H88.65v-3H86.9v7.91h1.75V38.33h2.94v3.33h1.8V33.75h-1.8Z" transform="translate(-0.02 0.86)"/><path class="cls-3" d="M97.89,36.85c-.47.86-1,1.9-1.42,2.81h0c.1-1,.1-2.33.1-3.57V33.75H94.86v7.91h2l1.61-2.86c.47-.86.95-1.9,1.33-2.81h0c-.09,1-.14,2.1-.14,3.34v2.33h1.61V33.75h-1.8Z" transform="translate(-0.02 0.86)"/><path class="cls-3" d="M104.76,38.28h2.9V36.85h-2.9V35.18h3.08V33.75H103v7.91h5V40.18h-3.23Z" transform="translate(-0.02 0.86)"/><path class="cls-3" d="M47.24,20.09H65.11s.52-9.43-13-9.43-14.92,8-14.92,9.62,1.18,9.09,15.21,9.09A65.37,65.37,0,0,0,63,28.28c.14-.24,2.13-4.38,2.13-4.38a36.07,36.07,0,0,1-10.94,1.9C47.53,25.38,47.24,20.09,47.24,20.09Zm4.08-6a4.59,4.59,0,0,1,4.17,2.72l-8.25,0A4.31,4.31,0,0,1,51.32,14.09Z" transform="translate(-0.02 0.86)"/><path class="cls-3" d="M100.36,7.05c1.37.71,6,1.9,7.06-.77s-2.37-5.14-4.08-5.9c-.42-.19-5.82-2.71-7.44.48C94.48,3.48,98.89,6.38,100.36,7.05Z" transform="translate(-0.02 0.86)"/><path class="cls-3" d="M110.92,25.42a.61.61,0,0,0,.48-.62.63.63,0,0,0-.24-.52,1.57,1.57,0,0,0-.8-.19c-.29,0-.53.05-.71.05v2.47h.42v-1h.29a.48.48,0,0,1,.56.42c0,.34.1.58.19.62h.43a3.08,3.08,0,0,1-.19-.62C111.3,25.66,111.16,25.47,110.92,25.42Zm-.52-.14h-.28v-.86h.28c.48,0,.62.24.62.43S110.73,25.28,110.4,25.28Z" transform="translate(-0.02 0.86)"/><path class="cls-3" d="M80.5,10.71l-2.41,3.48c.76.14,6.92.57,7,5.28,0,7.76-8.53,6.14-8.86,6.14V-.86L74.72,0,66.24.19l.1,27.9S75,29.37,78.51,29.23s16.11-.28,17.06-8.9C96.52,10,80.5,10.71,80.5,10.71Z" transform="translate(-0.02 0.86)"/><path class="cls-3" d="M110.55,23.14a2.24,2.24,0,1,0,2.27,2.24A2.3,2.3,0,0,0,110.55,23.14Zm0,4.09a1.88,1.88,0,0,1,0-3.76,1.86,1.86,0,0,1,1.84,1.91A1.84,1.84,0,0,1,110.55,27.23Z" transform="translate(-0.02 0.86)"/><path class="cls-3" d="M106.61,26.18c-.19-.66-.14-15.09-.14-15.09l-9.71.1L96.71,28.8s11.47,0,11.8-.09A5.82,5.82,0,0,1,106.61,26.18Z" transform="translate(-0.02 0.86)"/><path class="cls-3" d="M8.06,17.85h0a43.47,43.47,0,0,0,4.17-2.23C15,14,16.3,14.71,16.3,14.71c.47.14.62.86.95,1.43a2.86,2.86,0,0,0,.38.43c.71.47,1.28.19,2,0a10.3,10.3,0,0,1,2.66-.19c.71,0,4.5,0,4.5,3.57a4.67,4.67,0,0,1-4.45,4.95,40.06,40.06,0,0,1-4-.48s.09-6.52,0-7c-1,.62-2-.9-2.18-1.61-.1-.48-.71-.58-1.19-.48-1.28.24-3.5,1.76-5,2.57-1.23.67-2,1-2,1V29H25.35c2.32,0,11.14-1.91,11.14-8.38,0-7-7.54-7.81-7.54-7.81.81-.24,5.4-1.81,5.4-5.57,0-6.14-7.48-6.86-8.48-6.86S8,.19,8,.19v9.9c2.41.15,6.11-1.52,8.53-1.19a2.93,2.93,0,0,1,1.94,1.86V4.62s2.94-.14,3.08-.1S23.93,5.09,24,8a4.77,4.77,0,0,1-4.55,5,1.59,1.59,0,0,1-1.42-.67,2.75,2.75,0,0,1-.33-1A2,2,0,0,0,16,10c-2-.19-4.36,1-7.11,1.1h0a7.39,7.39,0,0,1-1.33,0c-1.89-.15-5.59-2.67-5.92-3A15.88,15.88,0,0,1,1.85,12C1.66,13.09.43,15.62.24,16.33s-.9,2.76,2,2.9A12.81,12.81,0,0,0,8.06,17.85Z" transform="translate(-0.02 0.86)"/></g></svg>