<svg id="Слой_1" data-name="Слой 1" xmlns="http://www.w3.org/2000/svg" viewBox="0 0 264.65 146.79"><defs><style>.cls-1{fill:#9cdbf8;stroke:#fff;stroke-width:3px;}.cls-2{fill:#00aeff;}</style></defs><title>Bebi_logo1</title><path class="cls-1" d="M242.54,89.44l-1.15,0a23.39,23.39,0,0,0-20-17.15,19.08,19.08,0,0,0-27.06-15.94,13.48,13.48,0,0,0-9.61-4,36.69,36.69,0,0,0-49.1-21.1A53.36,53.36,0,0,0,34.44,54.11a47.11,47.11,0,1,0,48.9,78.26,47.2,47.2,0,0,0,53.22-3.2,49.21,49.21,0,0,0,61.7,4.12,23.62,23.62,0,0,0,32.17-1.7,22.81,22.81,0,1,0,12.11-42.15Z" transform="translate(-2.17 -0.11)"/><path class="cls-2" d="M242.17,94.92a17.36,17.36,0,0,0-5.68,1v-.34a17.89,17.89,0,0,0-17.79-18,21,21,0,0,0-3.48.33,14,14,0,0,0-13.15-18.11,13.55,13.55,0,0,0-9.67,4,8.14,8.14,0,0,0-7.89-6.23,7.75,7.75,0,0,0-3.76,1,31.38,31.38,0,0,0-30.66-25.34A30.79,30.79,0,0,0,133,38.35a47.78,47.78,0,0,0-45-32.14C61.43,6.21,40,27.94,40,54.75c0,1,.05,2,.1,3A42.2,42.2,0,0,0,9.31,98.53c0,23.34,18.69,42.26,41.75,42.26a41.42,41.42,0,0,0,31.69-14.74,41.33,41.33,0,0,0,54.15-3.61,43.45,43.45,0,0,0,61.74,4.28,18.15,18.15,0,0,0,30.62-2.24,17.27,17.27,0,0,0,12.91,5.8,17.68,17.68,0,0,0,0-35.36Z" transform="translate(-2.17 -0.11)"/></svg>