<svg width="44" height="44" viewBox="0 0 44 44" fill="none" xmlns="http://www.w3.org/2000/svg">
<circle cx="22" cy="22" r="21" fill="#00CEFB" stroke="white" stroke-width="2"/>
<mask id="mask0" mask-type="alpha" maskUnits="userSpaceOnUse" x="0" y="0" width="44" height="44">
<circle cx="22" cy="22" r="22" fill="#C4C4C4"/>
</mask>
<g mask="url(#mask0)">
<path d="M40.5157 8.57007C39.9448 12.462 39.0884 16.0759 38.2321 19.9679C37.3757 23.3038 36.2339 26.3618 34.5211 29.1417C33.0938 31.6437 29.0974 35.8136 25.9574 33.8676C22.2464 31.9217 21.9609 25.8058 21.39 22.1918C24.8155 21.3579 27.3846 16.0759 23.1028 14.408C19.6773 12.74 15.6809 14.964 17.1081 19.1339C17.3936 19.9679 20.5336 19.9679 19.9627 19.1339C19.6773 18.2999 19.6773 17.7439 19.9627 16.6319C20.2482 16.0759 21.1046 14.686 21.6755 15.242C23.6737 16.9099 21.39 20.8019 19.1064 21.0799C18.8209 21.0799 18.25 21.0799 18.25 21.3579C18.5354 23.8598 18.8209 26.9178 19.9627 29.6977C16.8227 27.7517 12.5408 27.1958 8.82986 27.7517C8.25894 27.7517 7.68803 28.3077 8.25894 28.5857C11.1135 30.2537 12.5408 32.7557 14.539 34.7016C16.2518 36.3696 18.5354 36.9256 20.8191 36.9256C20.5336 37.7596 19.6773 38.5936 18.5354 39.1496C16.2518 40.5395 13.3972 41.6515 10.5426 42.2075V43.5975C13.1117 43.0415 15.9663 42.2075 18.25 41.3735C19.9627 40.8175 21.9609 39.7055 23.1028 38.3156C24.5301 37.4816 24.5301 36.0916 24.2446 34.7016C27.3846 36.3696 31.3811 35.5356 34.2356 33.5896C38.803 30.2537 40.5157 23.8598 41.943 18.5779C42.5139 15.242 43.0849 11.906 43.6558 8.57007H40.5157ZM11.9699 28.8637C15.6809 28.8637 19.9627 30.2537 21.1046 33.8676C21.39 34.4236 21.39 34.9796 21.39 35.5356C16.8227 35.5356 15.1099 31.3657 11.9699 28.8637Z" fill="white"/>
<path d="M21.105 12.184C21.105 12.462 22.5323 12.7399 22.5323 12.462C24.245 10.794 26.2432 8.57002 26.2432 6.06806C26.2432 4.95608 25.1014 4.40009 23.9596 4.40009C21.105 4.67808 21.105 10.238 21.105 12.184ZM23.9596 5.79006C23.9596 5.51207 24.245 5.51207 24.245 5.23407C24.245 5.23407 24.5305 5.23407 24.5305 4.95608C24.8159 5.51207 24.8159 6.06806 24.8159 6.34605C24.8159 7.73603 23.9596 9.12601 22.8177 10.238C22.8177 8.84801 23.1032 7.18004 23.9596 5.79006Z" fill="white"/>
<path d="M25.6719 15.2419C25.6719 15.2419 25.6719 15.5199 25.9573 15.5199C27.9555 16.3539 30.5247 16.9099 32.8083 16.0759C33.6647 15.7979 35.092 14.6859 34.2356 13.5739C33.6647 12.462 31.381 12.7399 29.9537 13.2959C28.5265 13.5739 27.0992 14.4079 25.6719 15.2419ZM29.3828 14.6859C29.9537 14.4079 31.952 13.2959 32.5229 13.5739C33.0938 14.1299 32.5229 14.9639 32.2374 15.2419C31.0956 16.0759 29.6683 15.7979 28.241 15.2419C28.5265 15.2419 28.8119 14.9639 29.3828 14.6859Z" fill="white"/>
<path d="M12.2551 22.4697C13.6824 21.6358 15.1096 20.5238 15.966 19.4118C16.2515 19.1338 15.3951 18.8558 15.3951 18.8558C13.3969 18.2998 10.5423 18.0218 8.5441 19.4118C7.68773 19.9678 6.83136 21.3578 7.68773 22.1917C8.82956 23.5817 11.1132 23.3037 12.2551 22.4697ZM9.9714 20.2458C10.8278 19.4118 12.5405 19.4118 13.9678 19.4118C13.3969 19.9678 12.826 20.2458 12.5405 20.5238C11.9696 21.0798 11.3987 21.6358 10.8278 21.9137C10.2569 21.9137 9.9714 22.1917 9.68594 22.1917C9.68594 22.1917 9.68594 22.1917 9.40048 21.9137C8.82956 21.3578 9.40048 20.5238 9.9714 20.2458Z" fill="white"/>
<path d="M27.6698 26.0837C28.8116 26.6397 30.5243 26.9177 31.3807 25.8057C32.5225 24.6938 30.8098 23.3038 29.9534 22.7478C28.8116 21.9138 27.6697 21.3578 26.5279 21.0798C26.2425 20.8018 25.6715 20.8018 25.1006 20.8018H24.8152C24.5297 20.8018 24.5297 21.0798 24.8152 21.0798C25.1006 23.0258 25.957 25.2497 27.6698 26.0837ZM29.668 24.9717C29.668 25.2497 29.3825 25.5277 29.097 25.5277C28.8116 25.5277 29.097 25.5277 28.8116 25.5277C27.6697 24.6938 27.0988 23.5818 26.8134 22.1918C28.2407 22.7478 29.9534 23.5818 29.668 24.9717Z" fill="white"/>
<path d="M15.9658 14.13C16.5367 14.408 17.964 14.686 17.964 14.13C17.393 11.628 15.9658 6.90209 12.2548 7.45808C10.8275 7.45808 10.542 8.84806 10.8275 9.96004C11.3984 11.906 13.9675 13.296 15.9658 14.13ZM13.1112 8.29207C13.1112 8.29207 13.3966 8.29207 13.3966 8.57006C13.6821 8.84806 13.6821 9.12605 13.9675 9.40405C14.5385 9.96004 14.8239 10.794 15.1094 11.35C15.1094 11.906 15.3948 12.462 15.3948 12.74C14.5385 12.184 13.3966 11.35 12.8257 10.238C12.8257 9.96004 12.5403 8.57006 13.1112 8.29207Z" fill="white"/>
</g>
</svg>
