<svg width="45" height="44" viewBox="0 0 45 44" fill="none" xmlns="http://www.w3.org/2000/svg">
<circle cx="22.2671" cy="22" r="21" fill="#00CEFB" stroke="white" stroke-width="2"/>
<mask id="mask0" mask-type="alpha" maskUnits="userSpaceOnUse" x="0" y="0" width="45" height="44">
<circle cx="22.2671" cy="22" r="22" fill="#C4C4C4"/>
</mask>
<g mask="url(#mask0)">
<path d="M39.9655 4.0741C39.6631 6.19056 39.3608 8.00468 38.7561 9.81879C36.9419 18.587 33.6161 28.5646 25.4525 33.0999C24.5455 33.7046 23.3361 34.007 22.429 34.3093C23.0337 33.7046 23.6384 32.7976 23.9408 32.1929C24.5455 31.2858 24.8478 30.6811 25.7549 29.774C26.0573 29.4717 26.3596 29.1693 26.9643 28.5646C27.2667 28.2623 27.569 27.9599 27.8714 27.9599C28.1737 27.9599 28.1737 27.9599 28.1737 27.6576C29.3831 27.9599 31.1972 27.9599 30.5925 27.0529C27.2667 23.1223 22.1267 28.867 20.6149 31.5882C20.0102 32.7976 19.1031 33.7046 18.1961 34.6117C14.8702 34.3093 11.8467 32.1929 10.3349 28.2623C9.42787 26.4482 9.42788 23.727 9.73023 21.6105C9.73023 21.0058 8.52082 20.4011 8.21847 20.0988C7.31141 19.1917 6.7067 17.68 7.00906 16.4705C8.52082 16.4705 10.0326 16.7729 11.8467 16.7729C12.7537 16.7729 13.0561 16.4705 13.6608 16.1682C15.1726 14.6564 17.289 13.1447 19.7079 13.1447C21.2196 13.1447 21.2196 12.54 20.3126 11.9353C20.9173 10.7258 21.8243 9.81879 22.7314 8.91173C22.7314 10.4235 23.3361 12.2376 23.9408 12.8423C26.3596 14.0517 28.1737 15.5635 28.1737 18.2847C28.4761 21.6105 25.1502 24.3317 22.7314 21.3082C23.0337 21.0058 23.3361 20.7035 23.3361 20.4011C23.3361 20.0988 23.0337 19.4941 22.7314 19.1917C22.1267 18.8894 21.2196 18.8894 20.6149 18.8894C19.7079 18.8894 18.8008 19.4941 18.1961 20.4011C17.8937 21.0058 17.8937 21.6105 18.4984 22.2152C18.8008 22.5176 19.1031 22.5176 19.7079 22.5176C20.0102 22.5176 20.0102 22.5176 20.3126 22.5176C20.0102 23.727 19.4055 24.9364 18.4984 26.1458C17.289 27.0529 14.8702 27.6576 14.5679 25.8435C14.5679 25.2388 12.149 24.9364 12.4514 25.8435C12.7538 27.9599 15.7773 28.2623 17.5914 28.2623C20.6149 27.9599 22.1267 25.5411 22.429 23.1223C25.4525 24.9364 29.3831 24.3317 30.2902 20.7035C31.1972 17.3776 29.0808 14.6564 26.3596 13.1447C25.1502 11.9353 24.8478 8.91173 24.2431 7.39997C24.2431 6.79527 22.7314 6.79527 22.1267 7.09762C20.3126 8.00468 18.4984 9.51644 17.5914 11.6329C14.5679 11.9353 12.149 13.1447 10.0326 15.2611C8.21847 15.2611 6.7067 14.9588 4.89259 14.9588C4.59024 14.9588 3.68318 14.9588 3.68318 15.5635C3.07848 17.68 4.28788 19.7964 6.102 21.3082C6.102 21.3082 6.40435 21.3082 6.40435 21.6105C6.40435 21.9129 6.40435 22.2152 6.40435 22.5176C6.40435 24.0294 6.40435 25.5411 6.7067 27.0529C7.61376 32.4952 11.8467 35.5187 16.9867 36.4258C15.4749 37.6352 13.9632 38.8446 12.4514 39.7517C10.6373 40.6587 8.82317 41.5658 6.7067 42.1705V43.9846C9.73023 43.0775 12.7537 42.1705 15.7773 40.6587C17.5914 39.7517 19.4055 38.2399 20.9173 36.7281C30.5925 36.4258 36.9419 28.2623 39.9655 19.4941C41.7796 14.6564 42.989 9.51644 43.896 4.37645H39.9655V4.0741Z" fill="white"/>
</g>
</svg>
