<svg width="45" height="44" viewBox="0 0 45 44" fill="none" xmlns="http://www.w3.org/2000/svg">
<circle cx="22.7334" cy="22" r="21" fill="#00CEFB" stroke="white" stroke-width="2"/>
<mask id="mask0" mask-type="alpha" maskUnits="userSpaceOnUse" x="0" y="0" width="45" height="44">
<circle cx="22.7334" cy="22" r="22" fill="#C4C4C4"/>
</mask>
<g mask="url(#mask0)">
<path d="M45.8847 4.95354C45.6075 6.33719 45.3303 7.72084 45.053 9.10448C43.3896 17.4064 40.34 29.5824 30.914 31.7963C29.5278 32.073 28.1417 32.073 27.0327 32.073C28.1417 30.4126 28.9734 28.4755 29.5278 26.2617C30.6368 22.1108 31.4685 13.8089 25.6466 12.1485C22.3197 11.3183 19.8246 12.9787 18.7157 16.0227C18.7157 16.2994 18.7157 16.2994 18.4384 16.5762V16.8529C18.1612 17.4064 17.884 17.9598 17.884 18.5133C15.1116 17.9598 11.5075 17.9598 9.84413 20.7271C8.18071 24.0479 12.062 27.6453 14.5571 29.3057C17.0523 30.9661 20.1018 32.3497 23.1514 32.9032C22.3197 34.0101 21.2108 35.117 19.8246 35.9472C17.6067 37.6076 15.3888 38.7145 12.6165 39.268V40.6516C17.884 39.5447 22.8742 37.3309 25.9238 33.1799C30.914 33.7334 35.627 32.6265 39.5083 29.5824C42.8351 26.8152 44.4986 21.834 45.8847 17.6831C47.2709 13.5322 48.1026 9.38121 48.9343 4.95354C48.9343 4.67681 48.9343 4.67681 48.9343 4.40009H45.8847V4.95354ZM23.9831 31.7963C20.9335 30.9661 18.1612 29.8592 15.9433 28.1988C13.171 25.985 10.3986 20.1737 15.9433 19.6202C16.4978 19.6202 17.3295 19.6202 17.884 19.8969C17.884 20.7271 17.884 21.5573 18.1612 22.1108C18.1612 23.4944 21.2108 22.6642 20.9335 21.2806C20.9335 20.7271 20.6563 19.8969 20.6563 19.3435C20.9335 17.6831 21.2108 16.0227 22.0425 14.9158C22.8742 14.3623 23.9831 12.9787 24.8148 13.2554C28.4189 15.1925 27.31 21.834 26.4783 24.878C25.9238 27.6453 25.0921 29.8592 23.9831 31.7963Z" fill="white"/>
<path d="M8.45848 15.4692C8.73571 15.4692 9.29018 15.4692 9.29018 14.9158C9.56742 14.9158 10.1219 14.9158 10.3991 14.639C10.6764 14.3623 10.6764 13.8089 10.3991 13.8089C9.56742 13.5321 8.45848 13.8089 8.18124 14.639C7.90401 14.9158 8.18124 15.1925 8.45848 15.4692Z" fill="white"/>
<path d="M18.4384 8.8278C19.2701 8.55107 19.5474 8.27435 19.5474 7.44416C19.5474 7.16743 18.9929 7.44416 18.4384 7.44416C18.1612 7.44416 17.0522 7.72089 17.0522 7.99762C17.0522 8.8278 17.6067 9.10453 18.4384 8.8278Z" fill="white"/>
<path d="M28.4202 8.55112C28.143 8.27439 28.143 7.99766 28.143 7.72093C28.143 7.16747 26.7568 7.4442 26.7568 7.99766C26.7568 8.55112 26.7568 8.82785 27.0341 9.10458C27.3113 9.38131 28.6975 8.82785 28.4202 8.55112Z" fill="white"/>
<path d="M35.0729 16.2994C35.6274 16.2994 36.1819 16.2994 36.4591 15.7459C36.7364 15.4692 36.7364 14.9157 36.4591 14.639C36.4591 14.639 36.1819 14.639 35.9047 14.639C35.9047 14.3622 36.1819 14.3622 36.1819 14.3622C36.4591 14.0855 35.6274 14.3622 35.6274 14.3622C35.3502 14.3622 34.7957 14.639 34.7957 14.639C34.2412 15.1924 33.964 16.2994 35.0729 16.2994Z" fill="white"/>
</g>
</svg>
