<svg xmlns="http://www.w3.org/2000/svg" width="772" height="525" viewBox="0 0 772 525" fill="none">
    <g>
        <path d="M225.023 6.42861C234.902 2.65199 245.496 0.693749 256.234 0.553874C266.972 0.413999 277.71 2.37224 287.875 6.28873C297.898 10.2052 307.347 16.2198 314.935 23.9129C322.666 31.606 328.536 40.8378 332.402 50.9087C336.125 60.8398 337.843 71.6102 337.27 82.2406C336.984 87.5559 336.268 92.7312 334.979 97.9066C333.691 103.082 331.973 107.978 329.682 112.733C320.948 131.896 304.627 147.702 284.582 155.815C274.704 159.871 263.679 162.109 252.798 161.969C241.917 161.969 230.893 159.731 220.871 155.535C210.849 151.339 201.543 145.184 193.811 137.491C186.08 129.798 180.067 120.566 176.058 110.495C172.192 100.424 170.188 89.654 170.617 78.8837C170.904 68.1133 173.767 57.6227 178.492 47.9714C183.216 38.4599 189.802 29.7877 197.82 22.7939C205.838 15.8002 215.001 10.2052 225.023 6.42861ZM225.166 6.98811C220.298 8.94635 215.573 11.3242 211.135 14.1217C206.697 17.0591 202.545 20.2762 198.965 23.9129C191.52 31.3263 185.794 39.9985 181.928 49.51C174.34 68.3931 174.197 89.654 181.785 108.257C189.23 126.861 204.263 142.527 223.018 150.639C232.325 154.696 242.633 157.074 252.941 157.493C263.25 157.773 273.701 156.374 283.58 152.877C293.316 149.38 302.479 144.065 310.21 136.932C317.942 129.938 323.955 121.266 328.107 111.894C330.111 107.138 331.686 102.243 332.688 97.2072C333.691 92.1717 334.12 87.1363 334.12 81.9609C334.12 71.75 331.973 61.6791 327.964 52.3075C324.098 43.0758 318.371 34.4035 311.356 27.13C309.638 25.3117 307.776 23.4933 305.772 21.9547C303.911 20.2762 301.906 18.7376 299.759 17.199C295.607 14.2616 291.168 11.604 286.444 9.36597C277.138 5.02986 266.686 2.37224 256.234 1.81275C250.937 1.533 245.64 1.81275 240.485 2.65199C235.188 3.77099 230.177 5.16974 225.166 6.98811Z" fill="white"/>
        <path d="M247.931 109.237V63.2181L242.061 69.0928C240.343 70.7713 238.911 72.0302 238.052 72.7296C237.193 73.429 236.191 73.9885 235.046 74.2682C233.471 74.8277 231.896 74.8277 230.035 74.2682C228.317 73.7087 226.742 72.8695 225.31 71.4707C223.878 70.072 222.876 68.5333 222.447 66.8549C221.874 65.1764 222.017 63.4979 222.447 61.9592C222.876 60.8402 223.449 59.8611 224.165 58.882C224.881 58.0427 226.026 56.644 227.744 54.9655L247.215 35.9426C250.795 32.3058 254.66 30.6273 258.669 30.6273C261.819 30.6273 264.539 31.6064 266.544 33.5647C267.832 34.8236 268.691 36.3622 269.121 37.9008C269.55 39.5793 269.693 41.5375 269.693 43.9154V109.097C269.693 111.755 269.55 113.713 269.407 114.832C269.264 115.951 268.834 117.07 268.262 118.189C267.403 119.727 266.257 120.986 264.539 121.965C262.821 122.945 260.96 123.364 258.812 123.364C256.665 123.364 254.66 122.945 253.085 121.965C251.367 120.986 250.079 119.727 249.363 118.189C248.79 117.07 248.361 115.951 248.218 114.832C248.074 113.853 247.931 111.894 247.931 109.237Z" fill="white"/>
    </g>
    
    <g>
        <path d="M295.841 156.6C333.575 157.371 373.164 157.525 409.816 167.999C437.498 175.855 460.54 191.413 470.438 219.293C484.047 257.34 486.676 300.624 486.057 340.674C485.593 372.713 480.645 405.369 461.932 432.171C450.643 448.499 434.714 461.13 416.002 468.37C405.486 472.375 394.506 474.685 383.371 475.61C375.33 476.38 362.648 478.536 355.38 474.223C354.297 473.607 350.431 475.301 351.205 475.764C355.999 478.69 362.958 478.228 368.37 478.228C376.876 478.228 385.536 477.458 394.042 475.918C410.898 472.991 427.446 466.83 441.519 456.817C468.737 437.409 483.119 405.985 488.222 373.638C491.47 352.997 491.161 331.74 490.233 310.791C489.15 287.377 486.676 263.81 481.572 241.012C478.17 225.609 473.685 209.743 463.943 196.958C455.437 185.867 443.684 177.857 430.848 172.312C390.176 154.752 341.926 155.522 298.779 154.598C297.696 154.598 293.676 156.446 295.841 156.6Z" fill="white"/>
        <path d="M300.944 153.983C330.946 153.212 361.257 152.442 391.258 155.831C410.898 157.987 431.003 162.3 447.55 173.699C477.861 194.648 486.83 234.235 491.934 268.431C498.893 314.95 498.584 366.244 481.418 410.761C473.685 430.786 461.932 450.04 444.148 462.825C429.611 473.146 411.517 478.229 394.351 482.08C338.06 494.557 278.211 493.478 220.837 490.09C184.031 487.933 147.379 483.928 111.037 478.691C87.6853 475.302 60.7767 474.84 42.0643 458.512C14.0731 433.866 7.88724 390.274 5.41288 355.462C2.93852 318.493 5.25823 281.062 10.8255 244.556C12.5267 233.773 14.0731 222.683 17.63 212.362C24.5892 192.184 40.0539 178.012 59.6941 170.002C83.2005 160.298 109.491 157.833 134.698 156.601C166.246 155.061 198.104 155.831 229.652 156.293C247.281 156.601 264.757 156.755 282.386 156.909C285.015 156.909 285.789 153.674 282.696 153.52C245.735 152.904 208.774 152.134 171.814 152.288C143.358 152.596 114.439 153.212 86.2935 158.758C65.7254 162.917 44.6933 170.31 29.5379 185.56C18.7126 196.497 12.9906 210.514 9.74301 225.455C2.62923 259.651 -0.154427 295.08 0.000219997 329.892C0.154867 367.939 3.24782 411.377 24.5892 444.341C33.5587 458.204 46.3945 469.141 62.4778 473.608C78.0972 477.921 94.9537 479.461 111.037 481.772C131.141 484.698 151.245 487.163 171.504 489.165C236.301 495.635 302.955 498.716 367.597 489.781C388.32 486.855 409.352 482.696 428.683 474.532C446.158 467.138 460.231 455.123 470.902 439.566C497.81 399.978 502.295 347.144 499.666 300.625C498.429 277.982 495.181 255.492 489.305 233.619C484.82 216.983 478.634 200.656 467.809 187.1C440.436 152.75 392.031 150.902 351.514 150.132C334.657 149.824 317.801 150.132 301.099 150.44C298.779 150.594 297.851 153.983 300.944 153.983Z" fill="white"/>
        <path d="M287.799 151.363C236.765 152.904 184.958 152.133 134.234 158.295C102.067 162.146 64.952 168.769 41.6002 193.261C20.7228 214.98 16.238 247.174 13.1451 275.825C7.73241 326.502 4.79411 383.496 25.9808 431.093C43.6106 470.526 87.2212 495.942 129.595 500.872C149.544 503.182 173.36 503.49 191.608 493.94C197.949 490.705 208.001 483.311 206.454 474.685C205.526 469.14 199.186 468.832 194.546 469.756C187.278 471.143 180.319 475.764 176.762 482.233C171.504 491.475 174.906 501.026 183.721 506.417C202.897 518.124 231.507 515.197 252.694 513.194C268.932 511.654 289.655 509.189 302.8 498.407C306.511 495.326 311.305 488.395 304.501 485.622C298.16 483.157 289.809 488.549 286.871 493.786C277.592 510.114 295.995 519.202 309.604 520.896C337.595 524.285 367.597 521.512 395.124 515.967C406.104 513.657 417.084 510.884 427.291 506.417C426.208 506.263 425.28 506.109 424.198 505.955C415.538 524.131 447.859 524.285 457.911 523.823C469.046 523.361 480.335 521.82 491.16 519.202C498.893 517.353 507.862 515.043 514.048 509.806C512.656 509.806 511.419 509.806 510.027 509.806C504.46 519.972 524.719 523.053 530.595 523.669C546.833 525.209 563.844 522.129 577.763 513.657C576.526 513.657 575.288 513.657 574.206 513.657C577.144 521.974 588.279 523.207 595.857 523.361C609.929 523.669 621.992 519.356 635.137 515.505C640.859 513.811 647.818 517.815 653.695 519.356C659.881 521.05 666.221 522.283 672.562 523.053C681.995 524.131 691.738 524.131 701.017 522.283C729.781 516.429 747.256 493.17 753.442 465.751C754.989 458.666 756.226 451.426 756.226 444.186C756.226 442.8 752.05 444.032 751.741 445.11C748.803 454.044 740.606 460.052 731.173 460.206C729.627 460.206 726.379 462.517 729.317 462.517C741.07 462.362 752.36 456.047 756.071 444.494C754.525 444.802 753.133 445.11 751.586 445.418C751.586 460.206 747.566 475.918 740.606 489.011C734.421 501.026 724.832 511.192 712.306 516.583C693.594 524.747 671.634 521.82 652.612 516.275C648.127 515.043 642.405 511.654 637.766 512.116C634.982 512.424 631.58 514.889 628.796 515.813C624.157 517.507 619.363 518.74 614.569 519.664C605.135 521.512 582.557 525.055 578.381 512.578C577.917 511.346 575.443 512.27 574.824 512.578C561.989 520.28 546.215 523.053 531.369 521.204C526.265 520.588 509.409 517.816 514.203 509.189C514.976 507.957 510.646 508.881 510.182 509.189C504.769 513.965 496.418 515.659 489.614 517.353C479.716 519.664 469.51 521.05 459.303 521.358C450.024 521.666 420.332 521.82 428.373 505.03C428.992 503.798 425.59 504.414 425.28 504.568C402.702 514.427 376.876 517.661 352.596 519.048C339.606 519.818 326.306 519.972 313.47 518.74C304.965 517.816 293.057 515.505 289.655 506.263C287.335 500.255 290.892 486.238 299.707 487.316C307.13 488.241 300.789 496.25 298.006 498.407C283.469 509.344 260.581 510.422 243.415 511.5C225.631 512.578 198.722 514.889 184.03 501.95C176.917 495.788 176.917 486.392 182.484 479.152C186.35 474.069 202.433 466.521 201.66 477.458C201.506 480.847 199.495 483.928 197.175 486.392C185.886 498.715 164.7 499.639 149.389 499.485C131.296 499.331 114.594 495.788 97.5826 489.165C78.097 481.617 58.9207 470.68 45.1571 454.507C30.1563 436.946 22.5786 413.687 18.4031 391.198C10.5161 349.3 12.9904 305.245 18.4031 263.194C21.496 239.318 26.5994 213.594 43.1467 194.956C62.9415 172.774 94.7989 165.689 123.099 161.53C167.947 155.06 213.723 155.522 258.88 154.136C267.695 153.828 276.51 153.674 285.324 153.366C287.49 153.52 290.737 151.209 287.799 151.363Z" fill="white"/>
        <path d="M754.989 444.956C754.989 444.956 755.917 467.138 770.608 464.057" stroke="white" stroke-width="2" stroke-miterlimit="10" stroke-linecap="round" stroke-linejoin="round"/>
        <path d="M428.219 506.109C430.384 505.03 432.394 503.798 434.095 502.104C434.714 501.488 435.797 500.255 435.642 499.331C435.333 497.945 433.013 498.253 432.085 498.561C430.384 499.023 428.992 499.947 427.755 501.334C426.054 503.182 424.817 505.647 423.889 507.957C423.579 508.881 425.435 508.727 425.744 508.727C426.518 508.573 427.909 508.265 428.373 507.341C429.147 505.493 429.92 503.798 431.157 502.258C431.312 501.95 431.621 501.642 431.776 501.488C431.93 501.334 431.93 501.334 432.085 501.18C432.24 501.026 432.085 501.18 432.085 501.18L432.24 501.026C432.394 500.871 432.704 500.717 432.858 500.563C433.168 500.409 432.394 500.717 432.858 500.563C433.013 500.563 433.168 500.409 433.168 500.409C433.013 500.563 432.704 500.717 433.013 500.563C433.168 500.563 432.394 500.717 432.549 500.717C432.704 500.717 432.858 500.717 432.394 500.717C432.085 500.717 431.621 500.872 431.312 500.717C431.002 500.563 431.157 500.717 431.312 500.717C431.002 500.563 431.002 500.563 431.157 500.717C431.312 500.717 431.002 500.409 431.157 500.563V500.717C431.157 500.872 431.157 500.563 431.157 500.717V500.871C431.157 501.026 431.002 501.18 431.002 501.334C431.002 501.334 431.157 501.18 431.002 501.334C431.002 501.488 430.848 501.488 430.848 501.642C430.693 501.796 430.539 502.104 430.229 502.258C430.229 502.258 430.075 502.412 430.229 502.258L430.075 502.412C429.92 502.566 429.765 502.72 429.611 502.874C429.301 503.182 428.837 503.49 428.528 503.644C428.373 503.644 428.373 503.798 428.219 503.798C428.373 503.644 428.219 503.798 428.064 503.798C427.755 503.952 427.6 504.106 427.291 504.26C426.672 504.568 426.208 504.876 425.59 505.185C424.971 505.493 424.198 506.263 425.126 506.725C425.899 507.033 427.291 506.571 428.219 506.109Z" fill="white"/>
    </g>
    <defs>
        <clipPath>
            <rect width="166.796" height="161.415" fill="white" transform="translate(170.618 0.554321)"/>
            </clipPath>
            <clipPath>
                <rect width="109.404" height="120.165" fill="white" transform="translate(303.338 31.0439)"/>
            </clipPath>
            <clipPath>
                <rect width="772" height="374" fill="white" transform="translate(0 150.131)"/>
            </clipPath>
    </defs>
</svg>