<svg class="item__social-icon" xmlns="http://www.w3.org/2000/svg" width="457" height="503" viewBox="0 0 457 503" fill="none" data-depth="0.5">
    
    
    <g>
        
        
        
        <g opacity="0.85">
            <g opacity="0.85">
                <path opacity="0.85" d="M107.521 79.1393C112.783 77.8336 115.993 72.5018 114.683 67.257C113.373 62.0123 108.023 58.8132 102.74 60.119C97.4779 61.4247 94.2684 66.7565 95.5784 72.023C96.9103 77.246 102.259 80.445 107.521 79.1393ZM104.159 65.6684C106.342 65.1243 108.547 66.4518 109.093 68.6281C109.639 70.8043 108.307 73.0023 106.124 73.5464C103.941 74.0904 101.735 72.7629 101.19 70.5867C100.644 68.4322 101.976 66.2124 104.159 65.6684Z" fill="white"/>
                <path opacity="0.85" d="M113.329 85.9291C115.163 84.9933 116.844 83.7746 118.307 82.2513C119.399 81.0979 119.377 79.2916 118.22 78.1817C117.063 77.0718 115.251 77.1154 114.137 78.2688C110.84 81.6854 105.797 82.9477 101.277 81.4678C99.7708 80.9673 98.1333 81.7943 97.6311 83.2959C97.1289 84.7975 97.9586 86.4296 99.4651 86.9302C101.452 87.583 103.526 87.8877 105.578 87.8442L101.583 94.5035C100.775 95.8745 101.212 97.6372 102.565 98.4424C103.242 98.8559 104.028 98.943 104.749 98.7689C105.469 98.5948 106.124 98.1378 106.517 97.4631L110.447 90.9344L116.997 94.8517C118.351 95.6786 120.141 95.2216 120.949 93.8724C121.779 92.5013 121.32 90.7386 119.967 89.9334L113.329 85.9291Z" fill="white"/>
            </g>
        </g>
    </g>
    <defs>
        <clipPath>
            <rect width="156.035" height="156.035" fill="white" transform="translate(152.095 0.935181)"/>
        </clipPath>
        <clipPath>
            <rect width="456.037" height="358.445" fill="white" transform="translate(0.909668 144.438)"/>
        </clipPath>
        <clipPath>
            <rect width="98.6427" height="82.5012" fill="white" transform="translate(46.2788 20.6637)"/>
        </clipPath>
    </defs>
</svg>