<svg  height="100%" viewBox="0 0 56 409" xmlns="http://www.w3.org/2000/svg">
<path d="M52.2636 0.99186C43.3716 2.77675 34.0054 4.68064 26.0619 9.55936C17.9998 14.4381 12.7832 22.0536 9.58208 30.7401C4.00977 45.4952 2.82417 61.9163 2.11281 77.5044C1.52001 90.9506 1.28289 104.516 1.16433 117.962C0.45297 154.255 0.215851 190.429 0.215851 226.603C0.215851 246.593 0.452971 266.584 0.69009 286.694C0.80865 296.214 1.04577 305.852 1.28289 315.371C1.52001 325.129 1.63857 335.005 2.70561 344.644C5.31392 369.394 15.1544 397.477 40.6448 406.639C42.5417 407.353 44.5572 407.948 46.4542 408.305C47.8769 408.662 50.011 407.591 47.6398 407.115C22.9793 401.522 11.2419 376.415 7.448 353.449C4.24689 334.767 4.83968 315.252 4.484 296.214C4.12833 276.937 3.89121 257.66 3.89121 238.383C3.77265 201.971 4.00977 165.559 4.484 129.028C4.60256 116.296 4.83968 103.445 5.19536 90.5936C5.6696 74.0536 6.2624 57.2756 10.0563 41.2115C12.4275 31.3351 16.2214 21.3397 23.9278 14.4381C30.4486 8.60741 38.9849 5.87057 47.2841 3.84769C49.6553 3.25273 52.1451 2.77675 54.5163 2.30078C56.4132 2.0628 53.0935 0.872867 52.2636 0.99186Z">
</svg>
