<svg  height="100%" viewBox="0 0 72 413" xmlns="http://www.w3.org/2000/svg">
<path d="M3.1611 412.873C12.8005 411.679 23.305 410.126 31.4614 404.633C33.9331 402.961 36.034 401.05 37.7641 398.662C38.5056 397.587 39.2471 396.512 39.865 395.437C40.6065 394.363 41.348 393.288 42.3367 392.452C42.7074 392.094 43.0782 391.735 43.5725 391.377C43.9432 391.019 44.4376 390.78 44.9319 390.541C45.4262 390.422 45.3026 390.302 44.8083 390.183C45.4262 390.899 49.0101 391.019 48.145 389.944C45.3026 386.6 40.2358 390.063 38.1349 392.332C35.7868 394.84 34.4274 398.065 31.9558 400.573C24.2937 408.216 12.059 410.126 1.67811 411.44C-0.917119 411.679 1.92527 412.992 3.1611 412.873Z"/>
<path d="M32.8209 369.881C28.3719 369.881 24.4173 371.911 21.3277 375.016C21.8221 374.897 22.1928 374.777 22.6871 374.658C19.9683 374.539 17.3731 374.419 14.6543 374.3C14.2835 374.3 13.4185 374.3 13.1713 374.777C12.677 376.091 12.9241 377.882 13.6656 379.077C14.4071 380.51 16.3844 381.226 17.1259 382.54C16.6316 381.704 16.7552 382.54 16.7552 383.018C16.6316 383.854 16.7552 384.689 16.7552 385.525C16.8788 387.794 17.1259 390.183 17.991 392.332C20.957 399.737 29.9785 402.364 37.517 401.289C52.9648 399.259 59.7618 383.854 63.0985 370.837C67.9182 351.848 68.9069 332.024 69.772 312.559C70.637 293.571 71.1314 274.582 71.3785 255.475C71.7493 217.021 71.3785 178.567 70.5135 140.113C70.0191 126.26 69.6484 112.169 69.2776 98.0768C68.9069 85.5375 68.6597 72.8788 67.0532 60.3395C65.0759 46.6059 61.7391 32.1559 52.594 21.1691C44.6848 11.6153 33.1916 6.12191 21.0806 3.13636C17.6203 2.30041 14.0364 1.58388 10.4525 0.986766C8.3516 0.628501 8.10444 2.06156 10.2053 2.41983C22.44 4.45 34.7982 7.91324 44.1905 16.0339C53.7063 24.274 58.526 36.2162 61.2448 48.039C64.3344 61.4143 64.8287 75.1478 65.323 88.7619C65.6938 99.8681 66.0645 110.974 66.3117 122.081C67.1767 155.758 67.7947 189.435 67.7947 223.112C67.7947 259.774 67.6711 296.556 64.8287 333.099C63.5929 348.505 62.2335 364.627 56.6723 379.315C54.3242 385.406 51.1111 391.377 45.6734 395.557C38.5057 401.05 26.1474 402.722 21.8221 393.049C20.3391 389.825 20.2155 386.123 20.5862 382.659C20.5862 382.42 20.3391 382.182 20.0919 382.062C17.8674 380.629 16.0137 378.121 17.0024 375.375C16.508 375.494 16.0137 375.733 15.5194 375.852C18.1146 375.972 20.957 376.449 23.5522 376.211C24.6645 376.091 24.788 375.972 25.6531 375.255C27.8776 373.344 30.5964 371.434 33.686 371.434C36.1576 371.434 34.4275 369.881 32.8209 369.881Z"/>
<path d="M24.6643 387.675C25.1587 390.422 28.7426 391.019 31.0906 390.78C35.7867 390.183 37.6405 386.123 37.5169 381.823C36.6518 381.704 35.9103 381.704 35.0452 381.585C38.382 386.6 47.1563 386.72 48.145 379.913C48.3921 377.882 47.8978 375.972 46.662 374.419C45.5497 372.867 43.8196 372.389 42.4602 371.195C40.9772 369.881 40.4829 366.537 39.7414 364.507C39.4942 363.91 38.0112 363.791 37.5169 364.03C34.7981 365.343 32.3264 367.493 31.2142 370.359C30.967 370.837 33.4387 371.434 33.6858 370.717C34.6745 368.09 37.0226 366.06 39.4942 364.865C38.7527 364.746 38.0112 364.627 37.2697 364.388C37.7641 365.821 38.2584 367.254 38.7527 368.806C39.4942 371.075 39.4942 370.956 41.4715 372.27C44.5611 374.3 46.2912 377.405 45.179 380.987C43.9432 384.928 39.4942 385.167 37.2697 381.823C37.0226 381.465 34.7981 380.868 34.7981 381.585C34.9217 384.331 34.4273 387.197 31.9557 388.869C30.4727 389.944 27.2596 390.661 26.7652 388.033C27.0124 387.317 24.5408 387.197 24.6643 387.675Z"/>
<path d="M36.034 382.301C35.9104 382.301 35.9104 382.182 35.9104 382.062C35.9104 381.823 35.9104 381.704 36.034 381.584C36.1576 381.465 36.2811 381.107 36.4047 381.107C36.5283 380.987 36.6519 380.987 36.6519 380.868L36.7755 380.748C36.8991 380.629 36.8991 380.629 36.7755 380.748C36.8991 380.629 36.8991 380.748 36.6519 380.748C36.5283 380.748 36.5283 380.748 36.4047 380.748C34.3038 381.107 34.551 380.151 34.9217 380.748C35.0453 380.987 35.0453 381.226 34.7982 381.465C34.6746 381.704 34.4274 381.943 34.1802 382.062C34.0567 382.182 33.9331 382.182 33.8095 382.301C33.6859 382.42 33.6859 382.42 33.8095 382.301L33.6859 382.42C33.068 382.779 33.068 383.256 33.6859 383.376C34.4274 383.615 35.5396 383.615 36.2811 383.256C37.1462 382.779 38.382 382.062 38.6292 380.987C38.8764 379.315 36.4047 379.196 35.4161 379.315C34.3038 379.435 33.3152 380.032 32.6973 380.987C32.2029 381.704 32.0793 382.659 32.9444 383.137C33.5623 383.615 34.7982 383.495 35.5396 383.256C35.9104 383.137 36.7755 382.779 36.034 382.301Z"/>
</svg>
