<svg width="586" height="496" viewBox="0 0 586 496" fill="none" xmlns="http://www.w3.org/2000/svg">
<path d="M163.36 0.223511C145.976 0.223511 128.764 0.223511 111.381 0.752157C99.3324 1.10459 87.2843 1.2808 75.4083 2.86674C61.4669 4.6289 46.3207 8.15321 34.1005 15.5543C19.6427 24.365 11.7254 39.1671 7.25038 55.379C1.05421 78.287 1.05421 102.428 0.537862 126.218C-0.322717 178.201 -0.150601 230.185 1.05421 282.168C1.74267 311.42 2.77537 340.848 4.66864 370.1C6.3898 397.766 7.07827 426.841 15.8562 453.45C21.3639 470.014 31.5187 487.283 49.763 490.455C60.2621 492.217 71.2775 492.393 81.7766 492.922C98.2997 493.803 114.823 494.332 131.174 494.684C140.468 494.86 149.59 495.037 158.885 495.213C162.327 495.213 160.089 493.098 157.852 492.922C126.527 492.57 95.2016 491.865 63.8765 489.574C55.7871 489.045 47.6976 489.045 40.6409 484.464C33.0678 479.353 27.9043 471.071 24.1177 462.789C13.1023 438.119 12.0696 409.572 10.3485 382.964C8.79943 354.593 7.59462 326.751 6.90615 298.909C5.35711 246.397 5.01288 193.708 5.70134 141.196C6.04557 119.874 5.70134 98.1993 8.4552 76.8772C10.8648 58.0222 15.6841 37.405 29.6255 24.0126C40.1245 13.7921 54.238 9.73915 68.0073 6.74348C90.7266 1.98567 114.823 2.69053 137.886 2.51431C146.664 2.51431 155.614 2.3381 164.392 2.51431C168.007 2.3381 165.597 0.223511 163.36 0.223511Z" fill="#FFCA4C"/>
<path d="M435.833 494.86C451.323 494.684 466.986 494.332 482.476 493.451C494.868 492.746 507.433 492.217 519.653 489.926C527.915 488.34 553.56 483.759 543.921 468.78C539.274 461.556 527.915 459.794 520.169 460.851C519.137 461.027 518.104 461.556 519.481 462.437C523.956 465.08 526.021 469.662 529.636 473.186C533.25 476.534 537.897 477.415 542.716 477.415C546.159 477.415 543.921 475.124 541.684 475.124C532.734 475.124 530.152 465.785 523.267 461.556C523.095 462.084 522.751 462.613 522.579 463.142C529.464 462.261 539.446 464.375 540.651 472.657C541.34 477.239 539.963 479.177 536.52 481.292C528.947 485.873 519.653 487.459 511.047 488.693C501.064 490.103 491.082 490.631 481.099 491.16C465.781 491.865 450.462 492.217 434.972 492.57C431.358 492.746 433.595 494.86 435.833 494.86Z" fill="#FFCA4C"/>
<path d="M538.93 445.873C538.242 444.111 538.242 442.525 538.93 440.762C539.619 439.176 540.823 437.943 541.856 439.353C544.61 442.348 540.823 448.868 537.381 449.045C537.037 449.045 535.832 449.221 536.004 449.749C537.381 460.146 538.93 474.243 551.667 474.948C561.305 475.477 567.674 466.842 570.944 458.56C575.935 446.225 577.656 432.304 579.205 419.088C584.369 376.091 584.885 332.214 585.057 288.865C585.229 244.282 584.369 199.7 583.164 155.117C582.82 140.315 582.303 125.513 581.787 110.711C581.099 88.8601 579.894 66.3045 570.944 46.2159C563.026 28.5944 549.085 16.4355 531.185 10.268C522.063 7.09609 512.769 5.68637 503.302 4.62908C487.812 3.04314 472.149 2.33828 456.659 1.63341C447.365 1.28098 438.07 0.928551 428.776 0.752336C425.334 0.57612 427.571 2.86692 429.809 3.04314C447.192 3.57178 464.576 4.10043 481.96 5.15772C493.492 5.86258 505.195 6.39123 516.555 8.68203C534.283 12.0301 550.634 20.4885 560.617 36.1716C573.353 55.9078 575.591 80.9304 576.452 104.015C576.796 116.35 577.312 128.509 577.656 140.844C578.861 181.373 579.722 221.727 579.894 262.256C580.066 305.605 579.722 349.307 576.452 392.479C575.247 408.339 573.698 424.374 570.6 440.058C569.567 445.52 568.19 450.983 566.297 456.269C563.887 462.613 554.937 477.944 547.192 470.719C542.2 465.961 541.856 456.798 540.996 450.454C540.479 450.63 540.135 450.983 539.619 451.159C546.331 450.983 551.323 440.762 544.266 437.062C538.242 433.89 531.357 438.648 533.939 445.696C534.455 447.106 539.447 447.459 538.93 445.873Z" fill="#FFCA4C"/>
<path d="M543.234 433.713C543.234 430.013 543.234 425.079 545.299 421.907C545.643 421.378 545.987 421.202 546.332 420.85C546.848 420.674 546.676 420.497 545.987 420.497C546.16 420.674 546.16 420.674 546.332 420.85C546.332 421.731 546.848 422.612 546.676 423.669C546.16 427.37 543.406 430.542 540.824 433.185C540.308 433.713 542.545 434.418 543.234 433.713C545.987 431.07 549.602 426.841 549.258 422.612C549.086 420.497 547.364 419.264 545.299 419.616C540.652 420.497 540.824 429.837 540.652 433.361C540.652 434.242 543.234 434.418 543.234 433.713Z" fill="#FFCA4C"/>
<path d="M551.494 439.705C552.355 439.177 553.387 438.472 554.42 438.119C555.453 437.591 558.895 435.829 559.584 436.533C560.616 437.414 559.584 438.824 558.723 439.353C556.486 440.939 553.215 439.705 550.978 438.824C549.945 438.472 547.019 439 549.085 439.881C552.527 441.291 556.83 442.349 560.444 441.115C562.165 440.41 564.231 438.648 562.854 436.71C561.305 434.419 557.518 434.947 555.281 435.652C552.871 436.357 550.634 437.591 548.568 439C547.535 439.353 550.806 440.234 551.494 439.705Z" fill="#FFCA4C"/>
<path d="M529.119 445.52C528.087 446.578 527.054 447.635 526.021 448.516C524.989 449.397 524.128 450.102 522.923 450.631C522.407 450.807 521.891 451.159 521.374 451.335C520.858 451.335 521.546 451.512 521.374 451.335C521.202 451.335 521.03 451.159 521.03 450.983C520.514 449.573 520.858 448.516 521.89 447.459C524.128 445.52 527.57 445.873 530.152 446.401C530.668 446.578 532.045 446.754 532.39 446.225C532.734 445.696 531.701 445.344 531.357 445.168C527.57 444.287 522.923 443.758 519.481 446.049C517.76 447.106 516.383 449.397 518.104 451.159C519.997 453.45 523.784 452.745 526.021 451.512C528.431 450.102 530.668 448.163 532.39 446.225C532.906 445.696 529.808 444.815 529.119 445.52Z" fill="#FFCA4C"/>
<path d="M547.364 449.926C549.602 450.631 555.798 452.745 555.281 455.917C555.281 456.446 554.937 456.974 554.421 457.151C554.249 457.151 554.249 457.151 553.904 456.798C551.667 455.036 550.634 452.04 550.118 449.221C549.946 448.34 546.503 447.987 546.848 449.221C547.536 452.569 548.913 456.27 552.183 457.855C553.904 458.737 557.003 459.265 558.379 457.503C561.478 453.45 552.011 449.573 549.429 448.868C548.913 448.692 547.536 448.34 547.02 448.868C546.331 449.397 546.676 449.75 547.364 449.926Z" fill="#FFCA4C"/>
<path d="M534.972 436.533C533.939 431.951 531.529 423.845 525.505 424.727C523.268 425.079 522.579 427.194 523.268 429.308C524.473 433.185 528.948 435.476 532.39 437.062C533.423 437.414 536.349 436.885 534.283 436.004C531.357 434.771 528.259 433.009 526.882 430.013C526.366 428.78 526.194 427.017 527.399 426.136C526.882 426.489 526.882 425.784 527.226 426.312C527.226 426.489 527.571 426.665 527.743 426.841C528.087 427.194 528.431 427.722 528.775 428.251C529.464 429.308 529.98 430.542 530.325 431.775C530.841 433.361 531.357 434.771 531.701 436.357C531.874 437.414 535.144 437.766 534.972 436.533Z" fill="#FFCA4C"/>
</svg>



