<svg width="163" height="55" viewBox="0 0 163 55" fill="none" xmlns="http://www.w3.org/2000/svg">
<path d="M27.0222 42.0647C29.0825 42.2064 31.1906 42.3008 33.3467 42.348V6.23213H39.5754V0.378052H20.7456V6.23213H26.9743V42.0647H27.0222Z" fill="#EA0029"/>
<path d="M54.9549 41.7339L56.0569 36.7296H49.5408V0.424927H43.2642V42.3949C47.2888 42.3005 51.2656 42.0644 54.9549 41.7339Z" fill="#EA0029"/>
<path d="M64.2518 40.8369L65.5933 33.1417H72.397L73.5469 39.5623C74.7926 39.3734 75.4634 39.2318 75.4634 39.2318C75.4634 39.2318 77.0925 38.9485 79.8235 38.5708L71.7741 0.424927H66.2162L57.5439 41.4979C59.9396 41.309 62.1915 41.073 64.2518 40.8369ZM68.9952 13.5022L71.3908 27.2404H66.5995L68.9952 13.5022Z" fill="#EA0029"/>
<path d="M89.7419 37.3434V18.0344L96.6893 36.6824C99.037 36.4936 101.529 36.3047 104.068 36.2103V0.424927H97.7434V24.8326L89.0711 0.424927H83.4653V38.0515C85.3339 37.8627 87.4421 37.5794 89.7419 37.3434Z" fill="#EA0029"/>
<path d="M113.984 35.9743C116.092 35.9743 118.2 36.0215 120.309 36.1159V6.279H126.537V0.424927H107.755V6.279H113.984V35.9743Z" fill="#EA0029"/>
<path d="M136.551 37.3434V0.424927H130.226V36.7296C132.43 36.9185 134.538 37.1073 136.551 37.3434Z" fill="#EA0029"/>
<path d="M150.589 39.2318C150.589 39.2318 154.087 39.8455 159.597 40.5536C161.753 38.5236 162.999 35.4077 162.999 31.6781V28.5622H156.674V31.4893C156.674 35.1245 155.237 37.2961 152.841 37.2961C150.446 37.2961 149.008 35.1717 149.008 31.4893V11.6609C149.008 8.02575 150.446 5.85408 152.841 5.85408C155.189 5.85408 156.674 7.97854 156.674 11.6609V13.9742H162.999V11.4721C162.999 4.81545 158.83 0 152.841 0C146.804 0 142.684 4.67382 142.684 11.4249V31.6309C142.684 34.1803 143.259 36.4464 144.313 38.2403C148.194 38.8069 150.589 39.2318 150.589 39.2318Z" fill="#EA0029"/>
<path d="M0.862434 39.1849C0.862434 39.1849 2.92269 39.5626 6.32452 40.0347L7.57025 33.0476H14.3739L15.8113 41.1677C17.9195 41.4038 20.1714 41.5926 22.5191 41.7815L13.7031 0.378052H8.14521L0 39.0433C0.574956 39.1377 0.862434 39.1849 0.862434 39.1849ZM10.9242 13.4553L13.3198 27.1935H8.52851L10.9242 13.4553Z" fill="#EA0029"/>
<path d="M90.8916 54.4331C90.1729 54.7636 89.0709 54.9996 87.9689 54.9996C84.7109 54.9996 83.4172 53.3001 83.4172 49.5232C83.4172 45.652 84.8067 43.9996 88.0168 43.9996C88.9272 43.9996 89.9813 44.1885 90.652 44.4717L90.4604 46.1241C89.7896 45.8408 88.9272 45.652 88.1127 45.652C86.1003 45.652 85.3337 46.4546 85.3337 49.4288C85.3337 52.4031 86.0045 53.2056 87.8731 53.2056C88.3522 53.2056 88.7835 53.1584 89.1668 53.0168V49.0984H90.8437V54.4331H90.8916Z" fill="#5B6670"/>
<path d="M100.331 50.1843L102.727 54.8109H100.619L98.6543 50.5148H97.0732V54.8109H95.2046V44.1886H98.6064C100.954 44.1886 102.104 45.1328 102.104 47.3517C102.104 48.9096 101.481 49.901 100.331 50.1843ZM98.6543 45.7937H97.0732V49.0513H98.6064C99.7084 49.0513 100.188 48.6736 100.188 47.3989C100.188 46.1714 99.7563 45.7937 98.6543 45.7937Z" fill="#5B6670"/>
<path d="M113.938 51.2229C113.938 53.8195 112.597 54.9998 110.105 54.9998C107.614 54.9998 106.224 53.7723 106.224 51.2229V44.1886H108.093V51.1757C108.093 52.6392 108.716 53.253 110.105 53.253C111.495 53.253 112.069 52.6392 112.069 51.1757V44.1886H113.89V51.2229H113.938Z" fill="#5B6670"/>
<path d="M121.795 51.0341H120.262V54.8109H118.394V44.1886H121.747C124.383 44.1886 125.437 45.2272 125.437 47.635C125.485 49.901 124.431 51.0341 121.795 51.0341ZM121.795 45.7937H120.262V49.4762H121.795C123.041 49.4762 123.616 49.0985 123.616 47.635C123.568 46.2186 123.089 45.7937 121.795 45.7937Z" fill="#5B6670"/>
<path d="M133.773 52.4976H129.988L129.365 54.8109H127.4L130.802 44.1886H133.054L136.504 54.8109H134.444L133.773 52.4976ZM131.569 46.6907L130.371 50.8925H133.294L132.144 46.6907L131.856 45.5577H131.808L131.569 46.6907Z" fill="#5B6670"/>
</svg>
