<svg width="989" height="860" viewBox="0 0 989 860" fill="none" xmlns="http://www.w3.org/2000/svg">
<path d="M170.455 796.364C158.026 810.562 141.538 823.746 124.036 831.099C92.8363 844.029 68.2318 826.789 54.0271 799.407C33.7347 760.108 26.6324 713.204 20.5447 669.849C4.05711 549.419 3.80345 426.199 7.86193 305.008C9.38386 257.343 11.9204 209.678 17.2472 162.52C22.0666 119.926 32.7201 79.8666 70.0073 54.0058C96.3874 35.4975 128.602 26.8772 160.055 21.8065C197.596 15.7216 236.151 14.2003 274.199 13.9468C335.33 13.1862 396.461 15.2145 457.592 15.7216C511.113 16.2286 564.634 16.4822 618.409 16.9893C673.706 17.2428 729.256 18.5105 783.792 27.8914C844.669 38.2864 904.024 62.8796 930.151 122.715C950.95 170.126 958.56 223.876 964.648 274.837C979.613 400.845 980.121 532.432 960.843 658.186C954.755 698.245 947.906 746.164 924.063 780.138C906.814 804.731 871.303 810.055 843.908 815.126C735.344 835.156 622.214 835.663 512.381 836.423C409.397 837.184 305.906 835.916 203.176 829.831C190.24 829.071 176.796 828.817 163.86 826.535C146.865 823.493 132.406 812.591 121.246 799.914C89.7924 764.419 74.5731 714.725 62.905 669.595C33.2274 558.039 23.0812 439.89 21.5593 324.784C21.052 279.147 23.5885 233.51 28.1543 188.127C31.7055 151.871 36.2713 111.559 58.3392 81.1343C83.1974 47.1603 126.826 35.4975 166.143 28.652C228.034 17.7499 291.702 16.4822 354.608 15.468C452.519 13.6933 550.176 12.6791 648.087 11.665C721.393 10.9044 798.504 13.9468 868.005 38.7935C888.551 46.1461 908.336 55.7805 929.136 62.6261C940.55 66.4291 951.965 68.9645 963.887 65.1614C988.491 57.5553 998.13 28.3985 979.613 8.87606C965.409 -6.08267 938.268 -1.01192 927.107 15.2145C918.483 27.8914 920.258 43.6107 923.048 58.0624C927.107 79.8666 933.956 100.91 938.521 122.461C947.653 166.577 948.414 212.974 950.189 257.85C955.263 387.408 955.516 519.248 941.058 648.298C931.926 729.684 906.053 834.648 811.948 854.171C774.407 862.031 737.373 852.903 701.861 840.733C671.423 830.338 639.97 824 608.009 819.436C533.942 809.041 458.099 808.534 383.778 814.619C324.93 819.436 263.8 827.042 208.757 849.1C205.205 850.621 208.503 851.889 210.786 850.875C274.199 825.521 345.984 818.676 413.71 815.126C491.074 811.069 570.468 813.351 646.565 829.324C681.062 836.423 713.783 851.382 748.534 856.96C776.182 861.523 804.592 860.509 831.225 850.875C873.839 835.409 903.517 799.153 921.273 758.334C936.999 722.331 942.833 683.286 947.146 644.495C953.994 581.364 956.531 517.726 957.799 454.342C959.067 386.901 958.56 319.206 956.023 251.765C954.248 204.607 952.98 156.182 942.326 110.038C937.253 88.7405 930.151 67.4433 927.614 45.639C925.331 25.1025 933.955 -0.504841 959.575 2.53761C976.316 4.56591 986.969 22.8206 984.179 38.7935C982.657 47.6673 977.33 55.2735 969.721 59.5836C957.799 66.1756 944.863 62.8796 932.687 58.823C911.888 51.7239 892.102 42.0895 871.303 34.9904C853.04 28.652 833.762 23.8348 814.738 20.2853C769.334 11.665 722.915 8.11544 676.75 7.8619C581.375 7.35483 485.747 9.89021 390.373 11.4114C331.272 12.4256 271.917 13.1862 213.069 19.2711C168.679 23.8348 119.216 29.9197 80.9145 55.0199C51.7442 74.2888 37.2859 104.713 30.1835 137.927C20.0374 182.549 17.7545 229.2 16.2325 273.823C11.9204 384.365 22.0666 497.95 42.6126 606.718C52.7588 660.215 65.6952 715.486 91.0607 764.165C106.534 794.336 129.616 826.028 165.889 829.831C200.132 833.634 234.629 834.395 268.873 835.663C323.916 837.691 378.959 838.705 434.002 839.212C552.205 839.973 671.423 839.212 788.865 825.521C826.152 821.211 866.23 816.901 900.98 801.689C928.882 789.772 940.297 763.404 948.921 735.769C965.409 684.047 971.496 628.522 975.555 574.519C980.628 508.599 981.389 442.426 978.345 376.506C975.555 314.643 969.974 252.526 957.038 191.93C946.131 141.73 930.658 90.5152 886.268 60.0907C831.225 22.06 756.397 18.5105 691.969 15.468C648.087 13.4397 603.951 13.6933 560.068 13.4397C509.337 13.1862 458.353 12.9327 407.622 12.172C331.018 11.1579 253.4 7.10129 177.05 16.7357C124.289 23.5812 63.9196 38.54 33.7347 86.2051C13.4423 117.897 11.6668 157.956 8.62289 194.466C-1.26964 310.84 -2.28426 428.481 3.80345 544.855C6.84731 603.169 11.6668 661.989 23.0812 719.542C27.3933 741.093 32.7201 762.897 40.837 783.434C47.9394 801.689 57.8319 821.718 75.0804 832.113C109.831 852.903 152.952 821.972 175.528 796.111C176.796 794.589 171.469 795.097 170.455 796.364Z" fill="white"/>
</svg>
