<svg width="35" height="35" viewBox="0 0 35 35" fill="none" xmlns="http://www.w3.org/2000/svg">
<path fill-rule="evenodd" clip-rule="evenodd" d="M17.8296 34.3417C27.3128 34.3417 35.0004 26.6541 35.0004 17.1709C35.0004 7.68766 27.3128 0 17.8296 0C8.34635 0 0.658691 7.68766 0.658691 17.1709C0.658691 26.6541 8.34635 34.3417 17.8296 34.3417ZM22.5622 7.45148C21.3311 7.38668 20.9423 7.38668 17.7673 7.38668C14.5923 7.38668 14.2036 7.38668 12.9724 7.45148C11.8061 7.45148 11.1582 7.64586 10.7694 7.84025C10.251 8.09943 9.79745 8.35862 9.40868 8.74739C8.95511 9.13617 8.69593 9.52494 8.50154 10.1081C8.37195 10.4969 8.17756 11.1448 8.11276 12.3112C8.04797 13.5423 8.04796 13.9311 8.04796 17.106C8.04796 20.281 8.04797 20.6698 8.11276 21.9009C8.11276 23.0673 8.30715 23.7152 8.50154 24.104C8.76073 24.6224 9.0199 25.0759 9.40868 25.4647C9.79745 25.9183 10.1862 26.1774 10.7694 26.3718C11.1582 26.5014 11.8061 26.6958 12.9724 26.7606C14.2036 26.8254 14.5923 26.8254 17.7673 26.8254C20.9423 26.8254 21.3311 26.8254 22.5622 26.7606C23.7285 26.7606 24.3765 26.5662 24.7653 26.3718C25.2836 26.1127 25.7372 25.8535 26.126 25.4647C26.5796 25.0759 26.8387 24.6871 27.0331 24.104C27.1627 23.7152 27.3571 23.0673 27.4219 21.9009C27.4867 20.6699 27.4867 20.2811 27.4867 17.1069V17.106V17.1052C27.4867 13.931 27.4867 13.5422 27.4219 12.3112C27.4219 11.1448 27.2275 10.4969 27.0331 10.1081C26.7739 9.58974 26.5148 9.13617 26.126 8.74739C25.7372 8.29382 25.3484 8.03464 24.7653 7.84025C24.3765 7.71066 23.7285 7.51627 22.5622 7.45148ZM12.8429 5.24842C14.1388 5.18362 14.5275 5.18362 17.7673 5.18362C19.7519 5.18362 20.6667 5.20794 21.3755 5.22678L21.3756 5.22678C21.8239 5.2387 22.1898 5.24842 22.6918 5.24842C23.9877 5.31322 24.8301 5.5076 25.6076 5.83158C26.45 6.09077 27.0979 6.54434 27.7459 7.19229C28.3938 7.90505 28.7826 8.553 29.1066 9.33055C29.4306 10.1081 29.625 10.9504 29.6898 12.2464C29.7545 13.5422 29.7545 13.931 29.7545 17.17V17.1708V17.1717C29.7545 20.4107 29.7545 20.7995 29.6898 22.0953C29.625 23.3912 29.4306 24.2336 29.1066 25.0111C28.8474 25.8535 28.3938 26.5014 27.7459 27.1494C27.0331 27.7973 26.3852 28.1861 25.6076 28.5101C24.8301 28.8341 23.9877 29.0285 22.6918 29.0933C21.3959 29.1581 21.0071 29.1581 17.7673 29.1581C14.5275 29.1581 14.1388 29.1581 12.8429 29.0933C11.5469 29.0285 10.7046 28.8341 9.92705 28.5101C9.0847 28.2509 8.43674 27.7973 7.78878 27.1494C7.14083 26.4366 6.75205 25.7887 6.42807 25.0111C6.10409 24.2336 5.90971 23.3912 5.84491 22.0953C5.78012 20.7994 5.78011 20.4106 5.78011 17.1708C5.78011 13.9311 5.78012 13.5423 5.84491 12.2464C5.90971 10.9504 6.10409 10.1081 6.42807 9.33055C6.68725 8.48821 7.14083 7.84025 7.78878 7.19229C8.50154 6.54434 9.1495 6.15556 9.92705 5.83158C10.7046 5.5076 11.5469 5.31322 12.8429 5.24842ZM11.6762 17.1063C11.6762 13.7369 14.3976 11.0155 17.767 11.0155C21.1364 11.0155 23.8578 13.7369 23.8578 17.1063C23.8578 20.4757 21.1364 23.1971 17.767 23.1971C14.3976 23.1971 11.6762 20.4757 11.6762 17.1063ZM13.8144 17.1711C13.8144 19.3742 15.5639 21.1237 17.767 21.1237C19.9052 21.1237 21.7195 19.3094 21.7195 17.1711C21.7195 14.9681 19.97 13.2186 17.767 13.2186C15.5639 13.2186 13.8144 14.9681 13.8144 17.1711ZM25.5414 10.7564C25.5414 11.534 24.8934 12.1819 24.1159 12.1819C23.3384 12.1819 22.6904 11.534 22.6904 10.7564C22.6904 9.97886 23.3384 9.3309 24.1159 9.3309C24.8934 9.3309 25.5414 9.97886 25.5414 10.7564Z" fill="#345DA3"/>
</svg>
