<svg width="40" height="40" viewBox="0 0 40 40" fill="none" xmlns="http://www.w3.org/2000/svg">
<path fill-rule="evenodd" clip-rule="evenodd" d="M20 40C31.0457 40 40 31.0457 40 20C40 8.95431 31.0457 0 20 0C8.95431 0 0 8.95431 0 20C0 31.0457 8.95431 40 20 40ZM25.5099 8.67941C24.0759 8.60394 23.6231 8.60394 19.9249 8.60394C16.2268 8.60394 15.774 8.60394 14.34 8.67941C12.9816 8.67941 12.2268 8.90583 11.774 9.13224C11.1702 9.43413 10.6419 9.73602 10.1891 10.1888C9.6608 10.6417 9.35891 11.0945 9.1325 11.7738C8.98155 12.2266 8.75513 12.9813 8.67966 14.3398C8.60419 15.7738 8.60419 16.2266 8.60419 19.9247C8.60419 23.6228 8.60419 24.0756 8.67966 25.5096C8.67966 26.8681 8.90608 27.6228 9.1325 28.0756C9.43439 28.6794 9.73627 29.2077 10.1891 29.6605C10.6419 30.1889 11.0948 30.4907 11.774 30.7172C12.2268 30.8681 12.9816 31.0945 14.34 31.17C15.774 31.2455 16.2268 31.2455 19.9249 31.2455C23.6231 31.2455 24.0759 31.2455 25.5099 31.17C26.8683 31.17 27.6231 30.9436 28.0759 30.7172C28.6797 30.4153 29.208 30.1134 29.6608 29.6605C30.1891 29.2077 30.491 28.7549 30.7174 28.0756C30.8683 27.6228 31.0948 26.8681 31.1702 25.5096C31.2457 24.0758 31.2457 23.6229 31.2457 19.9255V19.9247V19.9239C31.2457 16.2265 31.2457 15.7736 31.1702 14.3398C31.1702 12.9813 30.9438 12.2266 30.7174 11.7738C30.4155 11.17 30.1136 10.6417 29.6608 10.1888C29.208 9.66055 28.7551 9.35866 28.0759 9.13224C27.6231 8.9813 26.8683 8.75488 25.5099 8.67941ZM14.1891 6.11337C15.6985 6.0379 16.1514 6.0379 19.9249 6.0379C22.2365 6.0379 23.302 6.06622 24.1276 6.08817H24.1276C24.6498 6.10205 25.076 6.11337 25.6608 6.11337C27.1702 6.18885 28.1514 6.41526 29.057 6.79262C30.0382 7.09451 30.7929 7.62281 31.5476 8.37753C32.3023 9.20772 32.7551 9.96243 33.1325 10.8681C33.5098 11.7738 33.7363 12.7549 33.8117 14.2643C33.8872 15.7736 33.8872 16.2265 33.8872 19.9993V20.0002V20.001C33.8872 23.7738 33.8872 24.2267 33.8117 25.736C33.7363 27.2455 33.5098 28.2266 33.1325 29.1322C32.8306 30.1134 32.3023 30.8681 31.5476 31.6228C30.7174 32.3775 29.9627 32.8304 29.057 33.2077C28.1514 33.5851 27.1702 33.8115 25.6608 33.887C24.1514 33.9624 23.6985 33.9624 19.9249 33.9624C16.1514 33.9624 15.6985 33.9624 14.1891 33.887C12.6797 33.8115 11.6985 33.5851 10.7929 33.2077C9.81174 32.9058 9.05702 32.3775 8.30231 31.6228C7.54759 30.7926 7.09475 30.0379 6.71739 29.1322C6.34004 28.2266 6.11363 27.2455 6.03815 25.736C5.96268 24.2266 5.96268 23.7738 5.96268 20.0002C5.96268 16.2266 5.96268 15.7738 6.03815 14.2643C6.11363 12.7549 6.34004 11.7738 6.71739 10.8681C7.01928 9.88696 7.54759 9.13224 8.30231 8.37753C9.13249 7.62281 9.88721 7.16998 10.7929 6.79262C11.6985 6.41526 12.6797 6.18885 14.1891 6.11337ZM12.8299 19.9248C12.8299 16.0002 15.9997 12.8304 19.9243 12.8304C23.8488 12.8304 27.0186 16.0002 27.0186 19.9248C27.0186 23.8493 23.8488 27.0191 19.9243 27.0191C15.9997 27.0191 12.8299 23.8493 12.8299 19.9248ZM15.3205 20.0002C15.3205 22.5663 17.3582 24.604 19.9243 24.604C22.4148 24.604 24.528 22.4908 24.528 20.0002C24.528 17.4342 22.4903 15.3965 19.9243 15.3965C17.3582 15.3965 15.3205 17.4342 15.3205 20.0002ZM28.9809 12.5287C28.9809 13.4343 28.2262 14.189 27.3205 14.189C26.4148 14.189 25.6601 13.4343 25.6601 12.5287C25.6601 11.623 26.4148 10.8683 27.3205 10.8683C28.2262 10.8683 28.9809 11.623 28.9809 12.5287Z" fill="white"/>
</svg>
