<svg width="265" height="264" viewBox="0 0 265 264" fill="none" xmlns="http://www.w3.org/2000/svg">
<g clip-path>
<path d="M166.328 65.4346C163.448 70.1936 159.659 74.3577 155.188 77.8526C150.717 81.2731 145.563 83.8757 140.031 85.4372C134.499 86.9987 128.588 87.4449 122.828 86.6269C117.068 85.8833 111.536 83.8013 106.61 80.8269C101.76 77.8526 97.4404 73.8372 94.1817 69.2269C92.5144 66.9218 91.1503 64.468 90.0135 61.8654C88.8768 59.3372 87.9674 56.6603 87.2853 53.909C84.5571 43.0526 86.1486 31.2295 91.9081 21.4885C94.7879 16.5808 98.5771 12.1936 103.2 8.77307C107.823 5.35256 113.128 2.75 118.736 1.33717C124.344 -0.0756459 130.255 -0.373082 136.014 0.444867C141.774 1.26282 147.382 3.27051 152.384 6.17051C157.385 9.14487 161.781 13.0859 165.115 17.6962C168.526 22.3064 170.875 27.6603 172.012 33.1628C173.224 38.6654 173.3 44.391 172.239 49.8936C171.254 55.3962 169.284 60.6757 166.328 65.4346ZM166.101 65.2859C167.541 62.9064 168.753 60.4526 169.662 57.85C170.572 55.2474 171.178 52.5705 171.481 49.8192C172.088 44.391 171.633 38.8885 170.117 33.6833C167.086 23.3474 160.038 14.2756 150.717 8.92179C141.471 3.41923 129.952 1.56025 119.418 4.08846C114.113 5.35256 109.111 7.58333 104.64 10.7064C100.169 13.8295 96.3036 17.7705 93.348 22.3808C90.3925 26.9167 88.2705 32.0474 87.4369 37.4756C86.5275 42.8295 86.8306 48.4064 88.1947 53.6859C88.8768 56.2885 89.862 58.891 91.0745 61.3449C92.2871 63.7987 93.8027 66.1039 95.47 68.1859C98.8803 72.4244 103.124 75.9936 107.823 78.6705C112.521 81.3475 117.75 83.1321 123.131 84.0244C124.495 84.2475 125.859 84.3962 127.223 84.4705C128.588 84.5449 129.952 84.6192 131.316 84.5449C134.044 84.4705 136.772 84.1731 139.5 83.6526C144.881 82.5372 150.034 80.3808 154.657 77.2577C156.931 75.6962 159.053 73.9115 160.947 71.9039C162.918 69.8218 164.585 67.591 166.101 65.2859Z" fill="white"/>
<path d="M138.67 66.1795H120.33C119.496 66.1795 118.739 66.1795 118.284 66.1051C117.753 66.0308 117.147 65.882 116.465 65.659C115.783 65.4359 115.177 65.0641 114.722 64.5436C113.661 63.5026 113.131 62.1641 113.131 60.4538C113.131 59.3385 113.358 58.2974 113.888 57.4051C114.343 56.5128 115.101 55.5461 116.086 54.4308L130.106 38.6667C131.394 37.1795 132.304 35.9897 132.834 34.9487C133.365 33.9077 133.668 32.7179 133.668 31.4538C133.668 30.1897 133.289 29.2231 132.455 28.4051C131.698 27.5872 130.561 27.2154 129.121 27.2154C127.833 27.2154 126.847 27.5128 126.165 28.0333C125.483 28.5538 124.801 29.5205 124.119 30.7846C123.437 31.9744 122.755 32.8667 121.846 33.4615C121.088 33.982 120.103 34.2795 118.739 34.2795C116.996 34.2795 115.631 33.6846 114.646 32.5692C113.737 31.5282 113.282 30.1897 113.282 28.5538C113.282 27.0667 113.661 25.5795 114.495 24.0923C115.328 22.6051 116.389 21.4154 117.678 20.3744C119.193 19.259 120.861 18.3667 122.604 17.8461C124.347 17.3256 126.393 17.0282 128.818 17.0282C133.744 17.0282 137.76 18.2179 140.64 20.6718C143.596 23.1256 145.036 26.6205 145.036 31.082C145.036 32.5692 144.884 33.9077 144.581 35.1718C144.278 36.3615 143.747 37.6256 142.989 38.8154C142.232 40.0051 141.474 41.1205 140.716 42.0128C139.958 42.9051 138.897 44.1692 137.533 45.6564L127.984 56.0667H138.594C139.882 56.0667 140.792 56.0667 141.398 56.141C142.004 56.2154 142.535 56.3641 143.065 56.6615C143.823 57.0333 144.429 57.6282 144.884 58.4461C145.339 59.2641 145.566 60.1564 145.566 61.1231C145.566 62.1641 145.339 63.0564 144.884 63.8C144.429 64.6179 143.823 65.2128 143.065 65.5846C142.535 65.882 142.004 66.0308 141.398 66.1051C140.943 66.1795 139.958 66.1795 138.67 66.1795Z" fill="white"/>
</g>
<path d="M105.944 78.3402C89.0089 77.9463 71.8293 77.3949 55.0569 79.8369C44.3095 81.3337 33.4807 84.4847 25.3387 91.7321C9.62474 105.597 6.04227 129.544 4.00677 148.923C1.31992 174.604 2.37839 203.121 14.2657 226.675C18.8251 235.655 25.5016 244.793 35.0277 249.362C44.0652 253.774 54.487 255.743 64.3387 257.476C92.1842 262.203 120.925 263.227 149.178 262.518C175.639 261.809 203.566 260.233 228.888 252.198C249.894 245.502 257.385 222.972 260.397 203.83C263.898 181.536 262.758 158.455 259.746 136.162C257.548 119.54 255.431 101.106 239.879 90.9443C227.911 83.0668 212.441 81.0974 198.355 80.152C181.013 78.8916 163.589 79.3643 146.165 79.6794C135.988 79.8369 125.892 79.9157 115.715 80.0733C114.982 80.0733 113.191 78.9704 114.737 78.9704C135.255 78.6553 155.773 78.1039 176.372 78.3402C191.923 78.4978 207.882 78.9704 223.026 82.9092C234.18 85.6663 245.172 90.8655 251.93 100.319C256.57 106.857 258.362 114.341 259.827 121.982C263.817 143.094 265.689 164.993 264.631 186.42C263.654 206.745 260.316 232.583 243.136 246.605C234.994 253.222 224.003 255.349 213.907 257.397C199.902 260.155 185.654 261.73 171.406 262.675C141.443 264.645 110.992 264.33 81.1926 260.864C69.2239 259.524 57.0924 257.634 45.5308 254.246C37.226 251.804 29.7354 248.575 23.5475 242.588C4.73956 224.075 0.83139 194.534 0.668579 169.799C0.587158 156.328 1.88989 142.779 4.65814 129.623C6.69363 119.934 9.29906 109.85 14.6727 101.264C27.6999 80.152 53.0214 77.6312 76.3074 77.0798C85.8335 76.8435 95.441 77.001 105.049 77.2373C105.781 77.2373 107.573 78.419 105.944 78.3402Z" fill="white"/>
<path d="M107.981 80.3086C87.9514 80.7813 66.9452 80.86 47.6487 86.6107C32.0976 91.1796 20.7803 100.554 15.8137 115.758C9.05583 136.633 7.6717 159.793 8.16022 181.535C8.4859 198.63 11.417 216.118 21.513 230.534C27.3752 238.884 35.5986 245.344 45.2876 249.125C50.6613 251.173 56.2792 252.434 61.9786 252.985C66.2124 253.379 73.2145 254.639 77.0412 252.276C77.774 251.882 79.8909 252.827 78.9139 253.458C75.9828 255.191 71.6675 254.876 68.4107 254.797C64.0955 254.718 59.8617 254.245 55.6278 253.458C46.2646 251.646 37.3899 247.943 29.9807 242.114C15.7322 230.849 8.89301 213.203 6.69468 195.951C5.22913 184.608 5.47337 172.949 6.12473 161.605C6.77608 149.395 8.16023 137.185 10.7657 125.211C12.5569 117.097 14.9181 108.668 20.0475 101.814C24.5256 95.7486 30.8763 91.3372 37.8784 88.3437C59.0475 79.2057 84.369 79.5208 107.085 78.9694C108.062 78.8906 109.528 80.3086 107.981 80.3086Z" fill="white"/>
<g clip-path>
<path fill-rule="evenodd" clip-rule="evenodd" d="M38.4096 27.3026L39.3469 26.9992C39.3469 26.9992 39.6269 26.8779 39.7121 26.6716C39.7974 26.4896 39.7121 26.2227 39.7121 26.2227C39.7121 26.2227 39.2861 24.9729 39.8217 24.5967C40.3452 24.2327 41.526 25.3975 42.4877 25.6766C43.2181 25.895 43.632 25.6645 43.632 25.6645L45.7259 24.9607C45.7259 24.9607 46.8093 24.5482 46.0059 23.8444C45.945 23.7837 45.4946 23.2984 43.8633 22.5339C42.159 21.7331 42.3903 21.8787 43.3033 19.2577C43.8633 17.6682 43.9972 16.7581 43.7659 16.4669C43.5468 16.1878 42.8651 16.4912 42.8651 16.4912L40.5034 17.2556C40.5034 17.2556 40.3208 17.292 40.2113 17.4012C40.1139 17.5226 40.0895 17.7167 40.0895 17.7167C40.0895 17.7167 40.0287 18.833 39.8095 19.828C39.3226 21.9515 38.933 22.1699 38.7261 22.1214C38.2391 21.9879 38.0931 21.1749 37.9105 20.6289C37.3627 18.9059 37.387 18.0929 36.5592 18.1535C36.2792 18.1778 36.0844 18.1899 35.4149 18.3962C34.5627 18.651 33.8567 18.8937 33.5158 19.2213C33.2845 19.4397 33.175 19.7916 33.3089 19.7795C33.4671 19.7552 33.8445 19.7067 34.1245 19.913C34.4775 20.1678 34.6967 20.908 34.6967 20.908C34.6967 20.908 35.4879 22.8979 35.0984 23.2984C34.8306 23.5774 34.2828 23.359 32.8219 22.0364C32.0793 21.3569 31.422 20.5561 31.422 20.5561C31.422 20.5561 31.3002 20.4105 31.142 20.3498C30.9594 20.2891 30.7281 20.3134 30.7281 20.3134L28.4882 21.0414C28.4882 21.0414 28.1595 21.1628 28.0743 21.3448C28.0012 21.5147 28.196 21.7452 28.196 21.7452C28.196 21.7452 31.2759 25.2883 33.9297 26.7201C36.3766 28.0792 38.4096 27.3026 38.4096 27.3026Z" fill="white"/>
<g opacity="0.7">
<path opacity="0.7" d="M73.5752 33.4478L75.5595 23.1703L79.0168 23.8377L80.3071 19.9305L76.3264 19.1661L76.8133 16.6058C77.0325 15.441 77.5072 14.7129 79.175 15.0405L81.3054 15.441L81.9993 11.8614C81.6462 11.7401 80.4045 11.3882 78.9315 11.1091C75.8638 10.5267 73.4048 11.9828 72.7474 15.4167L72.1752 18.3652L68.7058 17.6979L67.9388 21.7021L71.4083 22.3695L69.424 32.647L73.5752 33.4478Z" fill="white"/>
</g>
<path d="M35.1628 35.782C36.5141 35.9883 36.6723 36.0247 37.208 36.1339C37.6949 36.231 37.9506 36.3523 38.121 36.4494C38.3401 36.5829 38.4984 36.7163 38.6445 36.9226C38.7905 37.1289 38.8758 37.3109 38.9366 37.5657C38.9731 37.7598 39.0218 38.0389 38.961 38.5364C38.9001 39.0703 38.8879 39.2281 38.6688 40.5871C38.4619 41.9339 38.4253 42.0917 38.3158 42.6256C38.2184 43.1109 38.0967 43.3657 37.9993 43.5356C37.8654 43.754 37.7314 43.9118 37.5245 44.0574C37.3175 44.203 37.1349 44.2879 36.8793 44.3486C36.6845 44.385 36.4045 44.4335 35.9054 44.3729C35.3698 44.3122 35.2115 44.2879 33.8481 44.0816C32.4968 43.8754 32.3386 43.839 31.8029 43.7298C31.316 43.6327 31.0604 43.5113 30.8899 43.4143C30.6708 43.2808 30.5125 43.1473 30.3665 42.9411C30.2204 42.7348 30.1352 42.5528 30.0743 42.298C30.0378 42.1038 29.9891 41.8247 30.0499 41.3272C30.1108 40.7933 30.123 40.6356 30.3421 39.2766C30.5491 37.9297 30.5856 37.772 30.6951 37.2381C30.7925 36.7527 30.9143 36.4979 31.0117 36.328C31.1456 36.1096 31.2795 35.9519 31.4864 35.8063C31.6934 35.6607 31.876 35.5757 32.1316 35.5151C32.3264 35.4787 32.6064 35.4301 33.1055 35.4908C33.6411 35.5515 33.7994 35.5636 35.1628 35.782ZM35.2967 34.8598C33.9211 34.6414 33.7507 34.6293 33.2029 34.5686C32.6551 34.5079 32.2777 34.5322 31.9368 34.6171C31.5838 34.69 31.2795 34.8234 30.9508 35.054C30.6221 35.2967 30.403 35.5515 30.2204 35.8548C30.0499 36.1582 29.9039 36.51 29.7943 37.0439C29.6847 37.5778 29.6482 37.7477 29.4413 39.1189C29.2221 40.49 29.21 40.6599 29.1491 41.2059C29.0882 41.7519 29.1126 42.1281 29.1978 42.4678C29.2708 42.8197 29.4048 43.1231 29.6482 43.4507C29.8917 43.7783 30.1473 43.9967 30.4517 44.1787C30.756 44.3486 31.109 44.4942 31.6447 44.6034C32.1803 44.7126 32.3507 44.749 33.7264 44.9553C35.102 45.1737 35.2724 45.1858 35.8202 45.2465C36.368 45.3072 36.7454 45.2829 37.0862 45.198C37.4393 45.1252 37.7436 44.9917 38.0723 44.749C38.401 44.5063 38.6201 44.2515 38.8027 43.9482C38.9731 43.6448 39.1192 43.2929 39.2288 42.759C39.3384 42.2251 39.3749 42.0553 39.5818 40.6841C39.8009 39.313 39.8131 39.1431 39.874 38.5971C39.9349 38.0511 39.9105 37.6749 39.8253 37.3352C39.7523 36.9833 39.6183 36.6799 39.3749 36.3523C39.1314 36.0247 38.8758 35.8063 38.5714 35.6243C38.2671 35.4544 37.914 35.3088 37.3784 35.1996C36.8428 35.1146 36.6723 35.0782 35.2967 34.8598Z" fill="white"/>
<path d="M34.9199 37.323C33.4834 37.1046 32.1322 38.0753 31.913 39.5072C31.6939 40.939 32.6678 42.2859 34.1043 42.5043C35.5408 42.7227 36.892 41.752 37.1111 40.3201C37.3424 38.8883 36.3564 37.5414 34.9199 37.323ZM34.2504 41.6064C33.313 41.4607 32.68 40.5871 32.8261 39.6649C32.9721 38.7306 33.8486 38.0996 34.7738 38.2452C35.7112 38.3908 36.3442 39.2645 36.1981 40.1867C36.052 41.1089 35.1755 41.752 34.2504 41.6064Z" fill="white"/>
<path d="M38.243 37.7356C38.1943 38.0754 37.8778 38.2938 37.537 38.2453C37.1961 38.1967 36.977 37.8813 37.0257 37.5415C37.0744 37.2018 37.3909 36.9833 37.7317 37.0319C38.0726 37.0925 38.3039 37.408 38.243 37.7356Z" fill="white"/>
<g opacity="0.85">
<g opacity="0.85">
<path opacity="0.85" d="M61.1468 43.6041C64.0806 42.8761 65.8701 39.9033 65.1397 36.979C64.4093 34.0547 61.4268 32.271 58.4808 32.999C55.547 33.7271 53.7575 36.6999 54.4879 39.6363C55.2305 42.5485 58.213 44.3322 61.1468 43.6041ZM59.2721 36.0932C60.4894 35.7898 61.719 36.53 62.0233 37.7434C62.3276 38.9568 61.5851 40.1824 60.3677 40.4857C59.1504 40.7891 57.9208 40.0489 57.6165 38.8355C57.3121 37.6342 58.0547 36.3965 59.2721 36.0932Z" fill="white"/>
<path opacity="0.85" d="M64.3852 47.3899C65.4077 46.8681 66.3451 46.1886 67.1607 45.3393C67.7694 44.6962 67.7572 43.689 67.112 43.0702C66.4668 42.4514 65.4564 42.4756 64.8356 43.1187C62.9974 45.0238 60.1853 45.7275 57.6654 44.9024C56.8254 44.6234 55.9124 45.0844 55.6324 45.9217C55.3524 46.7589 55.815 47.669 56.655 47.9481C57.7628 48.3121 58.9193 48.482 60.0636 48.4577L57.8358 52.1707C57.3854 52.9351 57.6289 53.918 58.3836 54.3669C58.761 54.5975 59.1992 54.646 59.601 54.549C60.0027 54.4519 60.3679 54.1971 60.587 53.8209L62.7783 50.1807L66.4303 52.3648C67.1851 52.8259 68.1833 52.5711 68.6337 51.8188C69.0963 51.0544 68.8407 50.0715 68.0859 49.6226L64.3852 47.3899Z" fill="white"/>
</g>
</g>
</g>
<defs>
<clipPath>
<rect width="87" height="87" fill="white" transform="translate(86)"/>
</clipPath>
<clipPath>
<rect width="55" height="46" fill="white" transform="translate(27 11)"/>
</clipPath>
</defs>
</svg>
