<svg width="265" height="267" viewBox="0 0 265 267" fill="none" xmlns="http://www.w3.org/2000/svg">
<g clip-path>
<path d="M112.334 3.27532C117.842 1.1696 123.749 0.0777416 129.736 -0.000248017C135.723 -0.0782376 141.71 1.01362 147.378 3.19733C152.966 5.38103 158.235 8.73459 162.466 13.024C166.777 17.3134 170.049 22.4608 172.205 28.076C174.28 33.6133 175.238 39.6185 174.919 45.5457C174.759 48.5093 174.36 51.3949 173.642 54.2805C172.923 57.1661 171.965 59.8958 170.688 62.5474C165.819 73.232 156.718 82.0448 145.542 86.5682C140.034 88.8299 133.887 90.0778 127.82 89.9998C121.753 89.9998 115.607 88.7519 110.019 86.4122C104.431 84.0726 99.2418 80.641 94.9311 76.3516C90.6203 72.0621 87.2675 66.9148 85.0323 61.2996C82.877 55.6843 81.7594 49.6791 81.9989 43.6739C82.1585 37.6687 83.7551 31.8195 86.3894 26.4382C89.0238 21.1349 92.6959 16.2996 97.1662 12.4001C101.637 8.50062 106.746 5.38103 112.334 3.27532ZM112.413 3.58727C109.699 4.67913 107.065 6.00495 104.59 7.56474C102.116 9.20253 99.8006 10.9963 97.8049 13.024C93.6538 17.1575 90.4607 21.9928 88.3053 27.2961C84.0744 37.8247 83.9946 49.6791 88.2255 60.0518C92.3765 70.4244 100.759 79.1592 111.216 83.6826C116.405 85.9443 122.153 87.2701 127.9 87.5041C133.648 87.6601 139.475 86.8802 144.983 84.9304C150.412 82.9807 155.521 80.0171 159.831 76.0396C164.142 72.1401 167.495 67.3048 169.81 62.0795C170.928 59.4278 171.806 56.6982 172.365 53.8906C172.923 51.0829 173.163 48.2753 173.163 45.3897C173.163 39.6965 171.965 34.0812 169.73 28.8559C167.575 23.7086 164.382 18.8732 160.47 14.8178C159.512 13.8039 158.474 12.79 157.357 11.9322C156.319 10.9963 155.201 10.1384 154.004 9.28052C151.689 7.64273 149.214 6.16093 146.58 4.9131C141.391 2.49542 135.564 1.01362 129.736 0.701658C126.783 0.545679 123.829 0.701658 120.955 1.1696C118.001 1.79351 115.207 2.57341 112.413 3.58727Z" fill="white"/>
<path d="M125.107 60.598V34.9394L121.834 38.215C120.876 39.1508 120.078 39.8527 119.599 40.2427C119.12 40.6326 118.561 40.9446 117.923 41.1006C117.045 41.4125 116.166 41.4125 115.129 41.1006C114.171 40.7886 113.293 40.3207 112.494 39.5408C111.696 38.7609 111.137 37.903 110.898 36.9671C110.578 36.0313 110.658 35.0954 110.898 34.2375C111.137 33.6136 111.457 33.0676 111.856 32.5217C112.255 32.0538 112.894 31.2739 113.851 30.338L124.708 19.7314C126.704 17.7037 128.859 16.7678 131.094 16.7678C132.851 16.7678 134.367 17.3137 135.485 18.4056C136.203 19.1075 136.682 19.9654 136.922 20.8233C137.161 21.7592 137.241 22.851 137.241 24.1768V60.52C137.241 62.0018 137.161 63.0936 137.081 63.7176C137.002 64.3415 136.762 64.9654 136.443 65.5893C135.964 66.4472 135.325 67.1491 134.367 67.695C133.409 68.241 132.372 68.4749 131.174 68.4749C129.977 68.4749 128.859 68.241 127.981 67.695C127.023 67.1491 126.305 66.4472 125.906 65.5893C125.586 64.9654 125.347 64.3415 125.267 63.7176C125.187 63.1716 125.107 62.0798 125.107 60.598Z" fill="white"/>
</g>
<path d="M157.607 83.3085C177.636 83.7812 198.642 83.86 217.939 89.6106C233.49 94.1796 244.807 103.554 249.774 118.758C256.532 139.633 257.916 162.793 257.427 184.535C257.102 201.63 254.171 219.118 244.075 233.534C238.212 241.884 229.989 248.344 220.3 252.125C214.926 254.173 209.308 255.433 203.609 255.985C199.375 256.379 192.373 257.639 188.546 255.276C187.814 254.882 185.697 255.827 186.674 256.458C189.605 258.191 193.92 257.875 197.177 257.797C201.492 257.718 205.726 257.245 209.96 256.458C219.323 254.646 228.198 250.943 235.607 245.114C249.855 233.849 256.695 216.203 258.893 198.951C260.358 187.608 260.114 175.949 259.463 164.605C258.812 152.395 257.427 140.185 254.822 128.211C253.031 120.097 250.67 111.668 245.54 104.814C241.062 98.7486 234.711 94.3371 227.709 91.3437C206.54 82.2057 181.219 82.5208 158.503 81.9694C157.525 81.8906 156.06 83.3085 157.607 83.3085Z" fill="white"/>
<path d="M159.643 81.3402C176.579 80.9463 193.758 80.3949 210.531 82.8369C221.278 84.3337 232.107 87.4847 240.249 94.7321C255.963 108.597 259.545 132.544 261.581 151.923C264.268 177.604 263.209 206.121 251.322 229.675C246.762 238.655 240.086 247.793 230.56 252.362C221.522 256.774 211.101 258.743 201.249 260.476C173.403 265.203 144.662 266.227 116.41 265.518C89.9483 264.809 62.0214 263.233 36.6998 255.198C15.6936 248.502 8.20297 225.972 5.19045 206.83C1.6894 184.536 2.82928 161.455 5.8418 139.162C8.04013 122.54 10.157 104.106 25.7082 93.9443C37.6769 86.0668 53.1466 84.0974 67.2322 83.152C84.5746 81.8916 101.998 82.3643 119.422 82.6794C129.6 82.8369 139.696 82.9157 149.873 83.0733C150.606 83.0733 152.397 81.9704 150.85 81.9704C130.332 81.6553 109.815 81.1039 89.2155 81.3402C73.6644 81.4978 57.7061 81.9704 42.5621 85.9092C31.4076 88.6663 20.4159 93.8655 13.6581 103.319C9.01717 109.857 7.22594 117.341 5.76038 124.982C1.77082 146.094 -0.10183 167.993 0.956625 189.42C1.93366 209.745 5.27187 235.583 22.4514 249.605C30.5934 256.222 41.585 258.349 51.6811 260.397C65.6852 263.155 79.9337 264.73 94.1821 265.675C124.145 267.645 154.595 267.33 184.395 263.864C196.364 262.524 208.495 260.634 220.057 257.246C228.362 254.804 235.852 251.575 242.04 245.588C260.848 227.075 264.756 197.534 264.919 172.799C265 159.328 263.698 145.779 260.93 132.623C258.894 122.934 256.289 112.85 250.915 104.264C237.888 83.152 212.566 80.6312 189.28 80.0798C179.754 79.8435 170.147 80.001 160.539 80.2373C159.806 80.2373 158.015 81.419 159.643 81.3402Z" fill="white"/>
<g clip-path>
<g opacity="0.75">
<path opacity="0.75" d="M187.148 17.1499L182.948 35.1677L212.678 42.1536L216.878 24.1358L187.148 17.1499Z" stroke="white" stroke-miterlimit="10" stroke-linejoin="round"/>
<path opacity="0.75" d="M216.836 24.1501L199.327 32.1279L187.127 17.1654" stroke="white" stroke-miterlimit="10" stroke-linejoin="round"/>
<path opacity="0.75" d="M212.649 42.158L202.13 30.87" stroke="white" stroke-miterlimit="10" stroke-linejoin="round"/>
<path opacity="0.75" d="M197.381 29.7445L182.939 35.1734" stroke="white" stroke-miterlimit="10" stroke-linejoin="round"/>
</g>
<g opacity="0.9">
<path opacity="0.9" d="M183.531 42.4389L175.046 51.6501L190.225 65.7431L198.71 56.5319L183.531 42.4389Z" stroke="white" stroke-miterlimit="10" stroke-linejoin="round"/>
<path opacity="0.9" d="M198.701 56.5577L185.709 55.366L183.533 42.4559" stroke="white" stroke-miterlimit="10" stroke-linejoin="round"/>
<path opacity="0.9" d="M190.227 65.7604L187.787 55.5316" stroke="white" stroke-miterlimit="10" stroke-linejoin="round"/>
<path opacity="0.9" d="M185.378 53.2806L175.058 51.6586" stroke="white" stroke-miterlimit="10" stroke-linejoin="round"/>
</g>
<path d="M166.383 30.6445L158.313 34.2596L164.279 47.6815L172.349 44.0664L166.383 30.6445Z" stroke="white" stroke-miterlimit="10" stroke-linejoin="round"/>
<path d="M172.348 44.0668L164.203 39.6641L166.38 30.6271" stroke="white" stroke-miterlimit="10" stroke-linejoin="round"/>
<path d="M164.269 47.675L165.522 40.3593" stroke="white" stroke-miterlimit="10" stroke-linejoin="round"/>
<path d="M164.567 38.2077L158.302 34.2684" stroke="white" stroke-miterlimit="10" stroke-linejoin="round"/>
</g>
<defs>
<clipPath>
<rect width="93" height="90" fill="white" transform="translate(82)"/>
</clipPath>
<clipPath>
<rect width="61" height="67" fill="white" transform="translate(156 17)"/>
</clipPath>
</defs>
</svg>