<svg width="40" height="40" viewBox="0 0 40 40" fill="none" xmlns="http://www.w3.org/2000/svg">
<path fill-rule="evenodd" clip-rule="evenodd" d="M40 20C40 31.0457 31.0457 40 20 40C8.95431 40 0 31.0457 0 20C0 8.95431 8.95431 0 20 0C31.0457 0 40 8.95431 40 20ZM19.3808 21.0673C23.2244 21.0673 26.3392 17.9526 26.3392 14.1089C26.2729 10.2652 23.1582 7.15045 19.3808 7.15045C15.5371 7.15045 12.4223 10.2652 12.4223 14.1089C12.4223 17.9526 15.5371 21.0673 19.3808 21.0673ZM19.3808 11.193C20.9712 11.193 22.2304 12.4521 22.2304 14.0426C22.2304 15.6331 20.9712 16.8922 19.3808 16.8922C17.7903 16.8922 16.5311 15.6331 16.5311 14.0426C16.4648 12.5184 17.7903 11.193 19.3808 11.193ZM26.2061 25.0437C24.9469 25.839 23.5552 26.3691 22.1636 26.7005L26.2061 30.6105C27.0013 31.4057 27.0013 32.6648 26.2061 33.4601C25.4108 34.2553 24.1517 34.2553 23.3564 33.4601L19.5127 29.6164L15.669 33.4601C15.2714 33.8577 14.7412 34.0565 14.2111 34.0565C13.6809 34.0565 13.1507 33.8577 12.7531 33.4601C11.9579 32.6648 11.9579 31.4057 12.7531 30.6105L16.6631 26.7005C15.2714 26.3691 13.8797 25.839 12.6206 25.0437C11.6265 24.4473 11.3614 23.1881 11.9579 22.2604C12.5543 21.2663 13.8135 21.0012 14.7412 21.5976C17.5909 23.387 21.2358 23.387 24.0854 21.5976C25.0132 21.0012 26.2723 21.3326 26.8688 22.2604C27.4652 23.1881 27.1339 24.4473 26.2061 25.0437Z" fill="white"/>
</svg>
