<svg width="99" height="84" viewBox="0 0 99 84" fill="none" xmlns="http://www.w3.org/2000/svg">
<g clip-path="url(#clip0)">
<path fill-rule="evenodd" clip-rule="evenodd" d="M20.7421 29.9023L22.4233 29.3583C22.4233 29.3583 22.9254 29.1407 23.0783 28.7707C23.2311 28.4443 23.0783 27.9655 23.0783 27.9655C23.0783 27.9655 22.3141 25.724 23.2748 25.0493C24.2136 24.3965 26.3314 26.4856 28.0563 26.9862C29.3663 27.3779 30.1086 26.9644 30.1086 26.9644L33.8639 25.7022C33.8639 25.7022 35.8071 24.9623 34.3661 23.7001C34.2569 23.5913 33.4491 22.7208 30.5234 21.3497C27.4668 19.9134 27.8816 20.1746 29.5191 15.4739C30.5234 12.623 30.7636 10.9908 30.3488 10.4685C29.9558 9.96801 28.7331 10.5121 28.7331 10.5121L24.4974 11.8831C24.4974 11.8831 24.1699 11.9484 23.9734 12.1442C23.7988 12.3619 23.7551 12.7101 23.7551 12.7101C23.7551 12.7101 23.6459 14.7122 23.2529 16.4967C22.3796 20.3051 21.6809 20.6969 21.3098 20.6098C20.4364 20.3704 20.1744 18.9123 19.847 17.933C18.8645 14.8428 18.9081 13.3847 17.4235 13.4935C16.9213 13.537 16.572 13.5588 15.3711 13.9288C13.8428 14.3858 12.5765 14.821 11.9651 15.4086C11.5503 15.8003 11.3538 16.4314 11.594 16.4097C11.8778 16.3661 12.5546 16.2791 13.0568 16.6491C13.69 17.1061 14.083 18.4336 14.083 18.4336C14.083 18.4336 15.5021 22.0026 14.8035 22.7208C14.3231 23.2213 13.3406 22.8296 10.7206 20.4575C9.38881 19.2388 8.20981 17.8025 8.20981 17.8025C8.20981 17.8025 7.99148 17.5413 7.70765 17.4325C7.38015 17.3237 6.96532 17.3672 6.96532 17.3672L2.94799 18.673C2.94799 18.673 2.3585 18.8906 2.20566 19.217C2.07466 19.5217 2.424 19.9352 2.424 19.9352C2.424 19.9352 7.94781 26.2898 12.7075 28.8577C17.096 31.2951 20.7421 29.9023 20.7421 29.9023Z" fill="white"/>
<g opacity="0.7">
<path opacity="0.7" d="M83.8114 40.9241L87.3703 22.4913L93.5709 23.6883L95.8852 16.6808L88.7458 15.3098L89.6191 10.7179C90.0121 8.6287 90.8636 7.32296 93.8547 7.91054L97.6756 8.6287L98.9201 2.2088C98.2869 1.99118 96.0599 1.36007 93.4181 0.859536C87.9161 -0.185058 83.5058 2.42643 82.3268 8.58518L81.3006 13.8734L75.0781 12.6765L73.7026 19.8581L79.9251 21.055L76.3663 39.4877L83.8114 40.9241Z" fill="white"/>
</g>
<path d="M14.919 45.1103C17.3425 45.4802 17.6264 45.5455 18.587 45.7414C19.4603 45.9155 19.9188 46.1331 20.2245 46.3072C20.6175 46.5466 20.9013 46.786 21.1633 47.1559C21.4253 47.5259 21.5782 47.8523 21.6873 48.3093C21.7528 48.6575 21.8402 49.1581 21.731 50.0503C21.6218 51.0079 21.6 51.2908 21.207 53.7281C20.8358 56.1438 20.7703 56.4267 20.5738 57.3842C20.3992 58.2547 20.1808 58.7117 20.0062 59.0164C19.766 59.4081 19.5258 59.691 19.1547 59.9522C18.7835 60.2133 18.456 60.3657 17.9975 60.4745C17.6482 60.5397 17.146 60.6268 16.2509 60.518C15.2902 60.4092 15.0064 60.3657 12.561 59.9957C10.1375 59.6257 9.85371 59.5604 8.89305 59.3646C8.01972 59.1905 7.56122 58.9729 7.25555 58.7988C6.86255 58.5594 6.57872 58.32 6.31672 57.95C6.05472 57.5801 5.90189 57.2536 5.79272 56.7966C5.72722 56.4484 5.63989 55.9479 5.74906 55.0556C5.85822 54.0981 5.88006 53.8152 6.27306 51.3778C6.64422 48.9622 6.70972 48.6793 6.90622 47.7218C7.08089 46.8513 7.29922 46.3942 7.47388 46.0896C7.71405 45.6979 7.95422 45.4149 8.32538 45.1538C8.69655 44.8926 9.02405 44.7403 9.48255 44.6315C9.83188 44.5662 10.334 44.4792 11.2292 44.588C12.1899 44.6968 12.4737 44.7186 14.919 45.1103ZM15.1592 43.4563C12.692 43.0646 12.3864 43.0429 11.4039 42.934C10.4214 42.8252 9.74454 42.8688 9.13321 43.0211C8.50005 43.1517 7.95422 43.391 7.36472 43.8045C6.77522 44.2398 6.38222 44.6968 6.05472 45.2408C5.74906 45.7849 5.48706 46.416 5.29056 47.3736C5.09406 48.3311 5.02856 48.6358 4.65739 51.0949C4.26439 53.5541 4.24256 53.8587 4.13339 54.838C4.02423 55.8173 4.0679 56.492 4.22073 57.1013C4.35173 57.7324 4.59189 58.2765 5.02856 58.8641C5.46522 59.4516 5.92372 59.8434 6.46955 60.1698C7.01539 60.4745 7.64855 60.7356 8.60921 60.9315C9.56988 61.1273 9.87554 61.1926 12.3427 61.5626C14.8099 61.9543 15.1155 61.9761 16.098 62.0849C17.0805 62.1937 17.7574 62.1502 18.3687 61.9978C19.0018 61.8673 19.5477 61.6279 20.1372 61.1926C20.7267 60.7574 21.1197 60.3004 21.4472 59.7563C21.7528 59.2122 22.0148 58.5811 22.2113 57.6236C22.4078 56.6661 22.4733 56.3614 22.8445 53.9022C23.2375 51.4431 23.2593 51.1384 23.3685 50.1591C23.4777 49.1798 23.434 48.5052 23.2812 47.8958C23.1502 47.2647 22.91 46.7207 22.4733 46.1331C22.0367 45.5455 21.5782 45.1538 21.0323 44.8274C20.4865 44.5227 19.8533 44.2615 18.8927 44.0657C17.932 43.9133 17.6264 43.8481 15.1592 43.4563Z" fill="white"/>
<path d="M14.4832 47.874C11.9068 47.4823 9.48335 49.2233 9.09035 51.7912C8.69735 54.3592 10.444 56.7748 13.0203 57.1665C15.5967 57.5583 18.0202 55.8173 18.4132 53.2493C18.828 50.6813 17.0595 48.2657 14.4832 47.874ZM13.2823 55.5561C11.6012 55.295 10.4659 53.7281 10.7279 52.0741C10.9898 50.3984 12.5618 49.2668 14.2212 49.5279C15.9023 49.7891 17.0377 51.356 16.7757 53.0099C16.5137 54.6639 14.9417 55.8173 13.2823 55.5561Z" fill="white"/>
<path d="M20.4435 48.6141C20.3562 49.2234 19.7885 49.6151 19.1772 49.5281C18.5658 49.441 18.1728 48.8752 18.2602 48.2659C18.3475 47.6565 18.9152 47.2648 19.5265 47.3519C20.1378 47.4607 20.5527 48.0265 20.4435 48.6141Z" fill="white"/>
<g opacity="0.85">
<g opacity="0.85">
<path opacity="0.85" d="M61.5212 59.1393C66.783 57.8336 69.9925 52.5018 68.6825 47.257C67.3725 42.0123 62.0234 38.8132 56.7397 40.119C51.4779 41.4247 48.2684 46.7565 49.5784 52.023C50.9103 57.246 56.2594 60.445 61.5212 59.1393ZM58.1589 45.6684C60.3422 45.1243 62.5474 46.4518 63.0932 48.6281C63.639 50.8043 62.3072 53.0023 60.1239 53.5464C57.9406 54.0904 55.7354 52.7629 55.1896 50.5867C54.6437 48.4322 55.9756 46.2124 58.1589 45.6684Z" fill="white"/>
<path opacity="0.85" d="M67.3292 65.9291C69.1632 64.9933 70.8444 63.7746 72.3072 62.2513C73.3989 61.0979 73.377 59.2916 72.2199 58.1817C71.0627 57.0718 69.2505 57.1154 68.137 58.2688C64.8402 61.6854 59.7967 62.9477 55.2773 61.4678C53.7708 60.9673 52.1333 61.7943 51.6311 63.2959C51.1289 64.7975 51.9586 66.4296 53.4651 66.9302C55.4519 67.583 57.5261 67.8877 59.5784 67.8442L55.5829 74.5035C54.7751 75.8745 55.2118 77.6372 56.5654 78.4424C57.2423 78.8559 58.0282 78.943 58.7487 78.7689C59.4692 78.5948 60.1242 78.1378 60.5172 77.4631L64.4472 70.9344L70.9972 74.8517C72.3509 75.6786 74.1412 75.2216 74.949 73.8724C75.7787 72.5013 75.3202 70.7386 73.9665 69.9334L67.3292 65.9291Z" fill="white"/>
</g>
</g>
</g>
<defs>
<clipPath id="clip0">
<rect width="98.6427" height="82.5012" fill="white" transform="translate(0.278809 0.663696)"/>
</clipPath>
</defs>
</svg>
