<svg width="40" height="40" viewBox="0 0 40 40" fill="none" xmlns="http://www.w3.org/2000/svg">
<path fill-rule="evenodd" clip-rule="evenodd" d="M20 40C31.0457 40 40 31.0457 40 20C40 8.95431 31.0457 0 20 0C8.95431 0 0 8.95431 0 20C0 31.0457 8.95431 40 20 40ZM20.5086 27.8642H19.0333C19.0333 27.8642 15.7668 28.0781 12.8163 25.0832C9.6551 21.7674 6.8627 15.1357 6.8627 15.1357C6.8627 15.1357 6.70464 14.7079 6.8627 14.4939C7.07345 14.2265 7.60032 14.2265 7.60032 14.2265H11.183C11.183 14.2265 11.4991 14.28 11.7626 14.4404C11.9733 14.6009 12.0787 14.8683 12.0787 14.8683C12.0787 14.8683 12.6582 16.3658 13.3959 17.7028C14.8711 20.3234 15.556 20.8582 16.0829 20.5908C16.8205 20.1629 16.6098 16.9006 16.6098 16.9006C16.6098 16.9006 16.6098 15.724 16.2409 15.1892C15.9248 14.7613 15.398 14.6544 15.1345 14.6009C14.9765 14.6009 15.2926 14.1196 15.7141 13.9056C16.3463 13.5847 17.5054 13.5847 18.8226 13.5847C19.8763 13.5847 20.1398 13.6382 20.5613 13.7452C21.4896 13.9501 21.4594 14.6886 21.3944 16.2733C21.3746 16.7571 21.3516 17.3198 21.3516 17.9702C21.3516 18.1182 21.3474 18.2747 21.3431 18.4348C21.3211 19.2586 21.2964 20.1791 21.8257 20.5373C22.0892 20.7512 22.7214 20.5908 24.4074 17.7028C25.1977 16.3658 25.7773 14.7613 25.7773 14.7613C25.7773 14.7613 25.8826 14.4404 26.0934 14.3335C26.3041 14.173 26.5676 14.2265 26.5676 14.2265H30.3083C30.3083 14.2265 31.4674 14.0661 31.6255 14.6009C31.8362 15.1357 31.204 16.3658 29.6761 18.4515C28.2448 20.399 27.5352 21.1136 27.5981 21.7521C27.6441 22.2182 28.1018 22.6437 28.9912 23.4788C30.9528 25.3128 31.3971 26.2227 31.4638 26.3593C31.4652 26.3621 31.4664 26.3646 31.4674 26.3667C32.3104 27.7572 30.5718 27.8642 30.5718 27.8642L27.2525 27.9177C27.2525 27.9177 26.5676 28.0246 25.6192 27.3829C25.1455 27.0484 24.6718 26.4933 24.217 25.9603C23.5083 25.1297 22.8455 24.3529 22.2999 24.5484C21.3516 24.8693 21.4043 26.9015 21.4043 26.9015C21.4043 26.9015 21.4043 27.3294 21.1935 27.5433C20.9828 27.8107 20.5086 27.8642 20.5086 27.8642Z" fill="white"/>
</svg>
