<svg width="35" height="35" viewBox="0 0 35 35" fill="none" xmlns="http://www.w3.org/2000/svg">
<path fill-rule="evenodd" clip-rule="evenodd" d="M17.3896 34.3417C26.8728 34.3417 34.5605 26.6541 34.5605 17.1709C34.5605 7.68766 26.8728 0 17.3896 0C7.90641 0 0.21875 7.68766 0.21875 17.1709C0.21875 26.6541 7.90641 34.3417 17.3896 34.3417ZM17.8267 23.9228H16.5601C16.5601 23.9228 13.7556 24.1064 11.2225 21.5351C8.50849 18.6884 6.11109 12.9948 6.11109 12.9948C6.11109 12.9948 5.97539 12.6275 6.11109 12.4438C6.29203 12.2142 6.74437 12.2142 6.74437 12.2142H9.82027C9.82027 12.2142 10.0917 12.2601 10.3178 12.3979C10.4988 12.5356 10.5892 12.7652 10.5892 12.7652C10.5892 12.7652 11.0868 14.0509 11.7201 15.1988C12.9866 17.4486 13.5747 17.9078 14.027 17.6782C14.6603 17.3109 14.4794 14.51 14.4794 14.51C14.4794 14.51 14.4794 13.4999 14.1627 13.0407C13.8913 12.6734 13.439 12.5816 13.2128 12.5356C13.0771 12.5356 13.3485 12.1224 13.7104 11.9387C14.2532 11.6632 15.2483 11.6632 16.3792 11.6632C17.2839 11.6632 17.51 11.7092 17.8719 11.801C18.669 11.9769 18.643 12.6109 18.5872 13.9715C18.5702 14.3868 18.5504 14.8699 18.5504 15.4283C18.5504 15.5554 18.5468 15.6897 18.5431 15.8272C18.5242 16.5345 18.5031 17.3248 18.9575 17.6323C19.1837 17.816 19.7265 17.6782 21.174 15.1988C21.8525 14.0509 22.3501 12.6734 22.3501 12.6734C22.3501 12.6734 22.4405 12.3979 22.6215 12.3061C22.8024 12.1683 23.0286 12.2142 23.0286 12.2142H26.2402C26.2402 12.2142 27.2353 12.0765 27.371 12.5356C27.552 12.9948 27.0092 14.0509 25.6974 15.8416C24.4685 17.5136 23.8593 18.1271 23.9133 18.6752C23.9528 19.0754 24.3458 19.4408 25.1093 20.1577C26.7935 21.7323 27.1749 22.5135 27.2322 22.6307C27.2334 22.6331 27.2344 22.6353 27.2353 22.6371C27.9591 23.8309 26.4664 23.9228 26.4664 23.9228L23.6166 23.9687C23.6166 23.9687 23.0286 24.0605 22.2144 23.5095C21.8077 23.2224 21.401 22.7458 21.0105 22.2882C20.4021 21.5751 19.833 20.9082 19.3646 21.076C18.5504 21.3515 18.5957 23.0963 18.5957 23.0963C18.5957 23.0963 18.5956 23.4636 18.4147 23.6473C18.2338 23.8769 17.8267 23.9228 17.8267 23.9228Z" fill="#345DA3"/>
</svg>
