<svg width="322" height="349" viewBox="0 0 322 349" fill="none" xmlns="http://www.w3.org/2000/svg">
<path d="M281.24 314.143C280.637 312.901 280.637 311.783 281.24 310.541C281.844 309.423 282.901 308.554 283.807 309.548C286.222 311.659 282.901 316.255 279.882 316.379C279.58 316.379 278.523 316.503 278.674 316.876C279.58 322.216 279.882 329.42 285.769 332.774C289.392 334.885 294.676 335.258 298.601 333.643C306.3 330.786 309.772 323.334 311.886 317C316.565 302.965 317.924 287.936 319.132 273.404C322.604 232.044 322.151 190.56 321.245 149.076C320.792 131.315 320.339 113.554 319.585 95.9171C318.981 81.0126 319.283 65.7355 316.112 50.9553C313.848 40.7706 309.923 30.7101 302.224 22.3884C296.186 15.9298 287.883 11.2101 278.674 8.22917C262.521 3.13681 244.557 2.63999 227.498 1.89477C202.439 0.776936 177.228 0.28012 152.169 0.155916C128.921 -0.0924913 105.673 -0.0924912 82.4247 0.776936C67.3286 1.39795 52.2325 2.8884 38.0422 7.48394C30.3432 9.96802 23.399 13.5699 18.1153 18.7865C11.1711 25.6177 7.24613 34.312 4.98172 43.0062C-0.754805 63.8725 0.452883 85.9808 0.150961 107.22C-0.150961 132.557 0 158.019 0.603844 183.357C1.20769 211.302 2.26442 239.248 4.67979 267.07C5.73652 280.111 6.79325 293.401 9.81247 306.318C12.3788 316.876 16.4548 328.178 25.3615 336.5C31.098 341.965 38.646 344.946 47.2508 345.567C56.3085 346.312 65.5171 346.685 74.7257 347.057C101.748 348.175 128.921 348.548 156.094 348.672C183.116 348.796 209.987 348.672 237.009 347.43C248.633 346.933 260.559 346.312 271.881 343.828C277.617 342.586 287.128 340.723 287.279 334.761C287.581 326.067 272.938 323.831 264.937 324.701C264.031 324.825 263.125 325.197 264.333 325.818C268.258 327.681 270.069 330.911 273.24 333.395C276.41 335.755 280.486 336.376 284.713 336.376C287.732 336.376 285.769 334.761 283.807 334.761C275.957 334.761 273.692 328.178 267.654 325.197C267.503 325.57 267.201 325.943 267.05 326.315C272.183 325.694 279.429 326.688 281.995 330.911C283.354 333.022 283.505 336.251 281.24 337.866C278.372 339.978 274.296 341.095 270.673 341.965C264.182 343.58 257.54 344.325 250.746 344.822C227.498 346.685 204.099 346.933 180.851 347.057C153.527 347.181 126.053 346.933 98.7285 346.188C87.4065 345.939 76.2353 345.567 64.9133 345.07C57.3652 344.697 48.6095 345.07 41.5143 343.207C32.0037 340.723 25.8143 333.146 21.7384 325.943C15.0961 314.019 12.6807 300.605 11.3221 287.688C8.45382 262.35 6.94421 236.888 6.03844 211.302C4.22691 166.465 3.92499 121.379 5.28364 76.4171C5.58556 64.2451 6.64229 51.8247 10.5673 40.0253C13.1336 31.9521 17.3605 24.0031 24.4557 17.9171C35.1739 8.72598 51.9306 5.24827 66.7248 3.50942C83.6324 1.52216 101.144 1.77057 118.203 1.64636C142.809 1.39795 167.567 1.64636 192.173 2.14318C212.402 2.63999 232.933 3.0126 253.011 4.99987C270.673 6.61452 288.185 11.4585 299.054 23.8789C312.64 39.2801 313.546 59.5254 314.452 77.7833C315.056 91.1973 315.509 104.487 315.962 117.901C317.32 157.274 317.924 196.646 316.716 236.019C316.112 253.904 315.207 271.914 312.942 289.799C311.433 300.978 310.225 313.522 304.338 323.831C302.224 327.433 297.393 333.767 291.506 333.022C284.411 332.277 283.807 321.595 283.203 317.372C282.75 317.497 282.448 317.745 281.995 317.869C287.883 317.745 292.261 310.541 286.071 307.933C280.788 305.697 274.749 309.051 277.014 314.019C277.315 315.013 281.693 315.261 281.24 314.143Z" fill="#FFCA4C"/>
<path d="M285.014 305.573C285.014 302.965 285.014 299.487 286.826 297.251C287.128 296.879 287.43 296.755 287.732 296.506C288.185 296.382 288.034 296.258 287.43 296.258C287.581 296.382 287.581 296.382 287.732 296.506C287.732 297.127 288.185 297.748 288.034 298.493C287.581 301.102 285.165 303.337 282.901 305.2C282.448 305.573 284.411 306.07 285.014 305.573C287.43 303.71 290.6 300.729 290.298 297.748C290.147 296.258 288.638 295.388 286.826 295.637C282.75 296.258 282.901 302.841 282.75 305.325C282.75 305.946 285.014 306.07 285.014 305.573Z" fill="#FFCA4C"/>
<path d="M292.261 309.796C293.016 309.423 293.921 308.926 294.827 308.678C295.733 308.305 298.752 307.063 299.356 307.56C300.262 308.181 299.356 309.175 298.601 309.547C296.639 310.665 293.77 309.796 291.808 309.175C290.902 308.926 288.336 309.299 290.147 309.92C293.167 310.914 296.941 311.659 300.111 310.79C301.62 310.293 303.432 309.051 302.224 307.684C300.866 306.07 297.544 306.442 295.582 306.939C293.468 307.436 291.506 308.305 289.694 309.299C288.789 309.547 291.657 310.168 292.261 309.796Z" fill="#FFCA4C"/>
<path d="M272.636 313.895C271.73 314.64 270.824 315.385 269.919 316.006C269.013 316.627 268.258 317.124 267.201 317.497C266.749 317.621 266.296 317.869 265.843 317.993C265.39 317.993 265.994 318.118 265.843 317.993C265.692 317.993 265.541 317.869 265.541 317.745C265.088 316.751 265.39 316.006 266.296 315.261C268.258 313.895 271.277 314.143 273.542 314.516C273.995 314.64 275.202 314.764 275.504 314.391C275.806 314.019 274.9 313.77 274.598 313.646C271.277 313.025 267.201 312.653 264.182 314.267C262.673 315.012 261.465 316.627 262.975 317.869C264.635 319.484 267.956 318.987 269.919 318.118C272.032 317.124 273.995 315.758 275.504 314.391C275.957 314.019 273.24 313.398 272.636 313.895Z" fill="#FFCA4C"/>
<path d="M288.487 317C290.449 317.497 295.884 318.987 295.431 321.223C295.431 321.595 295.129 321.968 294.676 322.092C294.525 322.092 294.525 322.092 294.223 321.844C292.261 320.602 291.355 318.49 290.902 316.503C290.751 315.882 287.732 315.634 288.034 316.503C288.638 318.863 289.846 321.471 292.714 322.589C294.223 323.21 296.941 323.583 298.148 322.34C300.866 319.484 292.563 316.751 290.298 316.255C289.846 316.13 288.638 315.882 288.185 316.255C287.732 316.627 288.034 316.876 288.487 317Z" fill="#FFCA4C"/>
<path d="M277.768 307.56C276.863 304.331 274.749 298.618 269.465 299.239C267.503 299.487 266.899 300.977 267.503 302.468C268.56 305.2 272.485 306.815 275.504 307.933C276.41 308.181 278.976 307.809 277.164 307.188C274.598 306.318 271.881 305.076 270.673 302.965C270.22 302.095 270.069 300.853 271.126 300.232C270.673 300.481 270.673 299.984 270.975 300.356C270.975 300.481 271.277 300.605 271.428 300.729C271.73 300.977 272.032 301.35 272.334 301.723C272.938 302.468 273.39 303.337 273.692 304.207C274.145 305.325 274.598 306.318 274.9 307.436C275.051 308.181 277.919 308.43 277.768 307.56Z" fill="#FFCA4C"/>
</svg>
