<svg width="75" height="100%" viewBox="0 0 75 92" fill="none" xmlns="http://www.w3.org/2000/svg">
<g clip-path="url(#clip0)">
<path d="M32.2641 4.23454C38.2987 10.3068 42.9097 18.2138 45.939 26.1557C53.5841 45.7703 49.2614 65.7023 37.1364 82.253C37.9754 82.0754 38.8702 82.0026 39.7092 81.8249C35.9959 70.3445 30.8124 59.1087 24.3899 48.8019C23.5184 49.6698 22.6949 50.3775 21.8234 51.2454C34.7471 63.7422 53.9312 70.2135 71.0169 73.4957C71.4092 72.4793 71.6976 71.5182 72.0899 70.5018C59.7129 73.0559 48.0758 79.2533 37.8997 86.6914C36.3489 87.7864 36.8981 90.3202 38.7605 89.0591C48.473 82.0026 59.5347 75.977 71.4403 73.5394C72.5429 73.3559 74.4782 70.9795 72.5133 70.5455C55.851 67.307 36.8825 60.9901 24.286 48.8573C23.1445 47.7156 20.8897 49.9931 21.7195 51.3007C28.0304 61.3978 33.1022 72.4239 36.7038 83.6946C37.1102 84.9586 38.8207 83.913 39.2766 83.2665C51.2497 66.9313 56.419 47.0866 49.9805 27.2333C46.9683 18.0711 41.8392 8.69043 34.8306 1.7911C33.7449 0.754304 31.1785 3.19774 32.2641 4.23454Z" fill="white"/>
</g>
<defs>
<clipPath id="clip0">
<rect width="41.5545" height="81.1302" fill="white" transform="translate(0 19.533) rotate(-28.0379)"/>
</clipPath>
</defs>
</svg>
