<svg width="36" height="69" viewBox="0 0 36 69" fill="none" xmlns="http://www.w3.org/2000/svg">
<g clip-path="url(#clip0)">
<path d="M5.2113 2.08335C3.1113 8.98335 2.8113 16.6834 3.7113 23.7834C5.8113 41.3834 17.0113 54.4833 32.7113 61.9833C32.0113 62.1833 31.3113 62.4833 30.6113 62.6833C28.8113 52.6833 28.2113 42.2834 28.9113 32.0834C29.9113 32.3834 30.8113 32.5834 31.8113 32.8834C27.1113 47.2833 15.3113 59.6833 3.8113 68.8833C3.1113 68.2833 2.5113 67.6833 1.8113 67.0834C12.1113 64.0834 23.3113 64.0834 33.9113 65.5834C35.5113 65.7833 36.1113 67.8833 34.2113 67.6833C24.1113 66.2833 13.4113 66.1833 3.5113 69.0834C2.6113 69.3834 0.2113 68.3833 1.5113 67.2833C12.7113 58.2833 24.4113 46.0834 29.0113 32.0834C29.4113 30.7834 32.0113 31.5834 31.9113 32.8834C31.2113 42.8834 31.8113 53.0834 33.6113 62.8834C33.8113 63.9833 32.1113 63.8834 31.5113 63.5834C16.0113 56.1833 4.2113 43.4834 1.1113 26.1834C-0.288704 18.1834 -0.188702 9.18335 2.3113 1.28335C2.7113 0.0833514 5.6113 0.883351 5.2113 2.08335Z" fill="white"/>
</g>
<defs>
<clipPath id="clip0">
<rect width="35.3" height="68.3" fill="white" transform="matrix(-1 0 0 1 35.5113 0.68335)"/>
</clipPath>
</defs>
</svg>
