<svg width="175" height="152" viewBox="0 0 175 152" fill="none" xmlns="http://www.w3.org/2000/svg">
<g clip-path="url(#clip0)">
<path d="M42.2063 23.8451C30.9346 30.4027 20.4879 37.9274 10.915 46.6611C9.22289 48.2622 12.8092 49.8055 13.9228 49.7067C37.5545 49.471 65.1633 52.7149 85.9128 65.6563C87.3673 66.6223 90.7559 65.9383 89.2992 63.7133C84.8801 56.7961 80.6064 49.9756 76.4294 43.0096C71.4751 34.6891 63.7573 24.5333 61.9485 14.948C61.5576 13.0117 57.8747 11.6139 56.9099 13.6979C47.6947 32.9396 41.1963 55.0335 47.4809 76.1847C52.0123 91.77 63.2209 104.244 76.1672 113.471C98.5688 129.605 130.874 132.405 154.964 117.592C157.431 116.086 153.117 113.431 151.181 114.451C128.011 128.826 97.6417 125.636 76.5468 109.111C64.6176 99.9316 54.8624 87.7939 51.4946 72.9814C47.0043 53.2315 53.506 33.0261 61.9007 15.3355C60.3019 14.9025 58.461 14.5184 56.8622 14.0854C58.7687 24.1547 66.0502 34.0208 71.1988 42.6799C75.619 50.2266 80.2324 57.4824 84.8946 64.9802C86.0071 64.2518 87.1685 63.7655 88.281 63.0371C66.5134 49.4195 37.4512 45.8392 12.4638 46.2226C13.4342 47.2862 14.5013 48.2044 15.4717 49.2681C24.706 40.7286 35.0561 33.3494 45.9892 26.9861C48.2142 25.5294 43.9961 22.7282 42.2063 23.8451Z" fill="white"/>
</g>
<defs>
<clipPath id="clip0">
<rect width="159.238" height="75.0795" fill="white" transform="translate(41.5356 0.553223) rotate(33.5883)"/>
</clipPath>
</defs>
</svg>
