<svg width="269" height="147" viewBox="0 0 269 147" fill="none" xmlns="http://www.w3.org/2000/svg">
<path d="M242.535 89.4398C242.162 89.4398 241.779 89.4504 241.394 89.4719C238.967 80.2477 230.903 73.3521 221.378 72.3212C220.688 62.4222 212.434 54.6074 202.355 54.6074C199.538 54.6074 196.802 55.2324 194.317 56.3777C191.797 53.8376 188.332 52.3707 184.705 52.3892C179.515 38.0944 165.591 28.2478 150.209 28.2478C145.17 28.2478 140.171 29.2992 135.613 31.2947C126.626 13.1838 108.135 1.60571 87.7951 1.60571C58.6501 1.60571 34.8808 25.0838 34.4387 54.1072C15.9749 60.9415 3.67285 78.4636 3.67285 98.2828C3.67285 124.296 24.8372 145.394 50.8176 145.394C62.8793 145.394 74.6127 140.657 83.3379 132.372C90.6496 136.779 99.0299 139.087 107.626 139.087C118.127 139.087 128.316 135.597 136.562 129.172C145.599 137.492 157.655 142.241 169.946 142.241C180.036 142.241 190.03 139.057 198.255 133.29C202.491 136.843 207.808 138.805 213.424 138.805C219.917 138.805 225.975 136.205 230.432 131.592C234.038 133.842 238.242 135.039 242.488 135.039C255.092 135.039 265.327 124.813 265.327 112.216C265.327 99.6186 255.139 89.4398 242.535 89.4398Z" fill="#9CDBF8" stroke="white" stroke-width="3"/>
<path d="M242.173 94.9154C240.201 94.9154 238.276 95.2481 236.491 95.8661C236.491 95.771 236.491 95.6284 236.491 95.5333C236.491 85.5506 228.509 77.5168 218.695 77.5168C217.521 77.5168 216.347 77.6594 215.22 77.8496C215.642 76.5185 215.83 75.1399 215.83 73.6663C215.83 65.9653 209.679 59.7379 202.072 59.7379C198.315 59.7379 194.887 61.2591 192.398 63.7786C191.506 60.2133 188.36 57.5512 184.51 57.5512C183.148 57.5512 181.88 57.884 180.753 58.502C177.842 44.0507 165.257 33.1647 150.09 33.1647C143.751 33.1647 137.881 35.0662 132.95 38.3462C126.376 19.5691 108.673 6.21118 87.9182 6.21118C61.4342 6.21118 39.9747 27.9356 39.9747 54.7465C39.9747 55.7448 40.0217 56.7431 40.0686 57.7414C22.3187 62.6377 9.31152 79.038 9.31152 98.5282C9.31152 121.869 28.0006 140.789 51.0567 140.789C63.7352 140.789 75.0989 135.084 82.7529 126.052C89.7026 131.329 98.3897 134.466 107.734 134.466C119.098 134.466 129.382 129.903 136.895 122.439C144.925 131.757 156.711 137.604 169.906 137.604C180.894 137.604 190.943 133.515 198.644 126.718C201.978 131.186 207.284 134.086 213.248 134.086C220.15 134.086 226.161 130.235 229.26 124.483C232.453 128.049 237.055 130.283 242.173 130.283C251.847 130.283 259.688 122.344 259.688 112.552C259.688 102.854 251.847 94.9154 242.173 94.9154Z" fill="#00AEFF"/>
<g clip-path="url(#clip0)">
<path d="M77.0342 96.7244H71.9168V98.8191C71.9168 99.7713 71.822 100.628 71.5851 101.438C71.3955 102.057 71.1586 102.628 70.8269 103.199L70.1636 103.247L70.211 106.627H71.5851L71.6799 104.627H76.2761L76.3708 106.627H77.745L77.8397 103.247L77.0342 103.199V96.7244ZM75.281 103.152H72.6749C72.8644 102.771 73.1014 102.295 73.2435 101.818C73.4804 101.009 73.5752 100.152 73.5752 99.2476V98.2002H75.281V103.152Z" fill="white"/>
<path d="M80.6355 101.247H83.5259V99.8189H80.6355V98.1526H83.6681V96.7244H78.835V104.627H83.8576V103.152H80.6355V101.247Z" fill="white"/>
<path d="M84.4736 98.2002H86.6059V104.627H88.3591V98.2002H90.5387V96.7244H84.4736V98.2002Z" fill="white"/>
<path d="M95.0873 98.0574C95.7033 98.0574 96.2245 98.2002 96.6036 98.3431L96.9827 96.9148C96.651 96.772 95.9876 96.5815 95.0399 96.5815C92.6708 96.5815 90.728 98.105 90.728 100.771C90.728 103.009 92.1495 104.723 94.8504 104.723C95.7981 104.723 96.5562 104.532 96.8879 104.389L96.6036 103.009C96.2719 103.152 95.6559 103.247 95.1347 103.247C93.5237 103.247 92.576 102.247 92.576 100.676C92.576 98.9144 93.7132 98.0574 95.0873 98.0574Z" fill="white"/>
<path d="M102.1 96.7244L99.9207 100.009H99.7786V96.7244H98.0254V104.627H99.7786V101.295H100.158C101.105 101.295 101.484 101.961 101.769 102.866C101.958 103.437 102.1 104.056 102.385 104.58H104.28C103.901 103.77 103.664 102.913 103.38 102.104C103.048 101.152 102.574 100.438 101.579 100.2L104.327 96.6768H102.1V96.7244Z" fill="white"/>
<path d="M108.355 96.5815C106.033 96.5815 104.517 98.3431 104.517 100.723C104.517 102.961 105.891 104.77 108.213 104.77C110.534 104.77 112.098 103.199 112.098 100.628C112.098 98.3907 110.771 96.5815 108.355 96.5815ZM108.355 103.342C107.17 103.342 106.459 102.247 106.459 100.723C106.459 99.2 107.17 98.0574 108.355 98.0574C109.587 98.0574 110.25 99.2952 110.25 100.676C110.25 102.152 109.539 103.342 108.355 103.342Z" fill="white"/>
<path d="M115.083 101.247H117.974V99.8189H115.083V98.1526H118.116V96.7244H113.283V104.627H118.305V103.152H115.083V101.247Z" fill="white"/>
<path d="M121.859 104.627H123.66V98.1526H126.456V104.627H128.256V96.7244H121.859V104.627Z" fill="white"/>
<path d="M132.758 99.8189C132.284 100.676 131.763 101.723 131.336 102.628H131.289C131.384 101.58 131.384 100.295 131.384 99.0572V96.7244H129.725V104.627H131.763L133.374 101.771C133.847 100.914 134.321 99.8665 134.7 98.962H134.748C134.653 100.009 134.606 101.057 134.606 102.295V104.627H136.217V96.7244H134.416L132.758 99.8189Z" fill="white"/>
<path d="M143.277 96.7244H137.259V98.2002H139.344V104.627H141.144V98.2002H143.277V96.7244Z" fill="white"/>
<path d="M145.172 96.7244L142.803 104.627H144.651L145.172 102.58H147.446L148.062 104.627H149.958L147.541 96.7244H145.172ZM145.456 101.247L145.93 99.5809C146.072 99.1048 146.167 98.5335 146.309 98.0574H146.357C146.451 98.5335 146.593 99.1048 146.736 99.5809L147.209 101.247H145.456Z" fill="white"/>
<path d="M155.738 99.7237H152.801V96.7244H151.047V104.627H152.801V101.295H155.738V104.627H157.539V96.7244H155.738V99.7237Z" fill="white"/>
<path d="M162.04 99.8189C161.567 100.676 161.045 101.723 160.619 102.628H160.571C160.666 101.58 160.666 100.295 160.666 99.0572V96.7244H159.008V104.627H161.045L162.656 101.771C163.13 100.914 163.604 99.8665 163.983 98.962H164.03C163.936 100.009 163.888 101.057 163.888 102.295V104.627H165.499V96.7244H163.699L162.04 99.8189Z" fill="white"/>
<path d="M168.911 101.247H171.802V99.8189H168.911V98.1526H171.991V96.7244H167.111V104.627H172.133V103.152H168.911V101.247Z" fill="white"/>
<path d="M111.388 83.0605H129.251C129.251 83.0605 129.772 73.634 116.268 73.634C102.716 73.634 101.342 81.6323 101.342 83.251C101.342 84.9173 102.527 92.3442 116.552 92.3442C120.627 92.3442 126.598 91.4397 127.166 91.2492C127.309 91.0112 129.299 86.8692 129.299 86.8692C129.299 86.8692 124.086 88.7736 118.353 88.7736C111.672 88.3451 111.388 83.0605 111.388 83.0605ZM115.463 77.0619C118.543 77.0619 119.632 79.7755 119.632 79.7755L111.388 79.7279C111.388 79.7279 112.335 77.0619 115.463 77.0619Z" fill="white"/>
<path d="M164.505 70.016C165.879 70.7301 170.522 71.9203 171.565 69.2542C172.607 66.5406 169.196 64.1125 167.49 63.3508C167.063 63.1603 161.662 60.6371 160.051 63.8269C158.629 66.4453 163.036 69.3495 164.505 70.016Z" fill="white"/>
<path d="M175.071 88.3929C175.355 88.2976 175.545 88.1072 175.545 87.7739C175.545 87.5359 175.45 87.3455 175.308 87.2502C175.166 87.155 174.881 87.0598 174.502 87.0598C174.218 87.0598 173.981 87.1074 173.792 87.1074V89.5831H174.218V88.5357H174.502C174.834 88.5357 174.976 88.6309 175.071 88.9642C175.118 89.2974 175.166 89.5355 175.26 89.5831H175.687C175.639 89.4878 175.592 89.345 175.497 88.9642C175.45 88.6309 175.308 88.4405 175.071 88.3929ZM174.55 88.25H174.265V87.3931C174.313 87.3931 174.407 87.3931 174.55 87.3931C175.023 87.3931 175.166 87.6311 175.166 87.8216C175.166 88.1548 174.881 88.25 174.55 88.25Z" fill="white"/>
<path d="M144.651 73.6817C144.651 73.6817 142.708 76.4906 142.234 77.1571C142.992 77.3 149.152 77.7284 149.199 82.4417C149.199 90.2019 140.67 88.5832 140.339 88.5832C140.339 88.3928 140.339 62.1128 140.339 62.1128L138.87 62.9697L130.388 63.1602L130.483 91.0589C130.483 91.0589 139.154 92.3443 142.661 92.2015C146.12 92.1062 158.771 91.9158 159.719 83.2986C160.666 72.92 144.651 73.6817 144.651 73.6817Z" fill="white"/>
<path d="M174.692 86.1077C173.413 86.1077 172.417 87.1074 172.417 88.3453C172.417 89.5831 173.413 90.5829 174.692 90.5829C175.971 90.5829 176.966 89.5831 176.966 88.3453C176.919 87.1074 175.924 86.1077 174.692 86.1077ZM174.692 90.202C173.649 90.202 172.844 89.3927 172.844 88.2977C172.844 87.2503 173.649 86.4409 174.692 86.4409C175.734 86.4409 176.54 87.2979 176.54 88.3453C176.492 89.3927 175.687 90.2496 174.692 90.202Z" fill="white"/>
<path d="M170.759 89.1544C170.57 88.4879 170.617 74.0625 170.617 74.0625L160.903 74.1577L160.856 91.7729C160.856 91.7729 172.323 91.7729 172.654 91.6777C172.418 91.392 171.091 90.4875 170.759 89.1544Z" fill="white"/>
<path d="M72.2015 80.823C72.2015 80.823 72.2015 80.7754 72.2015 80.823C73.7178 80.1564 75.1393 79.2995 76.3712 78.5854C79.1195 77.0143 80.4462 77.6808 80.4462 77.6808C80.9201 77.8236 81.0622 78.5378 81.3939 79.1091C81.4887 79.2519 81.6308 79.3947 81.773 79.5375C82.4837 80.0136 83.0523 79.728 83.8105 79.5375C84.9951 79.2519 86.464 79.3471 86.464 79.3471C87.1747 79.3947 90.9654 79.3947 90.9654 82.9177C90.918 87.1549 87.459 87.8214 86.5113 87.869C85.8006 87.9167 82.4837 87.393 82.4837 87.393C82.4837 87.393 82.5785 80.8706 82.4837 80.3945C81.4413 81.0134 80.4936 79.4899 80.3041 78.7758C80.2093 78.2997 79.5933 78.2045 79.1195 78.2997C77.8401 78.5377 75.6131 80.0612 74.1442 80.8706C72.9122 81.5371 72.1541 81.8704 72.1541 81.8704V91.9158C72.1541 91.9158 84 91.9158 89.4965 91.9158C91.8183 91.9158 100.632 90.0114 100.632 83.5367C100.632 76.5858 93.0977 75.7288 93.0977 75.7288C93.9032 75.4908 98.4994 73.9197 98.4994 70.1586C98.4994 64.0171 91.0128 63.303 90.0177 63.303C89.0701 63.1602 72.1541 63.1602 72.1541 63.1602C72.1541 63.1602 72.1541 73.0151 72.1541 73.0628C74.5707 73.2056 78.2666 71.5393 80.6832 71.8725C82.1047 72.1582 82.6259 73.7293 82.6259 73.7293V67.5878C82.6259 67.5878 85.5637 67.4449 85.7058 67.4925C85.8954 67.4925 88.075 68.0638 88.1698 70.968C88.2172 74.5386 85.3267 75.9193 83.6209 75.9669C82.8154 75.9669 82.4363 75.6336 82.1994 75.3004C81.9151 74.8719 81.9151 74.4434 81.8677 74.3006C81.6308 73.3008 80.6358 73.0151 80.1145 72.9199C78.077 72.7295 75.7553 73.8721 73.007 74.0149C72.6753 74.0149 73.007 74.0149 73.007 74.0149C72.5805 74.0625 72.1067 74.0625 71.6803 74.0149C69.7849 73.8721 66.089 71.3488 65.7573 71.0156C65.8995 72.1106 66.1838 73.8721 65.9942 74.9671C65.8047 76.0621 64.5727 78.5854 64.3832 79.2995C64.1936 79.966 63.4829 82.0608 66.4207 82.2036C68.316 82.2988 70.3061 81.6799 72.2015 80.823Z" fill="white"/>
</g>
<defs>
<clipPath id="clip0">
<rect width="112.773" height="44.5141" fill="white" transform="translate(64.146 62.1128)"/>
</clipPath>
</defs>
</svg>
