<svg class="item__social-icon" xmlns="http://www.w3.org/2000/svg" width="457" height="503" viewBox="0 0 457 503" fill="none" data-depth="0.4">
    
    
    <g>
        
        
        <g>
            <path d="M60.919 65.1103C63.3425 65.4802 63.6264 65.5455 64.587 65.7414C65.4603 65.9155 65.9188 66.1331 66.2245 66.3072C66.6175 66.5466 66.9013 66.786 67.1633 67.1559C67.4253 67.5259 67.5782 67.8523 67.6873 68.3093C67.7528 68.6575 67.8402 69.1581 67.731 70.0503C67.6218 71.0079 67.6 71.2908 67.207 73.7281C66.8358 76.1438 66.7703 76.4267 66.5738 77.3842C66.3992 78.2547 66.1808 78.7117 66.0062 79.0164C65.766 79.4081 65.5258 79.691 65.1547 79.9522C64.7835 80.2133 64.456 80.3657 63.9975 80.4745C63.6482 80.5397 63.146 80.6268 62.2509 80.518C61.2902 80.4092 61.0064 80.3657 58.561 79.9957C56.1375 79.6257 55.8537 79.5604 54.893 79.3646C54.0197 79.1905 53.5612 78.9729 53.2556 78.7988C52.8626 78.5594 52.5787 78.32 52.3167 77.95C52.0547 77.5801 51.9019 77.2536 51.7927 76.7966C51.7272 76.4484 51.6399 75.9479 51.7491 75.0556C51.8582 74.0981 51.8801 73.8152 52.2731 71.3778C52.6442 68.9622 52.7097 68.6793 52.9062 67.7218C53.0809 66.8513 53.2992 66.3942 53.4739 66.0896C53.7141 65.6979 53.9542 65.4149 54.3254 65.1538C54.6965 64.8926 55.024 64.7403 55.4825 64.6315C55.8319 64.5662 56.334 64.4792 57.2292 64.588C58.1899 64.6968 58.4737 64.7186 60.919 65.1103ZM61.1592 63.4563C58.692 63.0646 58.3864 63.0429 57.4039 62.934C56.4214 62.8252 55.7445 62.8688 55.1332 63.0211C54.5 63.1517 53.9542 63.391 53.3647 63.8045C52.7752 64.2398 52.3822 64.6968 52.0547 65.2408C51.7491 65.7849 51.4871 66.416 51.2906 67.3736C51.0941 68.3311 51.0286 68.6358 50.6574 71.0949C50.2644 73.5541 50.2426 73.8587 50.1334 74.838C50.0242 75.8173 50.0679 76.492 50.2207 77.1013C50.3517 77.7324 50.5919 78.2765 51.0286 78.8641C51.4652 79.4516 51.9237 79.8434 52.4696 80.1698C53.0154 80.4745 53.6486 80.7356 54.6092 80.9315C55.5699 81.1273 55.8755 81.1926 58.3427 81.5626C60.8099 81.9543 61.1155 81.9761 62.098 82.0849C63.0805 82.1937 63.7574 82.1502 64.3687 81.9978C65.0018 81.8673 65.5477 81.6279 66.1372 81.1926C66.7267 80.7574 67.1197 80.3004 67.4472 79.7563C67.7528 79.2122 68.0148 78.5811 68.2113 77.6236C68.4078 76.6661 68.4733 76.3614 68.8445 73.9022C69.2375 71.4431 69.2593 71.1384 69.3685 70.1591C69.4777 69.1798 69.434 68.5052 69.2812 67.8958C69.1502 67.2647 68.91 66.7207 68.4733 66.1331C68.0367 65.5455 67.5782 65.1538 67.0323 64.8274C66.4865 64.5227 65.8533 64.2615 64.8927 64.0657C63.932 63.9133 63.6264 63.8481 61.1592 63.4563Z" fill="white"/>
            <path d="M60.4832 67.874C57.9068 67.4823 55.4834 69.2233 55.0904 71.7912C54.6974 74.3592 56.444 76.7748 59.0203 77.1665C61.5967 77.5583 64.0202 75.8173 64.4132 73.2493C64.828 70.6813 63.0595 68.2657 60.4832 67.874ZM59.2823 75.5561C57.6012 75.295 56.4659 73.7281 56.7279 72.0741C56.9898 70.3984 58.5618 69.2668 60.2212 69.5279C61.9023 69.7891 63.0377 71.356 62.7757 73.0099C62.5137 74.6639 60.9417 75.8173 59.2823 75.5561Z" fill="white"/>
            <path d="M66.4435 68.6141C66.3562 69.2234 65.7885 69.6151 65.1772 69.5281C64.5658 69.441 64.1728 68.8752 64.2602 68.2659C64.3475 67.6565 64.9152 67.2648 65.5265 67.3519C66.1378 67.4607 66.5527 68.0265 66.4435 68.6141Z" fill="white"/>
        </g>
        
    </g>
    <defs>
        <clipPath>
            <rect width="156.035" height="156.035" fill="white" transform="translate(152.095 0.935181)"/>
        </clipPath>
        <clipPath>
            <rect width="456.037" height="358.445" fill="white" transform="translate(0.909668 144.438)"/>
        </clipPath>
        <clipPath>
            <rect width="98.6427" height="82.5012" fill="white" transform="translate(46.2788 20.6637)"/>
        </clipPath>
    </defs>
</svg>