<svg xmlns="http://www.w3.org/2000/svg" width="464" height="637" viewBox="0 0 464 637" fill="none"  data-depth="0.2">
    
    
    
    <g>
        <g>
            <path d="M289.206 73.3698C290.02 75.9337 292.685 77.3322 295.17 76.5164C297.655 75.6773 299.011 72.9269 298.22 70.3629C297.407 67.799 294.741 66.4005 292.256 67.2163C289.749 68.0321 288.393 70.8058 289.206 73.3698Z" stroke="white" stroke-miterlimit="10" stroke-linejoin="round"/>
            <path d="M281.12 82.4603C281.594 83.9288 283.13 84.7446 284.554 84.2784C285.977 83.7889 286.768 82.204 286.316 80.7355C285.841 79.2671 284.305 78.4513 282.882 78.9175C281.436 79.4069 280.646 80.9919 281.12 82.4603Z" stroke="white" stroke-miterlimit="10" stroke-linejoin="round"/>
            <path d="M337.755 45.4696C337.439 45.1433 337.326 44.7937 337.439 44.3974C337.506 44.1876 337.687 43.9079 338.026 43.5816L340.511 41.0176C340.918 40.5981 341.347 40.3883 341.776 40.3883C342.138 40.3883 342.431 40.5048 342.635 40.7379C342.86 40.971 342.973 41.3906 342.973 41.9733V52.1592C342.973 52.672 342.928 53.0216 342.815 53.2314C342.635 53.6276 342.296 53.8141 341.799 53.8141C341.302 53.8141 340.963 53.6276 340.782 53.2314C340.669 53.0216 340.624 52.6487 340.624 52.1592V44.1177L339.562 45.2132C339.359 45.423 339.223 45.5395 339.11 45.6328C338.997 45.7027 338.885 45.7726 338.772 45.8192C338.455 45.9125 338.094 45.7959 337.755 45.4696Z" fill="white"/>
            <path d="M349.906 51.4831C349.952 51.7162 349.884 52.0891 349.726 52.5553L348.935 55.0027C348.8 55.4689 348.641 55.7719 348.461 55.9584C348.257 56.1681 348.031 56.2614 347.715 56.2614C347.467 56.2614 347.196 56.1681 346.947 56.005C346.699 55.8418 346.54 55.6087 346.518 55.3057C346.473 55.0726 346.54 54.6997 346.699 54.2335L347.489 51.7861C347.625 51.32 347.783 51.0169 347.964 50.8305C348.167 50.6207 348.393 50.5275 348.709 50.5275C348.958 50.5275 349.229 50.6207 349.477 50.7839C349.703 50.947 349.861 51.1801 349.906 51.4831Z" fill="white"/>
            <path d="M364.121 52.6253C364.121 53.0682 363.941 53.3945 363.602 53.581C363.421 53.6742 363.105 53.7208 362.63 53.7208H357.683C357.48 53.7208 357.321 53.7208 357.208 53.6975C357.096 53.6975 356.96 53.6509 356.824 53.6043C356.666 53.5577 356.553 53.4644 356.463 53.3712C356.237 53.1381 356.147 52.8584 356.147 52.5088C356.147 52.2757 356.192 52.0659 356.305 51.8561C356.418 51.6697 356.553 51.4366 356.779 51.1802L360.778 46.1922C361.094 45.7959 361.32 45.4463 361.456 45.1433C361.591 44.8403 361.681 44.4906 361.681 44.0944C361.681 43.6515 361.546 43.2786 361.275 42.9989C361.004 42.7192 360.62 42.5793 360.145 42.5793C359.739 42.5793 359.4 42.6726 359.151 42.8823C358.903 43.0688 358.677 43.3951 358.519 43.838C358.406 44.141 358.248 44.3508 358.067 44.5372C357.909 44.6771 357.683 44.747 357.389 44.747C357.028 44.747 356.734 44.6305 356.553 44.3741C356.373 44.141 356.282 43.838 356.282 43.5117C356.282 43.1387 356.373 42.7425 356.576 42.3462C356.779 41.95 357.028 41.6004 357.367 41.3207C358.112 40.6913 359.016 40.3883 360.123 40.3883C361.32 40.3883 362.291 40.7146 362.992 41.344C363.715 41.9966 364.054 42.8823 364.054 44.0478C364.054 44.4207 364.031 44.747 363.963 45.0267C363.895 45.3064 363.805 45.6094 363.647 45.9125C363.489 46.2155 363.331 46.4719 363.15 46.7049C362.969 46.938 362.721 47.2643 362.404 47.6839L359.287 51.5531H362.653C363.127 51.5531 363.444 51.5997 363.624 51.693C363.963 51.8561 364.121 52.1825 364.121 52.6253Z" fill="white"/>
            <path d="M368.887 51.4831C368.932 51.7162 368.864 52.0891 368.706 52.5553L367.915 55.0027C367.78 55.4689 367.621 55.7719 367.441 55.9584C367.237 56.1681 367.011 56.2614 366.695 56.2614C366.447 56.2614 366.176 56.1681 365.927 56.005C365.679 55.8418 365.52 55.6087 365.498 55.3057C365.453 55.0726 365.52 54.6997 365.679 54.2335L366.469 51.7861C366.605 51.32 366.763 51.0169 366.944 50.8305C367.147 50.6207 367.373 50.5275 367.689 50.5275C367.938 50.5275 368.209 50.6207 368.457 50.7839C368.706 50.947 368.841 51.1801 368.887 51.4831Z" fill="white"/>
            <path d="M373.649 51.0168C373.966 51.3432 374.124 51.7161 374.124 52.159C374.124 52.6018 373.966 52.9981 373.649 53.3011C373.333 53.6274 372.972 53.7673 372.52 53.7673C372.09 53.7673 371.706 53.6041 371.413 53.3011C371.096 52.9748 370.961 52.6018 370.961 52.159C370.961 51.7161 371.119 51.3198 371.413 51.0168C371.729 50.6905 372.09 50.5507 372.52 50.5507C372.949 50.5507 373.333 50.6905 373.649 51.0168Z" fill="white"/>
            <path d="M378.799 51.0168C379.116 51.3432 379.274 51.7161 379.274 52.159C379.274 52.6018 379.116 52.9981 378.799 53.3011C378.483 53.6274 378.122 53.7673 377.67 53.7673C377.241 53.7673 376.857 53.6041 376.563 53.3011C376.247 52.9748 376.111 52.6018 376.111 52.159C376.111 51.7161 376.269 51.3198 376.563 51.0168C376.879 50.6905 377.241 50.5507 377.67 50.5507C378.099 50.5507 378.483 50.6905 378.799 51.0168Z" fill="white"/>
            <path d="M385.397 50.8536C385.397 50.4807 385.51 50.1777 385.713 49.9446C385.939 49.7115 386.21 49.5717 386.572 49.5717C386.888 49.5717 387.114 49.6416 387.295 49.8047C387.476 49.9679 387.634 50.2243 387.747 50.5506C387.882 50.9236 388.063 51.2033 388.289 51.3664C388.537 51.5296 388.876 51.6228 389.351 51.6228C389.848 51.6228 390.254 51.4597 390.571 51.1333C390.887 50.807 391.067 50.3642 391.067 49.7814C391.067 49.222 390.909 48.7792 390.616 48.4762C390.322 48.1731 389.893 47.9867 389.328 47.9634C389.034 47.9401 388.808 47.8934 388.65 47.8235C388.334 47.637 388.153 47.334 388.153 46.9145C388.153 46.4949 388.311 46.1919 388.65 46.0054C388.831 45.9122 389.057 45.8656 389.328 45.8656C389.825 45.8423 390.232 45.7024 390.525 45.3994C390.819 45.1197 390.955 44.7002 390.955 44.1874C390.955 43.6746 390.796 43.255 390.503 42.9753C390.209 42.6723 389.825 42.5325 389.373 42.5325C388.989 42.5325 388.695 42.6024 388.47 42.7655C388.244 42.9287 388.063 43.1851 387.927 43.5347C387.792 43.8843 387.656 44.1174 387.476 44.2806C387.317 44.4438 387.069 44.5137 386.753 44.5137C386.436 44.5137 386.188 44.4205 385.985 44.2107C385.781 44.0009 385.668 43.7212 385.668 43.3716C385.668 43.0685 385.736 42.7655 385.849 42.4625C386.03 41.9964 386.278 41.6001 386.617 41.2971C387.317 40.6678 388.244 40.3647 389.396 40.3647C390.141 40.3647 390.796 40.5046 391.384 40.7843C391.971 41.064 392.446 41.5069 392.784 42.0663C393.146 42.649 393.304 43.3016 393.304 44.0708C393.304 45.3528 392.784 46.2851 391.745 46.8679C392.852 47.4506 393.417 48.4762 393.417 49.9446C393.417 50.7604 393.236 51.4597 392.875 52.0657C392.513 52.6717 392.039 53.1146 391.429 53.3943C390.819 53.6973 390.141 53.8371 389.373 53.8371C388.695 53.8371 388.131 53.7672 387.656 53.6274C387.182 53.4875 386.775 53.2311 386.391 52.9048C385.736 52.3221 385.397 51.6461 385.397 50.8536Z" fill="white"/>
            <path d="M403.065 43.9777C403.065 44.4672 402.997 44.8634 402.861 45.1897C402.726 45.5161 402.5 45.9123 402.184 46.3085L401.099 47.777C400.851 48.1033 400.67 48.4763 400.58 48.8492C400.512 49.1289 400.377 49.362 400.218 49.5484C399.992 49.7815 399.699 49.8981 399.337 49.8981C398.976 49.8981 398.682 49.7815 398.456 49.5251C398.276 49.3154 398.185 49.059 398.185 48.686C398.185 48.383 398.23 48.1033 398.321 47.8469C398.411 47.5905 398.592 47.3108 398.818 46.9845L400.173 45.2363C400.512 44.7935 400.693 44.3506 400.693 43.9311C400.693 43.5115 400.557 43.1619 400.309 42.8822C400.038 42.6025 399.699 42.4626 399.27 42.4626C398.795 42.4626 398.434 42.6025 398.163 42.9055C397.982 43.1153 397.824 43.395 397.711 43.7912C397.643 44.0243 397.53 44.2341 397.395 44.3972C397.214 44.607 396.943 44.7002 396.581 44.7002C396.265 44.7002 395.994 44.5837 395.791 44.3739C395.61 44.1642 395.52 43.8844 395.52 43.5115C395.52 43.1852 395.61 42.8123 395.791 42.3927C395.971 41.9964 396.22 41.6235 396.559 41.2972C397.282 40.5979 398.185 40.2716 399.27 40.2716C399.97 40.2716 400.602 40.4115 401.19 40.6912C401.755 40.9709 402.229 41.3904 402.568 41.9498C402.884 42.5792 403.065 43.2318 403.065 43.9777ZM398.343 53.3478C398.072 53.0681 397.937 52.7184 397.937 52.3222C397.937 51.9259 398.072 51.5763 398.343 51.2966C398.614 51.0169 398.953 50.877 399.337 50.877C399.721 50.877 400.06 51.0169 400.331 51.2966C400.602 51.5763 400.738 51.9259 400.738 52.3222C400.738 52.7184 400.602 53.0681 400.331 53.3478C400.06 53.6275 399.721 53.7673 399.337 53.7673C398.953 53.7906 398.637 53.6508 398.343 53.3478Z" fill="white"/>
            <path d="M408.19 51.2968C408.461 51.5998 408.619 51.9261 408.619 52.3223C408.619 52.7186 408.484 53.0682 408.19 53.3479C407.919 53.6276 407.58 53.7675 407.174 53.7675C406.767 53.7675 406.451 53.6276 406.18 53.3479C405.908 53.0682 405.773 52.7186 405.773 52.3223C405.773 51.9261 405.908 51.5765 406.18 51.2734C406.451 50.9937 406.79 50.8306 407.174 50.8306C407.558 50.8539 407.896 50.9937 408.19 51.2968ZM408.439 42.1365V47.8937C408.439 48.22 408.439 48.4298 408.416 48.593C408.393 48.7328 408.348 48.896 408.28 49.0358C408.19 49.2223 408.032 49.3621 407.851 49.4787C407.648 49.5952 407.445 49.6418 407.196 49.6418C406.948 49.6418 406.744 49.5952 406.541 49.4787C406.338 49.3621 406.202 49.2223 406.112 49.0358C406.044 48.8727 405.999 48.7328 405.976 48.593C405.954 48.4531 405.954 48.22 405.954 47.8937V42.1365C405.954 41.8101 405.954 41.6004 405.976 41.4372C405.999 41.2973 406.044 41.1342 406.112 40.9943C406.202 40.8079 406.36 40.668 406.541 40.5515C406.744 40.4349 406.948 40.3883 407.196 40.3883C407.445 40.3883 407.648 40.4349 407.851 40.5515C408.055 40.668 408.19 40.8079 408.28 40.9943C408.348 41.1575 408.393 41.2973 408.416 41.4372C408.439 41.577 408.439 41.8101 408.439 42.1365Z" fill="white"/>
            <path d="M306.084 55.6552C306.084 60.4568 309.856 64.3494 314.51 64.3494C316.972 64.3494 319.186 63.2539 320.722 61.5057C322.213 64.3027 325.105 66.214 328.426 66.214C331.295 66.214 333.848 64.7922 335.452 62.6012C339.156 65.9343 343.991 67.9389 349.277 67.9389C355.602 67.9389 361.295 65.0486 365.158 60.5034C368.773 64.1396 373.72 66.4005 379.187 66.4005C383.682 66.4005 387.862 64.8621 391.205 62.2749C394.887 66.7035 400.354 69.5006 406.454 69.5006C417.546 69.5006 426.537 60.2237 426.537 48.7792C426.537 39.2226 420.279 31.1812 411.74 28.7804C411.763 28.2909 411.785 27.8014 411.785 27.3119C411.785 14.1658 401.461 3.51379 388.72 3.51379C378.735 3.51379 370.218 10.0635 367.011 19.2471C364.639 17.6388 361.815 16.7065 358.765 16.7065C351.491 16.7065 345.414 22.0442 344.013 29.13C343.471 28.827 342.861 28.6638 342.206 28.6638C340.376 28.6638 338.84 29.9691 338.411 31.7173C337.214 30.5052 335.564 29.736 333.757 29.736C330.098 29.736 327.138 32.7895 327.138 36.5655C327.138 37.288 327.251 37.964 327.432 38.6166C326.89 38.5001 326.325 38.4535 325.76 38.4535C321.016 38.4535 317.198 42.4159 317.198 47.2874C317.198 47.334 317.198 47.404 317.198 47.4506C316.34 47.1476 315.436 46.9844 314.465 46.9844C309.856 46.9611 306.084 50.8537 306.084 55.6552Z" stroke="white" stroke-miterlimit="10" stroke-linejoin="round"/>
        </g>
    </g>
    <defs>
        <clipPath>
            <rect width="463.334" height="474.279" fill="white" transform="translate(0.572754 162.349)"/>
        </clipPath>
    </defs>
</svg>