<svg xmlns="http://www.w3.org/2000/svg" width="457" height="503" viewBox="0 0 457 503" fill="none"
    <g>
        <path d="M296.164 118.292C290.999 126.828 284.203 134.296 276.184 140.564C268.165 146.699 258.922 151.367 249 154.167C239.078 156.968 228.476 157.768 218.147 156.301C207.817 154.967 197.895 151.233 189.06 145.899C180.361 140.564 172.614 133.362 166.769 125.094C163.779 120.96 161.332 116.559 159.294 111.891C157.255 107.357 155.624 102.556 154.401 97.6212C149.508 78.1502 152.362 56.9454 162.692 39.4749C167.857 30.6729 174.653 22.8045 182.944 16.6698C191.235 10.5351 200.749 5.86737 210.807 3.33347C220.865 0.799575 231.467 0.266122 241.796 1.73312C252.126 3.20011 262.184 6.80091 271.155 12.0021C280.126 17.3366 288.009 24.4048 293.989 32.6734C300.106 40.9419 304.319 50.544 306.358 60.4129C308.533 70.2818 308.668 80.5507 306.766 90.4196C304.999 100.288 301.465 109.757 296.164 118.292ZM295.756 118.026C298.339 113.758 300.513 109.357 302.144 104.689C303.775 100.022 304.863 95.2206 305.406 90.2862C306.494 80.5507 305.678 70.6818 302.96 61.3464C297.523 42.809 284.883 26.5387 268.165 16.9365C251.583 7.06764 230.923 3.73356 212.03 8.26791C202.516 10.5351 193.545 14.536 185.526 20.1372C177.507 25.7385 170.575 32.8067 165.274 41.0752C159.973 49.2104 156.168 58.4124 154.672 68.1479C153.041 77.7501 153.585 87.7523 156.032 97.2211C157.255 101.889 159.022 106.557 161.197 110.957C163.371 115.358 166.09 119.493 169.08 123.227C175.196 130.829 182.808 137.23 191.235 142.031C199.662 146.832 209.04 150.033 218.69 151.633C221.137 152.033 223.583 152.3 226.03 152.433C228.476 152.567 230.923 152.7 233.369 152.567C238.263 152.433 243.156 151.9 248.049 150.966C257.699 148.966 266.941 145.098 275.232 139.497C279.31 136.697 283.116 133.496 286.514 129.895C290.048 126.161 293.038 122.16 295.756 118.026Z" fill="white"/>
        <path d="M246.559 119.628H213.666C212.171 119.628 210.812 119.628 209.996 119.495C209.045 119.362 207.958 119.095 206.734 118.695C205.511 118.295 204.424 117.628 203.608 116.694C201.705 114.827 200.754 112.427 200.754 109.359C200.754 107.359 201.162 105.492 202.113 103.892C202.929 102.291 204.288 100.557 206.055 98.557L231.2 70.284C233.51 67.6167 235.141 65.4829 236.093 63.6158C237.044 61.7488 237.588 59.615 237.588 57.3478C237.588 55.0806 236.908 53.3469 235.413 51.8799C234.054 50.4129 232.015 49.7461 229.433 49.7461C227.122 49.7461 225.355 50.2795 224.132 51.2131C222.909 52.1466 221.685 53.8803 220.462 56.1475C219.239 58.2813 218.016 59.8817 216.385 60.9486C215.025 61.8821 213.258 62.4156 210.812 62.4156C207.686 62.4156 205.239 61.3487 203.472 59.3482C201.841 57.4811 201.026 55.0806 201.026 52.1466C201.026 49.4794 201.705 46.8121 203.2 44.1448C204.696 41.4776 206.598 39.3438 208.909 37.4767C211.627 35.4762 214.618 33.8759 217.744 32.9423C220.87 32.0088 224.54 31.4753 228.889 31.4753C237.724 31.4753 244.928 33.6092 250.092 38.0101C255.393 42.4111 257.976 48.6792 257.976 56.681C257.976 59.3482 257.704 61.7488 257.16 64.0159C256.617 66.1497 255.665 68.4169 254.306 70.5507C252.947 72.6845 251.588 74.685 250.228 76.2853C248.869 77.8857 246.966 80.1529 244.52 82.8201L227.394 101.491H246.423C248.733 101.491 250.364 101.491 251.452 101.624C252.539 101.758 253.49 102.024 254.442 102.558C255.801 103.225 256.888 104.292 257.704 105.759C258.519 107.226 258.927 108.826 258.927 110.56C258.927 112.427 258.519 114.027 257.704 115.361C256.888 116.828 255.801 117.895 254.442 118.561C253.49 119.095 252.539 119.362 251.452 119.495C250.636 119.628 248.869 119.628 246.559 119.628Z" fill="white"/>
    </g>
    <g>
        <path d="M266.599 144.866C231.354 145.865 195.967 146.436 160.723 147.721C135.038 148.72 109.212 150.005 83.9554 154.858C56.4163 160.14 29.8759 170.989 19.3169 199.111C13.6093 214.242 12.1824 230.658 10.7555 246.504C8.90052 267.916 7.33093 289.471 6.90286 311.027C5.90404 358.705 10.6128 413.378 44.1449 450.351C57.7005 465.197 75.6794 476.617 95.2279 481.327C111.209 485.182 127.619 486.895 144.028 488.179C190.117 492.034 236.776 492.034 282.865 489.464C321.82 487.323 363.628 485.182 400.727 472.049C413.284 467.623 422.844 461.342 429.979 449.922C441.394 431.508 445.96 409.096 448.814 387.969C456.376 332.154 452.095 271.485 433.831 217.954C426.697 196.969 415.995 179.411 396.304 168.277C374.615 156 348.645 152.289 324.103 150.147C308.264 148.72 292.425 148.149 276.444 147.721C275.017 147.721 272.021 149.719 274.732 149.719C304.411 150.433 334.804 151.289 363.628 158.712C384.318 163.994 404.152 173.701 416.851 191.688C431.12 211.958 436.685 239.652 441.108 263.634C446.245 291.184 448.386 319.449 447.815 347.571C447.387 372.837 444.818 398.532 437.684 422.8C433.26 437.931 426.554 456.203 412.285 464.911C400.156 472.334 385.031 475.332 371.333 477.901C351.499 481.756 331.237 484.04 311.118 485.61C265.885 489.321 220.367 490.035 174.992 487.894C155.871 487.037 136.751 485.61 117.773 482.898C103.219 480.756 89.3777 477.759 76.2502 470.764C30.8748 446.496 15.1789 395.249 11.6116 347.142C9.89935 323.731 10.7555 300.178 12.3251 276.767C13.752 258.637 14.7508 240.365 17.6046 222.236C19.6023 209.246 22.7414 195.97 30.304 184.978C37.8666 173.844 49.4245 166.849 61.9812 162.424C81.5297 155.429 102.933 153.288 123.481 151.718C154.872 149.291 186.264 149.005 217.656 148.149C233.494 147.721 249.19 147.292 264.886 146.864C266.171 146.864 269.31 144.866 266.599 144.866Z" fill="white"/>
        <path d="M278.584 146.864C303.412 146.436 328.383 146.008 353.068 148.435C369.763 150.148 386.886 153.288 401.868 161.425C431.12 177.27 441.536 209.531 447.101 240.365C455.092 285.332 454.664 332.867 445.532 377.548C441.964 394.964 436.257 411.38 429.55 427.796C425.84 436.647 421.845 445.354 416.28 453.206C390.881 489.321 344.65 499.028 303.27 500.884C301.985 500.884 298.846 503.025 301.557 502.883C339.37 501.17 381.036 493.604 409.003 466.053C426.126 449.209 435.829 425.084 442.963 402.529C457.517 356.564 459.658 305.888 453.95 258.209C450.098 225.234 442.963 186.691 414.568 165.565C400.013 154.716 381.892 150.005 364.198 147.578C336.516 143.724 308.121 144.438 280.297 144.866C279.012 144.866 275.873 147.007 278.584 146.864Z" fill="white"/>
        <path d="M263.174 147.721C210.236 146.722 156.442 143.153 103.646 148.006C71.5411 151.004 32.016 158.57 15.0359 189.832C8.32943 202.109 6.61715 216.241 5.04756 229.945C3.0499 246.789 2.05107 263.919 1.48031 280.906C0.0534154 321.162 0.909555 362.274 7.90136 402.101C12.7528 429.224 25.1668 480.185 63.6931 468.623C66.1189 467.909 65.6908 466.196 63.2651 466.91C47.1411 471.763 32.7294 459.915 25.7376 446.354C19.0312 433.506 15.4639 418.946 12.7528 404.813C5.76101 367.984 4.61949 329.87 5.19025 292.469C5.61832 275.054 6.47446 257.638 8.04405 240.223C9.18557 228.232 10.3271 215.813 13.4663 203.964C23.3119 166.707 60.4113 155.001 94.7995 150.861C120.198 147.864 145.883 147.864 171.424 148.149C201.532 148.435 231.496 149.148 261.604 149.719C262.888 149.862 266.027 147.864 263.174 147.721Z" fill="white"/>
    </g>
    
    <defs>
        <clipPath>
            <rect width="156.035" height="156.035" fill="white" transform="translate(152.095 0.935181)"/>
        </clipPath>
        <clipPath>
            <rect width="456.037" height="358.445" fill="white" transform="translate(0.909668 144.438)"/>
        </clipPath>
        <clipPath>
            <rect width="98.6427" height="82.5012" fill="white" transform="translate(46.2788 20.6637)"/>
        </clipPath>
    </defs>
</svg>