<svg class="item__social-icon" xmlns="http://www.w3.org/2000/svg" width="457" height="503" viewBox="0 0 457 503" fill="none" data-depth="0.2">
    
    
    <g>
        <g>
            <path fill-rule="evenodd" clip-rule="evenodd" d="M66.7421 49.9023L68.4233 49.3583C68.4233 49.3583 68.9254 49.1407 69.0783 48.7707C69.2311 48.4443 69.0783 47.9655 69.0783 47.9655C69.0783 47.9655 68.3141 45.724 69.2748 45.0493C70.2136 44.3965 72.3314 46.4856 74.0563 46.9862C75.3663 47.3779 76.1086 46.9644 76.1086 46.9644L79.8639 45.7022C79.8639 45.7022 81.8071 44.9623 80.3661 43.7001C80.2569 43.5913 79.4491 42.7208 76.5234 41.3497C73.4668 39.9134 73.8816 40.1746 75.5191 35.4739C76.5234 32.623 76.7636 30.9908 76.3488 30.4685C75.9558 29.968 74.7331 30.5121 74.7331 30.5121L70.4974 31.8831C70.4974 31.8831 70.1699 31.9484 69.9734 32.1442C69.7988 32.3619 69.7551 32.7101 69.7551 32.7101C69.7551 32.7101 69.6459 34.7122 69.2529 36.4967C68.3796 40.3051 67.6809 40.6969 67.3098 40.6098C66.4364 40.3704 66.1744 38.9123 65.847 37.933C64.8645 34.8428 64.9081 33.3847 63.4235 33.4935C62.9213 33.537 62.572 33.5588 61.3711 33.9288C59.8428 34.3858 58.5765 34.821 57.9651 35.4086C57.5503 35.8003 57.3538 36.4314 57.594 36.4097C57.8778 36.3661 58.5546 36.2791 59.0568 36.6491C59.69 37.1061 60.083 38.4336 60.083 38.4336C60.083 38.4336 61.5021 42.0026 60.8035 42.7208C60.3231 43.2213 59.3406 42.8296 56.7206 40.4575C55.3888 39.2388 54.2098 37.8025 54.2098 37.8025C54.2098 37.8025 53.9915 37.5413 53.7076 37.4325C53.3801 37.3237 52.9653 37.3672 52.9653 37.3672L48.948 38.673C48.948 38.673 48.3585 38.8906 48.2057 39.217C48.0747 39.5217 48.424 39.9352 48.424 39.9352C48.424 39.9352 53.9478 46.2898 58.7075 48.8577C63.096 51.2951 66.7421 49.9023 66.7421 49.9023Z" fill="white"/></g>
        
        
        
    </g>
    <defs>
        <clipPath>
            <rect width="156.035" height="156.035" fill="white" transform="translate(152.095 0.935181)"/>
        </clipPath>
        <clipPath>
            <rect width="456.037" height="358.445" fill="white" transform="translate(0.909668 144.438)"/>
        </clipPath>
        <clipPath>
            <rect width="98.6427" height="82.5012" fill="white" transform="translate(46.2788 20.6637)"/>
        </clipPath>
    </defs>
</svg>