<svg xmlns="http://www.w3.org/2000/svg" width="464" height="637" viewBox="0 0 464 637" fill="none">
    <g>
        <path d="M272.439 168.081C307.981 168.797 345.816 168.94 379.781 180.547C405.291 189.287 423.062 206.195 431.947 231.7C448.572 279.558 455.021 333.577 451.581 383.87C449.718 409.662 444.989 436.313 432.664 459.239C426.931 469.842 419.479 479.586 410.02 487.18C396.549 497.783 379.781 502.225 363.3 506.38C328.761 514.834 289.637 518.416 255.241 507.097C247.073 504.374 237.757 500.792 232.168 493.914C229.875 491.049 227.009 482.308 233.028 482.308C239.62 482.308 247.216 492.911 250.512 497.497C257.104 506.953 261.404 518.13 262.264 529.593C265.56 568.137 231.595 599.66 198.919 613.559C194.476 615.421 190.034 617.141 185.448 618.43C184.731 618.574 182.438 620.15 184.444 620.293C196.339 621.439 208.521 624.162 219.556 628.604C223.856 630.323 227.725 632.616 231.738 634.908C232.598 635.482 233.314 636.198 234.461 636.341C236.037 636.628 237.9 635.911 238.33 634.479C238.904 632.759 236.754 629.75 236.037 628.317C234.031 624.162 231.595 620.15 229.302 616.138C223.282 605.821 217.12 595.791 211.101 585.474C208.378 580.889 205.655 576.304 203.362 571.432C202.645 570 202.072 568.28 201.355 566.847C200.639 565.414 201.642 564.555 200.352 565.271C199.349 565.414 198.202 565.414 197.199 565.558C198.059 566.847 197.056 571.576 196.913 573.152C196.339 578.31 195.336 583.325 193.903 588.34C189.604 603.242 181.291 616.711 168.393 625.595C166.53 626.884 170.686 626.741 171.689 626.025C184.874 616.854 193.616 602.955 198.059 587.624C199.636 582.036 200.782 576.304 201.355 570.573C201.499 568.997 202.215 565.271 201.212 563.838C200.639 563.122 198.632 563.838 198.059 564.125C193.043 566.704 214.684 598.943 216.833 602.382C221.993 610.98 227.295 619.433 231.738 628.317C232.168 629.177 233.744 634.335 234.318 634.765C235.177 635.195 236.897 634.335 236.611 633.619C236.324 632.759 233.458 631.47 232.598 631.04C229.445 629.177 226.292 627.744 222.996 626.311C211.674 621.726 199.206 619.004 187.167 617.857C186.881 618.43 186.451 619.147 186.164 619.72C218.266 610.55 251.515 587.194 263.124 554.811C271.579 531.169 265.13 502.655 246.069 485.747C242.057 482.165 235.894 477.723 230.305 480.159C225.289 482.451 224.286 488.04 226.722 492.482C230.878 499.789 240.337 503.944 247.789 506.81C261.404 511.968 276.165 514.261 290.64 515.121C311.277 516.267 332.058 514.261 352.408 510.106C370.322 506.524 389.813 502.225 405.578 492.482C427.935 478.869 440.976 455.084 447.999 430.438C456.454 401.208 457.744 369.971 456.311 339.595C454.878 310.221 450.578 280.847 443.126 252.333C436.677 227.401 428.221 203.043 405.434 188.427C376.915 171.09 340.227 168.797 307.838 167.221C296.659 166.648 285.337 166.361 274.159 166.075C272.726 166.075 269.716 168.081 272.439 168.081Z" fill="white"/>
        <path d="M277.169 164.928C305.545 164.212 334.208 163.495 362.441 166.934C381.072 169.227 400.132 173.812 415.18 185.418C442.41 206.338 450.436 243.449 455.308 275.545C462.044 319.248 462.331 366.246 449.719 408.945C443.987 428.719 434.958 448.062 420.483 462.821C408.731 474.714 393.827 481.018 377.919 485.604C327.472 500.219 272.726 501.652 220.703 500.362C185.592 499.502 150.623 496.493 115.798 491.765C99.1733 489.472 81.9756 487.753 65.7812 483.454C58.3289 481.448 51.3065 477.866 45.2873 473.138C18.0577 451.358 10.462 411.095 6.87917 378.425C2.86638 340.454 4.29952 301.767 8.88556 263.939C10.3187 251.76 12.0385 239.437 14.9047 227.401C19.3475 208.201 30.6693 192.726 48.0103 183.412C69.364 171.949 94.8739 169.227 118.664 167.794C147.757 166.074 176.849 166.791 205.942 167.221C223.14 167.507 240.337 167.651 257.535 167.937C258.968 167.937 261.978 165.931 259.255 165.931C224.86 165.358 190.321 164.498 155.926 164.642C129.842 164.642 103.186 165.358 77.3896 171.089C58.6155 175.245 39.5547 182.552 26.3699 197.024C15.478 208.917 11.3219 223.962 8.45562 239.58C2.14981 274.972 -0.286528 311.224 0.716669 347.189C1.71987 384.443 5.44603 427.143 26.9431 458.809C35.6853 471.705 48.1536 481.735 63.4882 485.604C80.1126 489.759 97.5969 491.622 114.508 493.914C133.139 496.493 151.913 498.499 170.544 499.932C230.019 504.517 291.214 504.804 350.116 493.914C368.03 490.619 386.374 486.177 402.999 478.153C418.62 470.558 430.515 457.806 439.257 443.047C462.331 404.073 465.627 354.496 463.191 310.221C461.901 288.441 459.035 266.662 453.732 245.455C449.719 229.694 444.56 214.219 435.101 200.75C410.881 166.218 366.167 163.352 327.616 162.492C311.421 162.206 295.083 162.492 278.889 162.779C277.599 162.779 274.446 164.928 277.169 164.928Z" fill="white"/>
        <path d="M130.415 506.38C125.399 507.813 118.95 505.95 114.077 504.804C106.625 503.085 99.316 500.792 92.2936 498.07C80.8285 493.771 70.0799 488.183 60.6212 480.445C43.9968 467.12 32.5317 448.922 25.366 429.006C10.748 388.599 12.1811 344.037 14.9041 301.91C16.0506 284.859 17.0538 267.665 19.0602 250.614C20.4933 238.148 22.643 225.395 27.5157 213.789C38.5509 187.998 64.634 178.97 90.4305 174.529C115.94 170.087 142.167 168.94 168.107 168.081C199.492 167.078 231.021 166.361 262.55 165.502C263.984 165.502 266.993 163.352 264.27 163.496C234.318 164.355 204.508 165.072 174.556 165.931C149.189 166.648 123.679 167.794 98.4561 171.52C72.6596 175.388 42.5637 182.123 27.9457 205.908C12.4678 230.41 13.3276 264.083 11.4646 291.88C8.45497 335.869 5.73201 381.864 19.3468 424.564C26.7991 448.063 40.1273 469.842 60.1913 484.744C71.2264 492.911 83.8381 498.5 96.8796 502.798C106.912 506.094 120.383 511.109 130.988 508.243C133.425 507.383 132.995 505.664 130.415 506.38Z" fill="white"/>
    </g>
    <path d="M266.226 22.0307C275.627 26.8154 284.173 33.2889 291.437 41.029C298.559 48.769 304.257 58.0571 307.96 68.1895C311.664 78.1812 313.231 89.158 312.376 99.8534C311.664 110.549 308.53 121.103 303.402 130.673C298.274 140.102 291.153 148.545 282.749 155.16C278.618 158.537 274.06 161.492 269.359 163.885C264.659 166.418 259.674 168.388 254.546 169.936C234.177 176.269 211.387 174.862 192.015 165.573C182.329 160.929 173.498 154.456 166.376 146.434C158.969 138.413 153.414 128.843 149.996 118.57C146.577 108.297 145.153 97.461 145.865 86.6249C146.72 75.7888 149.853 65.2342 154.839 55.524C159.966 45.9545 166.803 37.2293 175.35 30.4743C183.754 23.5787 193.724 18.5124 204.122 15.5572C214.52 12.6019 225.488 11.7575 236.029 12.8833C246.427 14.1499 256.825 17.2459 266.226 22.0307ZM265.941 22.4528C261.24 20.0605 256.255 18.231 251.27 16.8237C246.142 15.5572 241.014 14.5721 235.744 14.4313C225.346 14.0091 214.805 15.5572 205.12 19.0754C185.748 26.1118 169.367 40.1846 160.251 58.1978C150.993 76.0703 148.999 97.6017 155.124 116.881C158.257 126.451 163.1 135.598 169.652 143.479C176.204 151.36 184.181 157.974 193.44 162.9C202.556 167.684 212.669 170.921 223.067 171.765C233.465 172.751 244.005 171.484 253.976 168.247C258.961 166.559 263.662 164.448 268.22 161.915C272.636 159.241 276.909 156.285 280.755 152.767C288.446 145.871 294.714 137.569 299.272 128.421C303.83 119.415 306.536 109.423 307.533 99.4312C307.818 96.8981 307.818 94.365 307.818 91.8319C307.818 89.2987 307.675 86.7656 307.533 84.2325C306.963 79.1663 306.109 74.1001 304.684 69.1746C301.835 59.3236 296.993 50.0356 290.44 41.8733C287.164 37.7922 283.461 34.1333 279.33 30.8965C275.057 27.6598 270.641 24.8452 265.941 22.4528Z" fill="white"/>
    <path d="M248.707 88.1745C250.702 89.5818 252.411 90.9891 253.835 92.5371C255.26 94.0851 256.541 96.196 257.681 99.1513C258.821 102.107 259.39 105.343 259.39 109.002C259.39 114.913 258.108 119.979 255.402 124.201C252.696 128.423 249.135 131.519 244.577 133.63C240.019 135.741 234.891 136.726 229.051 136.726C223.923 136.726 219.65 136.304 216.231 135.318C212.813 134.333 209.537 132.645 206.545 130.252C201.703 126.312 199.139 121.527 199.139 115.898C199.139 112.802 199.993 110.269 201.845 108.439C203.839 106.328 206.545 105.203 209.679 105.203C212.528 105.203 214.664 105.906 216.374 107.314C217.656 108.299 218.938 110.269 220.504 113.083C221.359 114.631 222.356 115.757 223.496 116.461C224.635 117.165 226.487 117.587 228.908 117.587C231.472 117.587 233.751 116.742 235.461 115.054C237.17 113.365 238.024 110.972 238.024 107.736C238.024 104.921 237.17 102.67 235.461 100.84C233.751 99.1513 231.33 98.1662 228.481 97.8848C226.06 97.744 224.208 97.3218 222.784 96.6182C219.792 95.0702 218.225 92.3964 218.225 88.5967C218.225 84.797 219.792 82.1232 222.784 80.5752C224.065 79.8715 225.917 79.4493 228.481 79.3086C231.187 79.1679 233.324 78.3235 235.033 76.7755C236.743 75.3682 237.597 73.2573 237.597 70.5835C237.597 67.7689 236.743 65.658 235.176 64.11C233.609 62.5619 231.472 61.8583 228.908 61.8583C226.914 61.8583 225.49 62.2805 224.35 62.9841C223.211 63.6878 222.214 64.8136 221.502 66.2209C219.935 69.0355 218.653 70.8649 217.513 71.85C215.946 73.2573 213.81 73.8202 211.104 73.8202C208.112 73.8202 205.691 72.8351 203.697 71.0056C201.703 69.0354 200.705 66.6431 200.705 63.547C200.705 60.7325 201.418 57.9179 202.985 55.2441C204.266 52.9924 205.976 51.0222 207.97 49.4742C213.24 45.1116 220.362 42.86 229.051 42.86C237.74 42.86 244.862 45.2524 250.559 49.8964C256.257 54.5404 259.105 61.1547 259.105 69.4576C259.105 71.9907 258.821 74.3831 258.251 76.494C257.681 78.605 256.826 80.4344 255.687 81.8417C254.547 83.249 253.55 84.5156 252.411 85.5007C251.414 86.4858 250.132 87.3301 248.707 88.1745Z" fill="white"/>
    
    <defs>
        <clipPath>
            <rect width="463.334" height="474.279" fill="white" transform="translate(0.572754 162.349)"/>
        </clipPath>
    </defs>
</svg>