<svg height="100%" viewBox="0 0 57 408" xmlns="http://www.w3.org/2000/svg">
<path d="M53.8283 0.31205C44.7023 2.09695 35.0896 4.00083 26.937 8.87955C18.6628 13.7583 13.3089 21.3738 10.0235 30.0603C4.30458 44.8154 3.08778 61.2365 2.3577 76.8246C1.74931 90.2708 1.50595 103.836 1.38427 117.282C0.654187 153.575 0.410828 189.749 0.410828 225.923C0.410828 245.914 0.654187 265.904 0.897547 286.014C1.01923 295.534 1.26259 305.172 1.50595 314.692C1.74931 324.449 1.87099 334.325 2.9661 343.964C5.64306 368.714 15.7425 396.797 41.9036 405.959C43.8505 406.673 45.9191 407.268 47.866 407.625C49.3261 407.982 51.5163 406.911 49.0828 406.435C23.7734 400.843 11.7271 375.735 7.8333 352.769C4.54794 334.087 5.15634 314.573 4.7913 295.534C4.42626 276.257 4.1829 256.98 4.1829 237.703C4.06122 201.291 4.30458 164.879 4.7913 128.349C4.91298 115.616 5.15634 102.765 5.52138 89.9138C6.0081 73.3738 6.6165 56.5957 10.5103 40.5317C12.9438 30.6553 16.8376 20.6599 24.7468 13.7583C31.4392 7.9276 40.2001 5.19076 48.7177 3.16788C51.1513 2.57292 53.7066 2.09695 56.1402 1.62097C58.0871 1.38299 54.68 0.193057 53.8283 0.31205Z" />
</svg>
