<svg  height="100%" width="72px" viewBox="0 0 72 453" xmlns="http://www.w3.org/2000/svg">
<path d="M2.95679 452.951C17.7893 451.247 31.3091 444.824 35.2469 429.487C36.6908 423.588 38.0034 415.723 34.5906 410.348C32.6217 407.202 28.8152 405.629 25.2711 406.416C20.152 407.595 18.3143 413.232 18.0518 417.82C18.9706 417.689 19.7582 417.558 20.677 417.427C15.9516 416.247 6.36957 414.936 5.18823 421.753C3.87562 429.225 13.9827 434.73 19.6269 436.959C26.3212 439.581 33.9343 440.76 41.0224 439.318C49.8169 437.483 55.0673 431.191 58.4801 423.195C64.7806 408.644 67.1433 392.783 68.4559 377.052C70.4248 353.85 71.0811 330.517 71.6062 307.184C72.6563 261.172 72 215.292 70.9499 169.281C70.5561 151.191 70.0311 133.101 69.3748 115.011C68.981 101.64 68.8497 88.0075 67.6684 74.6367C65.962 57.0711 62.1554 38.4569 51.392 24.1685C43.2539 13.4195 31.7029 6.60297 19.1019 2.67039C15.8204 1.6217 12.4076 0.835182 9.12605 0.179751C6.76336 -0.344593 6.50083 1.22844 8.86353 1.75278C21.3333 4.37451 33.278 9.09361 42.4663 18.1386C53.4922 29.0187 58.8739 44.2247 61.7616 59.1685C64.2556 73.588 64.5181 88.1385 65.0431 102.689C65.5682 117.502 65.962 132.183 66.487 146.996C67.6684 188.551 68.3247 230.236 68.0621 271.79C67.9309 293.419 67.5371 315.049 66.6183 336.678C65.8307 356.21 65.4369 375.873 62.2867 395.142C61.1053 401.959 59.6615 408.775 57.2988 415.33C54.8048 422.67 51.6545 430.929 44.6977 435.124C37.8722 439.318 29.3402 438.663 22.1209 436.041C17.3955 434.337 4.9257 427.389 9.65109 420.442C11.7513 417.427 16.0829 417.951 19.2331 418.738C19.6269 418.869 21.7271 419.262 21.8583 418.345C22.1209 415.461 23.8273 407.464 28.1589 407.858C29.734 407.989 31.0466 410.479 31.5716 411.79C32.753 414.805 32.8843 418.082 32.6217 421.228C32.0967 428.176 30.1278 435.386 25.4024 440.629C19.2331 447.446 10.0449 450.198 1.11914 451.247C-1.24355 451.509 1.77545 453.082 2.95679 452.951Z"/>
</svg>
