<svg width="268" height="171" viewBox="0 0 268 171" fill="none" xmlns="http://www.w3.org/2000/svg">
<g clip-path="url(#clip0)">
<path d="M226.592 130.94C186.839 130.94 147.252 130.94 107.499 130.94C88.2849 130.94 69.2367 130.94 50.0229 130.94C49.0291 130.94 46.3789 131.437 45.5507 130.94C46.5445 131.602 45.882 129.45 46.0476 127.96C47.0414 118.359 46.0476 108.096 46.0476 98.4947C46.0476 76.3127 46.0476 53.9652 46.0476 31.7832C44.7225 32.2798 43.3974 32.9419 42.0723 33.4385C81.8251 33.4385 121.412 33.4385 161.165 33.4385C180.379 33.4385 199.427 33.4385 218.641 33.4385C219.635 33.4385 222.285 32.9419 223.113 33.4385C222.119 32.7764 222.782 34.9284 222.616 36.4182C221.622 46.0194 222.616 56.2827 222.616 65.8838C222.616 88.0658 222.616 110.413 222.616 132.595C222.616 133.423 227.42 132.761 227.42 131.271C227.42 98.1636 227.42 64.8906 227.42 31.7832C227.42 31.4521 226.757 31.4521 226.592 31.4521C173.753 31.4521 120.75 31.4521 67.9116 31.4521C60.2924 31.4521 52.8387 31.4521 45.2194 31.4521C44.3912 31.4521 41.2441 31.7832 41.2441 33.1075C41.2441 66.2149 41.2441 99.4879 41.2441 132.595C41.2441 132.926 41.9067 132.926 42.0723 132.926C94.9104 132.926 147.914 132.926 200.752 132.926C208.371 132.926 215.825 132.926 223.444 132.926C224.438 132.926 228.91 130.94 226.592 130.94Z" fill="white"/>
<path d="M43.7285 32.7764C51.5134 36.7493 59.1327 41.0532 66.752 45.3572C74.3713 49.6612 81.8249 54.1307 89.2786 58.9313C96.5666 63.7318 103.855 68.5324 111.308 73.333C118.762 77.968 126.216 82.4375 134 86.576H133.172C140.626 81.9409 148.245 77.1404 155.864 72.6709C163.484 68.2013 171.103 63.5663 178.888 59.0968C186.673 54.7928 194.292 50.3233 202.243 46.1849C210.028 42.0465 217.978 37.7425 225.929 33.7696L226.094 34.1007C218.641 39.0668 211.187 43.7018 203.568 48.5024C195.949 53.1375 188.329 57.7725 180.71 62.242C173.091 66.7115 165.306 71.0155 157.521 75.3194C149.736 79.6234 141.951 83.9274 134.166 88.0658C133.835 88.2314 133.504 88.2314 133.338 88.0658C126.05 83.2652 118.596 78.6302 111.143 74.1607C103.523 69.6912 95.904 65.5527 88.2848 61.2488C80.6655 56.9448 73.2118 52.3098 65.9238 47.5092C58.4702 42.8741 51.1822 37.908 44.0598 32.9419L43.7285 32.7764Z" fill="white"/>
<path d="M43.8936 130.774C50.0221 126.305 56.4819 122.167 62.7761 118.028C69.236 113.89 75.6958 110.082 82.1556 106.109C88.7811 102.302 95.2409 98.4947 102.032 94.8529C108.657 91.211 115.449 87.7348 122.24 84.424C116.111 88.8935 109.651 93.0319 103.357 97.1704C96.8973 101.309 90.4374 105.116 83.9776 109.089C77.3521 112.896 70.8923 116.704 64.1012 120.346C57.6414 123.987 50.8503 127.464 43.8936 130.774Z" fill="white"/>
<path d="M223.444 130.774C216.653 127.464 210.193 123.987 203.733 120.346C197.273 116.704 190.813 112.896 184.519 109.089C178.225 105.282 171.931 101.309 165.637 97.1704C159.342 93.0319 153.214 88.8935 147.251 84.424C154.042 87.7348 160.502 91.211 166.962 94.8529C173.422 98.4947 179.881 102.302 186.176 106.109C192.47 109.917 198.764 113.89 205.058 118.028C211.352 122.167 217.481 126.305 223.444 130.774Z" fill="white"/>
<path d="M171.434 18.3746C174.25 12.4153 176.403 6.12485 179.384 0.165512C179.716 -0.3311 175.244 -0.165563 174.581 0.993198C171.6 6.95254 169.446 13.0774 166.63 19.2023C166.465 19.8644 170.937 19.6989 171.434 18.3746Z" fill="white"/>
<path d="M200.751 23.3407C202.408 20.1955 206.052 17.878 208.868 15.726C211.518 13.7396 214.334 11.5876 216.156 8.939C217.481 6.95255 212.677 7.11809 211.683 8.60793C207.708 14.4017 199.592 16.5537 196.279 23.0097C195.12 25.1617 199.923 24.9961 200.751 23.3407Z" fill="white"/>
<path d="M240.505 32.2798C244.811 28.6379 249.615 26.3204 254.915 24.4995C255.578 24.334 256.737 23.5063 256.24 22.6786C255.578 21.8509 253.756 22.3475 253.093 22.6786C247.13 24.6651 241.499 27.4792 236.695 31.6176C234.707 33.4385 239.345 33.273 240.505 32.2798Z" fill="white"/>
<path d="M246.633 83.0997C252.761 83.7619 258.724 82.4376 264.853 83.5963C267.172 84.093 269.656 80.7822 266.509 80.2856C260.381 79.1268 254.418 80.6167 248.289 79.789C245.97 79.2924 243.32 82.6031 246.633 83.0997Z" fill="white"/>
<path d="M240.835 54.7929C243.486 55.455 246.301 55.2895 249.117 54.9584C251.933 54.6273 255.411 53.6341 258.062 54.7929C259.884 55.455 263.693 52.9719 260.877 51.8132C255.411 49.4957 249.283 53.1375 243.651 51.8132C241.995 51.4821 238.02 54.1307 240.835 54.7929Z" fill="white"/>
<path d="M137.81 21.1888C137.976 15.5605 139.135 10.0978 139.135 4.46954C139.135 3.97293 135.491 4.46954 135.491 5.46277C135.491 11.091 134.332 16.5538 134.166 22.182C134.166 22.6786 137.81 22.182 137.81 21.1888Z" fill="white"/>
<path d="M114.952 19.8645C113.461 13.7396 111.804 7.78023 110.811 1.65535C110.645 0.993203 107.001 1.82089 107.167 2.64858C108.16 8.77346 109.982 14.7328 111.308 20.8577C111.473 21.5198 115.117 20.5266 114.952 19.8645Z" fill="white"/>
<path d="M81.4933 21.6854C79.1744 16.8848 77.3524 11.9187 74.3709 7.44917C73.874 6.62149 70.3957 7.78025 71.0582 8.77347C74.0397 13.0774 75.696 18.0436 78.0149 22.5131C78.3462 23.6718 81.8246 22.5131 81.4933 21.6854Z" fill="white"/>
<path d="M45.2191 23.6719C39.4219 20.8577 36.2748 14.4018 30.8088 11.091C29.8149 10.4289 26.5022 11.9187 27.9929 12.7464C33.6246 16.0572 36.606 22.3476 42.4033 25.3272C43.3971 25.8239 46.7099 24.334 45.2191 23.6719Z" fill="white"/>
<path d="M29.8151 50.3233C23.1897 49.9923 17.3924 46.0194 10.7669 45.6883C9.11054 45.6883 5.63217 48.0058 8.77927 48.1714C15.4047 48.5024 21.202 52.4753 27.8275 52.8064C29.4838 52.8064 32.9622 50.3233 29.8151 50.3233Z" fill="white"/>
<path d="M25.8399 75.1539C17.7237 75.8161 9.9388 73.6641 1.82261 75.8161C-1.15885 76.6437 -0.33067 79.4579 2.65079 78.6302C10.1044 76.6437 17.7237 78.9613 25.343 78.2991C27.8275 77.968 29.1526 74.8228 25.8399 75.1539Z" fill="white"/>
<path d="M24.3489 100.978C17.7234 103.626 10.7667 104.785 4.63815 108.427C2.98179 109.42 3.64433 110.579 5.3007 110.744C7.61961 111.076 10.2698 110.082 12.0918 108.924C16.7296 106.109 22.6925 105.447 27.8273 103.461C28.8211 103.13 31.8026 101.971 30.6431 100.481C29.4836 99.3224 25.3427 100.647 24.3489 100.978Z" fill="white"/>
<path d="M29.4836 126.47C24.0176 130.774 17.3921 134.251 13.2512 139.879C11.4292 142.362 16.067 142.859 17.2265 141.203C21.2018 135.906 27.4959 132.595 32.6307 128.457C35.2809 126.47 31.3056 124.981 29.4836 126.47Z" fill="white"/>
<path d="M55.3231 145.507C52.5073 150.639 50.0227 156.267 47.8695 161.895C47.5382 162.889 52.176 162.392 52.6729 161.068C54.8262 155.605 57.3107 149.977 60.1266 144.68C60.6235 144.017 55.9857 144.349 55.3231 145.507Z" fill="white"/>
<path d="M88.119 144.183C88.119 153.122 87.2909 161.895 86.7939 170.669C86.7939 171.166 90.2723 170.669 90.4379 169.676C90.9348 160.902 91.763 151.963 91.763 143.19C91.763 142.859 88.119 143.355 88.119 144.183Z" fill="white"/>
<path d="M126.712 145.673C127.54 151.963 125.884 158.419 126.215 164.71C126.215 166.034 129.859 165.372 129.859 163.716C129.528 157.26 131.184 150.97 130.356 144.68C130.191 143.19 126.547 144.183 126.712 145.673Z" fill="white"/>
<path d="M165.47 147.99C168.452 153.619 167.789 160.406 170.605 166.199C170.936 167.027 174.415 165.703 174.249 165.206C171.433 159.412 172.096 152.625 169.114 146.997C168.618 146.169 165.139 147.494 165.47 147.99Z" fill="white"/>
<path d="M208.536 145.342C214.996 151.301 217.315 159.909 224.437 165.372C225.431 166.034 228.578 164.71 227.75 164.047C220.793 158.585 218.309 149.977 211.849 144.017C211.021 143.19 207.708 144.68 208.536 145.342Z" fill="white"/>
<path d="M239.511 138.058C243.983 141.7 250.443 141.865 254.915 145.507C256.406 146.666 260.712 144.514 258.725 142.859C254.252 139.217 247.793 139.051 243.32 135.409C241.83 134.251 237.523 136.403 239.511 138.058Z" fill="white"/>
<path d="M244.645 110.082C246.467 110.082 249.78 107.434 246.467 107.434C244.811 107.434 241.498 110.082 244.645 110.082Z" fill="white"/>
<path d="M246.633 107.268C246.136 106.937 245.142 106.109 244.811 106.109C244.811 106.109 241.664 107.93 241.664 107.765L242.326 107.93C242.657 108.261 243.983 108.427 244.479 108.592C250.774 110.579 257.068 112.896 263.196 115.048C264.522 115.545 268.828 113.559 267.006 112.896C261.706 110.91 256.405 109.089 250.939 107.268C248.786 106.606 246.467 105.613 244.314 105.447C243.154 105.282 239.676 105.613 239.842 107.434C239.842 108.427 241.995 109.255 242.492 109.586C243.983 110.248 248.455 108.427 246.633 107.268Z" fill="white"/>
</g>
<defs>
<clipPath id="clip0">
<rect width="268" height="171" fill="white"/>
</clipPath>
</defs>
</svg>
