<svg width="110" height="121" viewBox="0 0 110 121" fill="none" xmlns="http://www.w3.org/2000/svg">
<g clip-path="url(#clip0)">
<g opacity="0.75">
<path opacity="0.75" d="M56.2023 0.312913L48.6685 32.6279L101.989 45.157L109.523 12.8421L56.2023 0.312913Z" stroke="white" stroke-miterlimit="10" stroke-linejoin="round"/>
<path opacity="0.75" d="M109.448 12.8679L78.0458 27.176L56.165 0.34082" stroke="white" stroke-miterlimit="10" stroke-linejoin="round"/>
<path opacity="0.75" d="M101.937 45.1651L83.0728 24.9199" stroke="white" stroke-miterlimit="10" stroke-linejoin="round"/>
<path opacity="0.75" d="M74.5549 22.9014L48.6528 32.638" stroke="white" stroke-miterlimit="10" stroke-linejoin="round"/>
</g>
<g opacity="0.9">
<path opacity="0.9" d="M49.715 45.6687L34.4966 62.1891L61.72 87.4648L76.9384 70.9444L49.715 45.6687Z" stroke="white" stroke-miterlimit="10" stroke-linejoin="round"/>
<path opacity="0.9" d="M76.9213 70.991L53.6213 68.8537L49.7183 45.6994" stroke="white" stroke-miterlimit="10" stroke-linejoin="round"/>
<path opacity="0.9" d="M61.7233 87.496L57.3472 69.1506" stroke="white" stroke-miterlimit="10" stroke-linejoin="round"/>
<path opacity="0.9" d="M53.0285 65.1135L34.5186 62.2043" stroke="white" stroke-miterlimit="10" stroke-linejoin="round"/>
</g>
<path d="M18.9599 24.5154L4.48682 30.9992L15.1865 55.0714L29.6596 48.5876L18.9599 24.5154Z" stroke="white" stroke-miterlimit="10" stroke-linejoin="round"/>
<path d="M29.6572 48.5884L15.0503 40.6922L18.9533 24.4843" stroke="white" stroke-miterlimit="10" stroke-linejoin="round"/>
<path d="M15.1689 55.0597L17.4162 41.939" stroke="white" stroke-miterlimit="10" stroke-linejoin="round"/>
<path d="M15.7024 38.08L4.46631 31.015" stroke="white" stroke-miterlimit="10" stroke-linejoin="round"/>
</g>
<defs>
<clipPath id="clip0">
<rect width="109.404" height="120.165" fill="white" transform="translate(0.337891 0.0439453)"/>
</clipPath>
</defs>
</svg>
