<svg width="35" height="35" viewBox="0 0 35 35" fill="none" xmlns="http://www.w3.org/2000/svg">
<path fill-rule="evenodd" clip-rule="evenodd" d="M17.6108 34.3417C27.094 34.3417 34.7817 26.6541 34.7817 17.1709C34.7817 7.68766 27.094 0 17.6108 0C8.1276 0 0.439941 7.68766 0.439941 17.1709C0.439941 26.6541 8.1276 34.3417 17.6108 34.3417ZM19.0768 18.3541V27.1606H15.6313V18.3004H12.7515V14.8637H15.6313V12.3399C15.6313 9.38652 17.3797 7.77558 19.8996 7.77558C21.1338 7.77558 22.1623 7.88297 22.4708 7.93667V11.0512H20.7224C19.3339 11.0512 19.0768 11.6955 19.0768 12.7158V14.9174H22.3166L21.9052 18.3541H19.0768Z" fill="#345DA3"/>
</svg>
