<svg width="40" height="40" viewBox="0 0 40 40" fill="none" xmlns="http://www.w3.org/2000/svg">
<path fill-rule="evenodd" clip-rule="evenodd" d="M20 40C31.0457 40 40 31.0457 40 20C40 8.95431 31.0457 0 20 0C8.95431 0 0 8.95431 0 20C0 31.0457 8.95431 40 20 40ZM21.7071 21.3782V31.6357H17.6939V21.3156H14.3396V17.3127H17.6939V14.3731C17.6939 10.9331 19.7304 9.0567 22.6654 9.0567C24.103 9.0567 25.301 9.18179 25.6604 9.24434V12.872H23.6238C22.0066 12.872 21.7071 13.6225 21.7071 14.8109V17.3753H25.4807L25.0015 21.3782H21.7071Z" fill="white"/>
</svg>
