<svg width="251" height="311" viewBox="0 0 251 311" fill="none" xmlns="http://www.w3.org/2000/svg">
<path d="M2.6444 71.8656L2.64439 71.8663C1.74244 118.805 3.14528 193.975 5.24856 249.045C5.80157 264.96 7.7877 278.142 11.7302 287.779C15.687 297.45 21.7159 303.76 30.398 305.417C49.0045 308.969 91.8935 309.929 132.602 308.897C152.988 308.38 172.886 307.363 189.002 305.911C197.059 305.185 204.187 304.349 209.966 303.41C215.706 302.478 220.24 301.425 223.027 300.224C230.042 297.202 234.912 290.831 238.38 282.309C241.848 273.787 243.995 262.924 245.452 250.594C250.624 207.473 248.966 144.432 247.759 98.5167C247.466 87.4028 247.2 77.2923 247.064 68.7107L247.064 68.7103C246.711 46.822 242.169 32.3251 234.511 22.6744C226.834 13.0001 216.207 8.42297 204.207 5.98963L204.201 5.98842C198.169 4.79127 186.671 3.84531 172.634 3.14825C158.559 2.44932 141.826 1.99649 125.26 1.80517C108.693 1.61385 92.2799 1.6839 78.8435 2.03178C65.4634 2.37821 54.8946 3.00201 50.114 3.94922C37.3032 6.48695 25.5191 9.1445 16.931 18.5287C8.34222 27.9136 3.19721 43.7225 2.6444 71.8656Z" stroke="#AFDC30" stroke-width="3"/>
<g clip-path="url(#clip0)">
<path d="M190.266 302.876C204.253 301.346 217.165 295.61 220.796 281.843C222.545 275.087 223.352 258.898 211.113 261.575C206.271 262.594 204.522 267.566 204.119 271.645C205.06 271.518 205.867 271.39 206.809 271.263C202.505 270.243 194.032 268.968 192.149 274.45C190.131 280.441 198.605 285.54 203.177 287.579C209.364 290.384 216.627 291.786 223.486 291.021C231.69 290.129 237.743 285.795 241.374 278.911C241.777 278.146 238.012 277.254 237.339 278.274C231.69 289.236 219.586 291.786 208.154 287.707C203.446 286.05 196.587 282.608 195.915 277.126C195.242 271.9 201.563 271.518 205.464 272.537C205.867 272.665 208.019 273.047 208.154 272.155C208.423 269.733 210.037 262.212 214.071 262.849C215.551 263.104 216.627 265.399 217.165 266.546C218.241 269.223 218.241 272.155 217.972 274.959C217.434 280.951 215.551 287.197 211.247 291.658C205.464 297.65 196.856 300.199 188.517 301.091C185.828 301.601 189.055 303.004 190.266 302.876Z" fill="#AFDC30"/>
<path d="M191.073 288.472C190.535 288.727 189.997 289.237 189.997 289.874C190.131 290.512 190.804 290.767 191.342 290.894C192.148 291.149 193.628 290.129 192.552 289.747C192.014 289.619 192.014 289.492 192.417 289.237C192.821 288.982 192.955 288.599 192.552 288.345C192.148 288.09 191.476 288.217 191.073 288.472Z" fill="#AFDC30"/>
<path d="M185.963 277.127C185.156 277.127 184.349 277.254 183.811 277.764C183.138 278.402 183.811 278.912 184.349 279.421C185.021 280.059 186.635 279.039 185.828 278.274C185.694 278.147 185.559 278.019 185.425 277.892C185.29 278.147 185.156 278.402 185.156 278.657C185.29 278.529 185.425 278.529 185.694 278.529C186.904 278.657 187.307 277.127 185.963 277.127Z" fill="#AFDC30"/>
<path d="M191.611 265.399C191.611 265.272 191.745 265.144 191.745 265.144C191.745 265.144 191.611 265.144 191.745 265.144C192.283 265.272 192.821 265.144 193.09 264.762C193.359 264.507 193.359 263.997 192.821 263.87C191.476 263.487 190.266 263.997 189.593 265.144C189.459 265.527 189.862 265.909 190.266 265.909C190.804 266.037 191.342 265.782 191.611 265.399Z" fill="#AFDC30"/>
<path d="M203.177 255.584C203.177 255.966 203.177 256.476 203.581 256.731C203.984 256.986 204.657 256.859 205.06 256.731C206.001 256.476 206.674 255.839 206.405 254.819C206.27 254.437 204.388 254.947 204.522 255.329C204.522 255.584 204.657 255.711 204.522 255.966C204.388 256.349 203.984 256.476 204.926 256.221C205.867 255.966 205.464 256.221 205.329 255.839C205.06 255.711 205.06 255.456 205.06 255.074C205.06 254.819 203.043 255.074 203.177 255.584Z" fill="#AFDC30"/>
<path d="M217.165 255.456C217.03 256.094 217.165 256.603 217.568 257.113C217.972 257.496 219.855 256.858 219.451 256.476C219.048 256.094 219.048 255.711 219.182 255.201C219.317 254.691 217.299 254.946 217.165 255.456Z" fill="#AFDC30"/>
<path d="M229 265.144C228.328 265.909 228.059 267.311 229.538 267.439C230.211 267.439 231.152 267.311 231.556 266.801C231.959 266.419 231.69 265.909 231.556 265.399C231.287 265.017 229.538 265.654 229.673 265.909C229.807 266.292 229.807 266.547 229.942 266.801V266.929C229.942 266.929 231.018 266.547 231.152 266.674C231.152 266.674 231.018 266.547 230.883 266.547C230.211 266.037 230.749 265.272 231.152 264.762C231.287 264.507 230.48 264.634 230.345 264.634C229.807 264.634 229.269 264.762 229 265.144Z" fill="#AFDC30"/>
<path d="M208.557 274.577C208.153 272.283 208.019 269.224 209.095 267.056C209.902 265.272 206.002 265.527 205.464 266.802C204.253 269.351 204.253 272.793 204.657 275.47C204.926 277.127 208.826 276.107 208.557 274.577Z" fill="#AFDC30"/>
</g>
<defs>
<clipPath id="clip0">
<rect width="57.9673" height="49.2048" fill="white" transform="translate(183.541 254.819)"/>
</clipPath>
</defs>
</svg>
