<svg width="251" height="311" viewBox="0 0 251 311" fill="none" xmlns="http://www.w3.org/2000/svg">
<path d="M2.60485 71.8656L2.60484 71.8663C1.70289 118.805 3.10573 193.975 5.20901 249.045C5.76201 264.96 7.74815 278.142 11.6907 287.779C15.6474 297.45 21.6764 303.76 30.3585 305.417C48.965 308.969 91.8539 309.929 132.563 308.897C152.949 308.38 172.846 307.363 188.962 305.911C197.019 305.185 204.147 304.349 209.927 303.41C215.667 302.478 220.2 301.425 222.988 300.224C230.002 297.202 234.872 290.831 238.34 282.309C241.808 273.787 243.955 262.924 245.412 250.594C250.584 207.473 248.927 144.432 247.719 98.5167C247.427 87.4028 247.161 77.2923 247.025 68.7107L247.025 68.7103C246.671 46.822 242.129 32.3251 234.471 22.6744C226.794 13.0001 216.168 8.42297 204.168 5.98963L204.162 5.98842C198.129 4.79127 186.632 3.84531 172.595 3.14825C158.519 2.44932 141.787 1.99649 125.22 1.80517C108.653 1.61385 92.2403 1.6839 78.8039 2.03178C65.4239 2.37821 54.8551 3.00201 50.0745 3.94922C37.2636 6.48695 25.4795 9.1445 16.8914 18.5287C8.30267 27.9136 3.15766 43.7225 2.60485 71.8656Z" stroke="#FF9FBC" stroke-width="3"/>
<g clip-path="url(#clip0)">
<path d="M187.585 303.373C195.473 303.373 206.589 304.002 213.162 298.341C214.836 296.832 216.031 294.945 216.987 292.932C217.585 291.8 218.063 290.542 218.66 289.41C219.258 288.404 219.855 287.398 220.692 286.517C221.29 285.888 221.768 285.385 222.485 284.882C222.843 284.63 223.202 284.379 223.441 284.127C224.158 283.876 224.278 283.75 223.561 283.624C224.158 284.379 227.624 284.505 226.788 283.372C223.8 279.473 218.182 284.127 216.27 286.895C214.597 289.285 213.76 292.052 212.206 294.568C207.186 302.618 194.756 301.863 186.868 301.863C184.477 301.863 186.031 303.373 187.585 303.373Z" fill="#FF9FBC"/>
<path d="M212.206 262.366C207.903 262.366 204.079 264.505 201.091 267.775C201.569 267.649 201.927 267.524 202.405 267.398C199.776 267.272 197.266 267.146 194.637 267.02C194.278 267.02 193.441 267.02 193.202 267.524C192.007 271.297 194.756 273.184 196.788 275.574C197.147 276.077 196.788 274.819 196.668 275.826C196.549 276.58 196.549 277.335 196.549 278.09C196.549 280.228 196.668 282.241 197.266 284.379C198.939 291.297 204.915 294.945 211.369 295.448C224.756 296.455 237.664 289.159 243.401 276.203C243.759 275.448 240.413 274.568 239.815 275.574C235.273 285.889 226.19 292.555 215.553 293.813C212.206 294.191 208.74 294.191 205.752 292.178C200.613 288.656 199.776 281.738 200.254 275.826C200.254 275.574 200.015 275.322 199.776 275.197C197.625 273.687 195.832 271.046 196.788 268.152C196.31 268.278 195.832 268.53 195.354 268.656C197.864 268.781 200.613 269.285 203.123 269.033C204.198 268.907 204.318 268.781 205.154 268.027C207.306 266.014 209.935 264.001 212.923 264.001C215.314 264.001 213.76 262.366 212.206 262.366Z" fill="#FF9FBC"/>
<path d="M204.198 281.109C204.676 284.002 208.142 284.631 210.413 284.379C214.955 283.75 216.748 279.473 216.628 274.945C215.792 274.819 215.075 274.819 214.238 274.693C217.465 279.976 225.951 280.102 226.907 272.932C227.146 270.794 226.668 268.781 225.473 267.146C224.397 265.511 222.724 265.008 221.409 263.75C219.975 262.366 219.497 258.844 218.78 256.706C218.541 256.077 217.106 255.951 216.628 256.203C213.999 257.586 211.608 259.85 210.533 262.869C210.294 263.372 212.684 264.001 212.923 263.247C214.238 260.479 216.509 258.341 218.899 256.957C218.182 256.831 217.465 256.706 216.748 256.454C217.226 258.089 217.704 259.599 218.182 261.108C218.899 263.498 218.899 263.372 220.931 264.756C223.919 266.895 225.592 270.165 224.517 273.939C223.321 278.09 219.019 278.341 216.867 274.819C216.628 274.442 214.477 273.813 214.477 274.568C214.596 277.461 214.118 280.48 211.728 282.241C210.294 283.373 207.186 284.127 206.708 281.36C206.469 280.605 204.198 280.605 204.198 281.109Z" fill="#FF9FBC"/>
<path d="M215.314 275.448C215.194 275.448 215.194 275.323 215.194 275.197C215.194 274.945 215.194 274.819 215.314 274.694C215.433 274.568 215.553 274.19 215.672 274.19C215.792 274.065 215.911 274.065 215.911 273.939L216.031 273.813C216.15 273.687 216.15 273.687 216.031 273.813C216.15 273.687 216.15 273.813 215.911 273.813C215.792 273.813 215.792 273.813 215.672 273.813C213.64 274.19 213.879 273.184 214.238 273.813C214.358 274.065 214.358 274.316 214.119 274.568C213.999 274.819 213.76 275.071 213.521 275.197C213.401 275.323 213.282 275.323 213.162 275.448C213.043 275.574 213.043 275.574 213.162 275.448L213.043 275.574C212.445 275.951 212.445 276.455 213.043 276.58C213.76 276.832 214.836 276.832 215.553 276.455C216.389 275.951 217.585 275.197 217.824 274.065C218.063 272.304 215.672 272.178 214.716 272.304C213.64 272.429 212.684 273.058 212.087 274.065C211.609 274.819 211.489 275.826 212.326 276.329C212.923 276.832 214.119 276.706 214.836 276.455C215.075 276.329 215.911 275.951 215.314 275.448Z" fill="#FF9FBC"/>
</g>
<defs>
<clipPath id="clip0">
<rect width="57.9673" height="49.6862" fill="white" transform="translate(185.434 254.819)"/>
</clipPath>
</defs>
</svg>

