<svg width="251" height="311" viewBox="0 0 251 311" fill="none" xmlns="http://www.w3.org/2000/svg">
<path d="M2.49768 71.8656L2.49766 71.8663C1.59571 118.805 2.99855 193.975 5.10184 249.045C5.65484 264.96 7.64097 278.142 11.5835 287.779C15.5403 297.45 21.5692 303.76 30.2513 305.417C48.8578 308.969 91.7467 309.929 132.456 308.897C152.841 308.38 172.739 307.363 188.855 305.911C196.912 305.185 204.04 304.349 209.82 303.41C215.56 302.478 220.093 301.425 222.88 300.224C229.895 297.202 234.765 290.831 238.233 282.309C241.701 273.787 243.848 262.924 245.305 250.594C250.477 207.473 248.819 144.432 247.612 98.5167C247.32 87.4028 247.054 77.2923 246.917 68.7107L246.917 68.7103C246.564 46.822 242.022 32.3251 234.364 22.6744C226.687 13.0001 216.061 8.42297 204.06 5.98963L204.054 5.98842C198.022 4.79127 186.525 3.84531 172.487 3.14825C158.412 2.44932 141.68 1.99649 125.113 1.80517C108.546 1.61385 92.1331 1.6839 78.6968 2.03178C65.3167 2.37821 54.7479 3.00201 49.9673 3.94922C37.1564 6.48695 25.3723 9.1445 16.7843 18.5287C8.19549 27.9136 3.05048 43.7225 2.49768 71.8656Z" stroke="#FFCA4C" stroke-width="3"/>
<path d="M184.977 302.49C192.388 302.376 200.378 301.923 207.21 299.089C209.642 298.069 212.421 296.482 213.579 293.988C218.095 284.126 204.778 280.045 197.252 281.065C196.557 281.178 195.862 281.518 196.788 282.085C199.799 283.786 201.189 286.733 203.62 289C206.052 291.154 209.178 291.721 212.421 291.721C214.737 291.721 213.231 290.247 211.726 290.247C205.705 290.247 203.968 284.239 199.336 281.518C199.22 281.858 198.988 282.199 198.873 282.539C203.62 281.858 210.684 283.445 211.031 289.227C211.147 290.7 210.8 292.741 209.989 294.101C208.599 296.255 205.936 297.502 203.62 298.409C197.367 300.789 190.188 301.13 183.588 301.243C181.156 301.13 183.935 302.49 184.977 302.49Z" fill="#FFCA4C"/>
<path d="M209.873 271.316C209.41 270.182 209.41 269.162 209.873 268.029C210.336 267.008 211.147 266.215 211.842 267.122C213.694 269.049 211.147 273.243 208.831 273.357C208.599 273.357 207.789 273.47 207.905 273.81C209.063 281.518 211.726 291.381 220.758 292.968C230.253 294.555 236.738 286.96 240.559 279.591C240.906 278.911 237.664 278.118 237.085 279.024C234.306 284.352 228.4 293.081 220.989 291.607C219.021 291.267 217.284 289.907 216.126 288.32C213.463 284.352 211.957 279.024 211.263 274.377C210.915 274.49 210.684 274.717 210.336 274.83C214.852 274.717 218.21 268.142 213.463 265.761C209.41 263.721 204.778 266.782 206.515 271.316C206.862 272.11 210.221 272.223 209.873 271.316Z" fill="#FFCA4C"/>
<path d="M212.768 263.494C212.768 261.114 212.768 257.94 214.158 255.899C214.389 255.559 214.621 255.446 214.852 255.219C215.084 255.106 214.968 254.992 214.505 254.992C214.621 255.106 214.621 255.106 214.736 255.219C214.736 255.786 215.084 256.353 214.968 257.033C214.621 259.413 212.768 261.454 211.031 263.154C210.684 263.494 212.305 263.948 212.768 263.494C214.621 261.794 217.052 259.073 216.821 256.353C216.705 254.992 215.547 254.199 214.158 254.426C211.031 254.992 211.147 261 211.031 263.268C211.031 263.834 212.768 263.948 212.768 263.494Z" fill="#FFCA4C"/>
<path d="M218.326 267.235C218.905 266.895 219.6 266.442 220.295 266.215C220.99 265.875 223.306 264.741 223.769 265.195C224.464 265.762 223.769 266.669 223.19 267.009C221.684 268.029 219.484 267.235 217.979 266.669C217.284 266.442 215.316 266.782 216.705 267.349C219.021 268.256 221.916 268.936 224.348 268.142C225.506 267.689 226.895 266.555 225.969 265.308C224.927 263.835 222.379 264.175 220.874 264.628C219.253 265.082 217.747 265.875 216.358 266.782C215.663 267.009 217.747 267.575 218.326 267.235Z" fill="#FFCA4C"/>
<path d="M203.157 271.089C202.462 271.769 201.768 272.45 201.073 273.016C200.378 273.583 199.799 274.037 198.988 274.377C198.641 274.49 198.294 274.717 197.946 274.83C197.599 274.83 198.062 274.944 197.946 274.83C197.831 274.83 197.715 274.717 197.715 274.603C197.367 273.697 197.599 273.016 198.294 272.336C199.799 271.089 202.115 271.316 203.852 271.656C204.199 271.769 205.126 271.883 205.357 271.543C205.589 271.203 204.894 270.976 204.662 270.863C202.115 270.296 198.988 269.956 196.673 271.429C195.515 272.11 194.588 273.583 195.746 274.717C197.02 276.19 199.567 275.737 201.073 274.944C202.694 274.037 204.199 272.79 205.357 271.543C205.82 271.089 203.736 270.523 203.157 271.089Z" fill="#FFCA4C"/>
<path d="M215.431 273.924C216.937 274.377 221.105 275.737 220.758 277.778C220.758 278.118 220.526 278.458 220.179 278.571C220.063 278.571 220.063 278.571 219.831 278.345C218.326 277.211 217.631 275.284 217.284 273.47C217.168 272.903 214.852 272.677 215.084 273.47C215.547 275.624 216.473 278.005 218.674 279.025C219.831 279.592 221.916 279.932 222.842 278.798C224.926 276.191 218.558 273.697 216.821 273.243C216.473 273.13 215.547 272.903 215.2 273.243C214.852 273.584 215.084 273.81 215.431 273.924Z" fill="#FFCA4C"/>
<path d="M207.21 265.308C206.515 262.361 204.894 257.146 200.841 257.713C199.336 257.94 198.873 259.3 199.336 260.66C200.147 263.154 203.157 264.628 205.473 265.648C206.168 265.875 208.136 265.535 206.747 264.968C204.778 264.175 202.694 263.041 201.768 261.114C201.42 260.32 201.304 259.187 202.115 258.62C201.768 258.847 201.768 258.393 201.999 258.733C201.999 258.847 202.231 258.96 202.347 259.073C202.578 259.3 202.81 259.64 203.041 259.98C203.505 260.66 203.852 261.454 204.084 262.247C204.431 263.268 204.778 264.175 205.01 265.195C205.01 265.875 207.326 265.988 207.21 265.308Z" fill="#FFCA4C"/>
</svg>



