<svg width="370" height="413" viewBox="0 0 370 413" fill="none" xmlns="http://www.w3.org/2000/svg">
<path d="M318.868 412.873C328.507 411.679 339.011 410.126 347.168 404.633C349.639 402.961 351.74 401.05 353.471 398.662C354.212 397.587 354.954 396.512 355.571 395.437C356.313 394.363 357.054 393.288 358.043 392.452C358.414 392.094 358.785 391.735 359.279 391.377C359.65 391.019 360.144 390.78 360.638 390.541C361.133 390.422 361.009 390.302 360.515 390.183C361.133 390.899 364.717 391.019 363.851 389.944C361.009 386.6 355.942 390.063 353.841 392.332C351.493 394.84 350.134 398.065 347.662 400.573C340 408.216 327.765 410.126 317.385 411.44C314.789 411.679 317.632 412.992 318.868 412.873Z" fill="#AFDC30"/>
<path d="M348.527 369.881C344.078 369.881 340.124 371.911 337.034 375.016C337.528 374.897 337.899 374.777 338.394 374.658C335.675 374.539 333.08 374.419 330.361 374.3C329.99 374.3 329.125 374.3 328.878 374.777C328.383 376.091 328.631 377.882 329.372 379.077C330.114 380.51 332.091 381.226 332.832 382.54C332.338 381.704 332.462 382.54 332.462 383.018C332.338 383.854 332.462 384.689 332.462 385.525C332.585 387.794 332.832 390.183 333.697 392.332C336.663 399.737 345.685 402.364 353.223 401.289C368.671 399.259 375.468 383.854 378.805 370.837C383.625 351.848 384.613 332.024 385.478 312.559C386.343 293.571 386.838 274.582 387.085 255.475C387.456 217.021 387.085 178.567 386.22 140.113C385.726 126.26 385.355 112.169 384.984 98.0768C384.613 85.5375 384.366 72.8788 382.76 60.3395C380.782 46.6059 377.446 32.1559 368.3 21.1691C360.391 11.6153 348.898 6.12191 336.787 3.13636C333.327 2.30041 329.743 1.58388 326.159 0.986766C324.058 0.628501 323.811 2.06156 325.912 2.41983C338.146 4.45 350.505 7.91324 359.897 16.0339C369.413 24.274 374.232 36.2162 376.951 48.039C380.041 61.4143 380.535 75.1478 381.029 88.7619C381.4 99.8681 381.771 110.974 382.018 122.081C382.883 155.758 383.501 189.435 383.501 223.112C383.501 259.774 383.377 296.556 380.535 333.099C379.299 348.505 377.94 364.627 372.379 379.315C370.031 385.406 366.817 391.377 361.38 395.557C354.212 401.05 341.854 402.722 337.528 393.049C336.045 389.825 335.922 386.123 336.293 382.659C336.293 382.42 336.045 382.182 335.798 382.062C333.574 380.629 331.72 378.121 332.709 375.375C332.214 375.494 331.72 375.733 331.226 375.852C333.821 375.972 336.663 376.449 339.259 376.211C340.371 376.091 340.494 375.972 341.36 375.255C343.584 373.344 346.303 371.434 349.392 371.434C351.864 371.434 350.134 369.881 348.527 369.881Z" fill="#AFDC30"/>
<path d="M340.371 387.675C340.865 390.422 344.449 391.019 346.797 390.78C351.493 390.183 353.347 386.123 353.223 381.823C352.358 381.704 351.617 381.704 350.752 381.585C354.088 386.6 362.863 386.72 363.851 379.913C364.098 377.882 363.604 375.972 362.368 374.419C361.256 372.867 359.526 372.389 358.167 371.195C356.684 369.881 356.189 366.537 355.448 364.507C355.201 363.91 353.718 363.791 353.223 364.03C350.504 365.343 348.033 367.493 346.921 370.359C346.673 370.837 349.145 371.434 349.392 370.717C350.381 368.09 352.729 366.06 355.201 364.865C354.459 364.746 353.718 364.627 352.976 364.388C353.47 365.821 353.965 367.254 354.459 368.806C355.201 371.075 355.201 370.956 357.178 372.27C360.267 374.3 361.998 377.405 360.885 380.987C359.65 384.928 355.201 385.167 352.976 381.823C352.729 381.465 350.504 380.868 350.504 381.585C350.628 384.331 350.134 387.197 347.662 388.869C346.179 389.944 342.966 390.661 342.472 388.033C342.719 387.317 340.247 387.197 340.371 387.675Z" fill="#AFDC30"/>
<path d="M351.74 382.301C351.617 382.301 351.617 382.182 351.617 382.062C351.617 381.823 351.617 381.704 351.74 381.585C351.864 381.465 351.988 381.107 352.111 381.107C352.235 380.987 352.358 380.987 352.358 380.868L352.482 380.749C352.606 380.629 352.606 380.629 352.482 380.749C352.606 380.629 352.606 380.749 352.358 380.749C352.235 380.749 352.235 380.749 352.111 380.749C350.01 381.107 350.257 380.151 350.628 380.749C350.752 380.987 350.752 381.226 350.505 381.465C350.381 381.704 350.134 381.943 349.887 382.062C349.763 382.182 349.64 382.182 349.516 382.301C349.392 382.42 349.392 382.42 349.516 382.301L349.392 382.42C348.774 382.779 348.774 383.256 349.392 383.376C350.134 383.615 351.246 383.615 351.988 383.256C352.853 382.779 354.089 382.062 354.336 380.987C354.583 379.315 352.111 379.196 351.123 379.315C350.01 379.435 349.022 380.032 348.404 380.987C347.909 381.704 347.786 382.659 348.651 383.137C349.269 383.615 350.505 383.495 351.246 383.256C351.617 383.137 352.482 382.779 351.74 382.301Z" fill="#AFDC30"/>
<path d="M53.5349 2.31205C44.4089 4.09695 34.7962 6.00083 26.6436 10.8795C18.3694 15.7583 13.0155 23.3738 9.73014 32.0603C4.01119 46.8154 2.79439 63.2365 2.06431 78.8246C1.45591 92.2708 1.21255 105.836 1.09087 119.282C0.360791 155.575 0.117432 191.749 0.117432 227.923C0.117432 247.914 0.360791 267.904 0.604151 288.014C0.725831 297.534 0.96919 307.172 1.21255 316.692C1.45591 326.449 1.57759 336.325 2.67271 345.964C5.34966 370.714 15.4491 398.797 41.6102 407.959C43.5571 408.673 45.6257 409.268 47.5726 409.625C49.0327 409.982 51.223 408.911 48.7894 408.435C23.48 402.843 11.4337 377.735 7.5399 354.769C4.25455 336.087 4.86294 316.573 4.4979 297.534C4.13287 278.257 3.88951 258.98 3.88951 239.703C3.76783 203.291 4.01119 166.879 4.4979 130.349C4.61959 117.616 4.86294 104.765 5.22798 91.9138C5.7147 75.3738 6.3231 58.5957 10.2169 42.5317C12.6505 32.6553 16.5442 22.6599 24.4534 15.7583C31.1458 9.9276 39.9067 7.19076 48.4243 5.16788C50.8579 4.57292 53.4132 4.09695 55.8468 3.62097C57.7937 3.38299 54.3866 2.19306 53.5349 2.31205Z" fill="#AFDC30"/>
</svg>

