<svg width="263" height="316" viewBox="0 0 263 316" fill="none" xmlns="http://www.w3.org/2000/svg">
<path d="M157.001 92.4549C173.108 92.051 189.378 91.647 205.403 93.586C215.979 94.8786 226.798 97.4639 235.34 104.008C250.796 115.803 255.351 136.728 258.117 154.825C261.941 179.466 262.103 205.965 254.945 230.04C251.691 241.189 246.566 252.096 238.349 260.417C231.679 267.123 223.219 270.678 214.189 273.263C185.554 281.503 154.479 282.311 124.949 281.584C105.019 281.099 85.17 279.403 65.4023 276.737C55.9659 275.444 46.204 274.475 37.0117 272.051C32.7815 270.92 28.7954 268.9 25.3788 266.234C9.92257 253.954 5.61109 231.252 3.57737 212.832C1.29961 191.423 2.1131 169.609 4.71626 148.281C5.52974 141.414 6.50592 134.466 8.1329 127.679C10.6547 116.854 17.0812 108.128 26.9244 102.877C39.0454 96.4137 53.5254 94.8786 67.0293 94.0707C83.5431 93.1013 100.057 93.5052 116.571 93.7476C126.332 93.9092 136.094 93.99 145.856 94.1515C146.67 94.1515 148.378 93.0205 146.832 93.0205C127.309 92.6973 107.704 92.2126 88.1799 92.2934C73.3745 92.2934 58.2436 92.6973 43.6009 95.9289C32.9442 98.2718 22.1249 102.392 14.6408 110.552C8.45829 117.257 6.09918 125.74 4.47221 134.547C0.892871 154.502 -0.490056 174.941 0.0793847 195.22C0.648825 216.225 2.76389 240.301 14.9662 258.155C19.9284 265.426 27.0058 271.082 35.7101 273.263C45.1465 275.606 55.071 276.656 64.6702 277.949C75.2455 279.403 85.9022 280.534 96.4775 281.342C130.237 283.927 164.973 284.089 198.407 277.949C208.576 276.09 218.988 273.586 228.425 269.062C237.292 264.78 244.044 257.59 249.006 249.268C262.103 227.293 263.974 199.34 262.591 174.376C261.859 162.096 260.232 149.816 257.222 137.859C254.945 128.972 252.016 120.247 246.647 112.652C232.899 93.1821 207.518 91.5663 185.636 91.0815C176.443 90.9199 167.169 91.0815 157.977 91.2431C157.245 91.2431 155.455 92.4549 157.001 92.4549Z" fill="white"/>
<path d="M154.318 94.2316C173.761 94.6356 194.261 94.7972 213.052 100.533C227.125 104.896 238.433 113.46 243.802 127.356C252.913 151.027 256.492 177.849 256.899 203.056C257.306 227.293 254.784 261.548 231.681 276.09C220.292 283.199 204.592 283.442 191.576 283.684C173.598 284.088 153.993 282.634 137.642 274.555C134.469 273.02 126.823 269.627 127.636 264.779C128.205 261.063 131.622 264.052 132.924 265.749C137.479 271.808 138.13 280.937 138.537 288.208C138.944 295.641 139.35 303.882 137.886 311.314C137.723 312.203 139.92 311.395 140.164 311.153C142.116 309.052 144.15 307.113 146.265 305.255C147.892 303.882 149.6 302.508 151.308 301.296C150.82 301.619 154.156 299.68 154.318 299.196C155.051 297.176 152.529 297.418 150.739 297.338C145.939 297.257 141.059 297.741 136.34 298.065C133.737 298.226 127.555 299.519 125.44 297.499C124.708 297.822 123.975 298.065 123.243 298.388C125.44 300.246 127.473 302.427 129.426 304.609C132.273 307.759 136.015 311.476 136.747 315.838C136.828 316.485 139.269 316 139.106 315.192C138.374 311.072 134.876 307.356 132.192 304.366C130.077 302.023 127.88 299.6 125.44 297.58C124.87 297.095 122.674 297.903 123.243 298.469C124.87 300.004 127.88 299.6 129.914 299.6C134.713 299.519 139.513 299.115 144.394 298.792C146.346 298.711 148.38 298.549 150.414 298.63C152.122 298.711 152.854 298.549 151.471 299.842C148.624 302.427 145.207 304.366 142.36 307.032C140.896 308.406 139.432 309.779 138.049 311.314C138.781 311.233 139.513 311.153 140.326 311.153C141.628 304.447 141.303 297.095 141.059 290.39C140.815 282.553 140.245 273.585 136.178 266.637C134.713 264.214 132.517 261.628 129.344 261.952C127.148 262.194 125.358 263.729 125.277 265.991C125.196 270.111 130.077 272.777 133.086 274.474C141.14 278.998 150.332 281.503 159.362 283.038C177.015 286.027 195.643 285.946 213.377 283.28C225.824 281.422 236.643 276.655 244.371 266.395C252.913 255.084 256.411 240.623 258.038 226.808C261.617 196.916 257.794 164.923 249.171 136.081C245.266 122.912 239.409 111.601 226.881 104.654C211.1 95.7666 191.495 94.5548 173.842 93.6661C167.66 93.3429 161.477 93.1814 155.295 93.0198C154.481 93.1006 152.773 94.2316 154.318 94.2316Z" fill="white"/>
<path d="M73.702 284.977C70.8548 285.785 67.1941 284.734 64.4283 284.088C60.1981 283.118 56.0494 281.826 52.0633 280.291C45.5554 277.867 39.4543 274.716 34.0852 270.354C24.6488 262.84 18.1409 252.58 14.0735 241.35C5.77594 218.567 6.58942 193.442 8.13505 169.689C8.78583 160.075 9.35527 150.381 10.4942 140.767C11.3076 133.738 12.5279 126.548 15.2937 120.004C21.5576 105.461 36.363 100.372 51.0057 97.8671C65.4858 95.3627 80.3726 94.7163 95.0967 94.2316C112.912 93.6661 130.809 93.2621 148.705 92.7774C149.519 92.7774 151.227 91.5655 149.682 91.6463C132.68 92.1311 115.759 92.535 98.7574 93.0198C84.3587 93.4237 69.8786 94.07 55.5613 96.1706C40.9185 98.3519 23.8353 102.149 15.5378 115.56C6.75212 129.375 7.24021 148.361 6.18268 164.034C4.47436 188.837 2.92874 214.77 10.6569 238.846C14.887 252.095 22.4524 264.375 33.8412 272.777C40.105 277.382 47.2637 280.533 54.6664 282.957C60.3608 284.815 68.0076 287.643 74.0274 286.027C75.4103 285.542 75.1663 284.573 73.702 284.977Z" fill="white"/>
<g clip-path>
<path d="M152.188 15.3342C157.429 18.0021 162.195 21.6115 166.245 25.9271C170.216 30.2427 173.393 35.4214 175.458 41.0709C177.522 46.642 178.396 52.7623 177.92 58.7257C177.522 64.6891 175.775 70.574 172.916 75.9096C170.057 81.1668 166.086 85.8748 161.4 89.5627C159.097 91.4458 156.556 93.0936 153.935 94.4275C151.314 95.8399 148.534 96.9384 145.675 97.8015C134.318 101.332 121.611 100.548 110.81 95.3691C105.41 92.7797 100.486 89.1703 96.5148 84.6978C92.3849 80.2253 89.2876 74.8896 87.3815 69.1616C85.4755 63.4336 84.6813 57.3918 85.0784 51.3499C85.5549 45.3081 87.3021 39.4232 90.0818 34.009C92.9409 28.6734 96.753 23.8085 101.518 20.0422C106.204 16.1973 111.763 13.3726 117.561 11.7248C123.358 10.077 129.474 9.60623 135.351 10.234C141.148 10.9401 146.946 12.6664 152.188 15.3342ZM152.029 15.5696C149.408 14.2357 146.628 13.2156 143.849 12.431C140.99 11.7248 138.13 11.1755 135.192 11.0971C129.394 10.8617 123.517 11.7248 118.117 13.6864C107.316 17.6097 98.1826 25.4563 93.0997 35.4999C87.9375 45.465 86.8256 57.4702 90.2406 68.22C91.9879 73.5557 94.6881 78.6559 98.3414 83.05C101.995 87.4441 106.442 91.132 111.604 93.8783C116.687 96.5461 122.326 98.3508 128.124 98.8216C133.921 99.3708 139.798 98.6647 145.358 96.8599C148.137 95.9184 150.758 94.7414 153.3 93.329C155.762 91.8382 158.144 90.1904 160.288 88.2287C164.577 84.3839 168.072 79.7545 170.613 74.6542C173.154 69.6324 174.663 64.0613 175.219 58.4903C175.378 57.0779 175.378 55.6655 175.378 54.2531C175.378 52.8408 175.299 51.4284 175.219 50.016C174.902 47.1912 174.425 44.3665 173.631 41.6202C172.043 36.1276 169.342 30.9489 165.689 26.3979C163.862 24.1224 161.797 22.0823 159.494 20.2776C157.112 18.4728 154.65 16.9035 152.029 15.5696Z" fill="white"/>
<path d="M142.42 52.2145C143.532 52.9991 144.485 53.7838 145.279 54.6469C146.074 55.51 146.788 56.687 147.424 58.3348C148.059 59.9826 148.377 61.7873 148.377 63.8274C148.377 67.1229 147.662 69.9477 146.153 72.3017C144.644 74.6556 142.659 76.3819 140.117 77.5588C137.576 78.7358 134.717 79.2851 131.461 79.2851C128.601 79.2851 126.219 79.0497 124.313 78.5004C122.407 77.9512 120.58 77.0096 118.912 75.6757C116.212 73.4786 114.782 70.8108 114.782 67.6722C114.782 65.9459 115.259 64.5336 116.291 63.5135C117.403 62.3365 118.912 61.7088 120.66 61.7088C122.248 61.7088 123.439 62.1011 124.392 62.8858C125.107 63.435 125.822 64.5336 126.695 66.1029C127.172 66.966 127.728 67.5937 128.363 67.9861C128.999 68.3784 130.031 68.6138 131.381 68.6138C132.811 68.6138 134.081 68.143 135.034 67.2014C135.987 66.2598 136.464 64.9259 136.464 63.1212C136.464 61.5519 135.987 60.2964 135.034 59.2764C134.081 58.3348 132.731 57.7855 131.143 57.6286C129.793 57.5501 128.76 57.3147 127.966 56.9224C126.298 56.0593 125.425 54.5684 125.425 52.4499C125.425 50.3313 126.298 48.8404 127.966 47.9773C128.681 47.585 129.713 47.3496 131.143 47.2711C132.652 47.1927 133.843 46.7219 134.796 45.8588C135.749 45.0741 136.226 43.8971 136.226 42.4063C136.226 40.837 135.749 39.66 134.876 38.7969C134.002 37.9337 132.811 37.5414 131.381 37.5414C130.269 37.5414 129.475 37.7768 128.84 38.1691C128.204 38.5615 127.648 39.1892 127.251 39.9738C126.378 41.5431 125.663 42.5632 125.028 43.1125C124.154 43.8971 122.963 44.211 121.454 44.211C119.786 44.211 118.436 43.6617 117.324 42.6417C116.212 41.5431 115.656 40.2092 115.656 38.483C115.656 36.9137 116.053 35.3444 116.927 33.8535C117.642 32.5981 118.595 31.4996 119.706 30.6364C122.645 28.204 126.616 26.9485 131.461 26.9485C136.305 26.9485 140.276 28.2825 143.453 30.8718C146.63 33.4612 148.218 37.1491 148.218 41.7785C148.218 43.1909 148.059 44.5248 147.741 45.7018C147.424 46.8788 146.947 47.8989 146.312 48.6835C145.677 49.4682 145.121 50.1744 144.485 50.7236C143.929 51.2729 143.215 51.7437 142.42 52.2145Z" fill="white"/>
</g>
<path d="M165.001 40.9086C165.455 42.3382 166.941 43.118 168.326 42.6631C169.712 42.1952 170.468 40.6617 170.027 39.2321C169.573 37.8025 168.087 37.0228 166.702 37.4776C165.303 37.9325 164.548 39.479 165.001 40.9086Z" stroke="white" stroke-miterlimit="10" stroke-linejoin="round"/>
<path d="M160.492 45.9772C160.757 46.796 161.613 47.2508 162.407 46.9909C163.201 46.718 163.641 45.8343 163.389 45.0155C163.125 44.1967 162.268 43.7419 161.475 44.0018C160.669 44.2747 160.228 45.1585 160.492 45.9772Z" stroke="white" stroke-miterlimit="10" stroke-linejoin="round"/>
<path d="M192.07 25.3523C191.894 25.1704 191.831 24.9754 191.894 24.7545C191.932 24.6375 192.033 24.4816 192.222 24.2996L193.607 22.8701C193.834 22.6361 194.073 22.5192 194.312 22.5192C194.514 22.5192 194.678 22.5841 194.791 22.7141C194.917 22.8441 194.98 23.078 194.98 23.4029V29.0822C194.98 29.3681 194.955 29.5631 194.892 29.6801C194.791 29.901 194.602 30.005 194.325 30.005C194.048 30.005 193.859 29.901 193.758 29.6801C193.695 29.5631 193.67 29.3552 193.67 29.0822V24.5986L193.078 25.2094C192.965 25.3263 192.889 25.3913 192.826 25.4433C192.763 25.4823 192.7 25.5213 192.637 25.5473C192.461 25.5993 192.259 25.5343 192.07 25.3523Z" fill="white"/>
<path d="M198.846 28.7053C198.871 28.8352 198.833 29.0432 198.745 29.3031L198.304 30.6677C198.228 30.9276 198.14 31.0965 198.04 31.2005C197.926 31.3175 197.8 31.3695 197.624 31.3695C197.485 31.3695 197.334 31.3175 197.196 31.2265C197.057 31.1355 196.969 31.0056 196.956 30.8366C196.931 30.7067 196.969 30.4987 197.057 30.2388L197.498 28.8742C197.573 28.6143 197.662 28.4453 197.762 28.3414C197.876 28.2244 198.002 28.1724 198.178 28.1724C198.317 28.1724 198.468 28.2244 198.606 28.3154C198.732 28.4064 198.82 28.5363 198.846 28.7053Z" fill="white"/>
<path d="M206.771 29.3421C206.771 29.5891 206.671 29.771 206.482 29.875C206.381 29.927 206.205 29.953 205.94 29.953H203.182C203.068 29.953 202.98 29.953 202.917 29.94C202.854 29.94 202.779 29.914 202.703 29.888C202.615 29.862 202.552 29.81 202.501 29.758C202.375 29.6281 202.325 29.4721 202.325 29.2772C202.325 29.1472 202.35 29.0302 202.413 28.9133C202.476 28.8093 202.552 28.6793 202.678 28.5364L204.907 25.7552C205.084 25.5343 205.21 25.3393 205.285 25.1704C205.361 25.0014 205.411 24.8065 205.411 24.5856C205.411 24.3386 205.336 24.1307 205.184 23.9747C205.033 23.8188 204.819 23.7408 204.555 23.7408C204.328 23.7408 204.139 23.7928 204 23.9098C203.862 24.0137 203.736 24.1957 203.648 24.4426C203.585 24.6115 203.497 24.7285 203.396 24.8325C203.308 24.9105 203.182 24.9494 203.018 24.9494C202.816 24.9494 202.653 24.8845 202.552 24.7415C202.451 24.6115 202.401 24.4426 202.401 24.2606C202.401 24.0527 202.451 23.8318 202.564 23.6108C202.678 23.3899 202.816 23.195 203.005 23.039C203.421 22.6881 203.925 22.5192 204.542 22.5192C205.21 22.5192 205.751 22.7011 206.142 23.052C206.545 23.4159 206.734 23.9098 206.734 24.5596C206.734 24.7675 206.721 24.9494 206.683 25.1054C206.645 25.2614 206.595 25.4303 206.507 25.5993C206.419 25.7682 206.331 25.9112 206.23 26.0411C206.129 26.1711 205.991 26.353 205.814 26.587L204.076 28.7443H205.953C206.217 28.7443 206.394 28.7703 206.494 28.8223C206.683 28.9133 206.771 29.0952 206.771 29.3421Z" fill="white"/>
<path d="M209.428 28.7053C209.454 28.8352 209.416 29.0432 209.328 29.3031L208.887 30.6677C208.811 30.9276 208.723 31.0965 208.622 31.2005C208.509 31.3175 208.383 31.3695 208.207 31.3695C208.068 31.3695 207.917 31.3175 207.778 31.2265C207.64 31.1355 207.552 31.0056 207.539 30.8366C207.514 30.7067 207.552 30.4987 207.64 30.2388L208.081 28.8742C208.156 28.6143 208.244 28.4453 208.345 28.3414C208.458 28.2244 208.584 28.1724 208.761 28.1724C208.899 28.1724 209.05 28.2244 209.189 28.3154C209.328 28.4064 209.403 28.5363 209.428 28.7053Z" fill="white"/>
<path d="M212.084 28.4453C212.26 28.6272 212.348 28.8352 212.348 29.0821C212.348 29.329 212.26 29.55 212.084 29.7189C211.908 29.9009 211.706 29.9788 211.454 29.9788C211.215 29.9788 211.001 29.8879 210.837 29.7189C210.661 29.537 210.585 29.329 210.585 29.0821C210.585 28.8352 210.673 28.6142 210.837 28.4453C211.013 28.2633 211.215 28.1854 211.454 28.1854C211.693 28.1854 211.908 28.2633 212.084 28.4453Z" fill="white"/>
<path d="M214.955 28.4453C215.132 28.6272 215.22 28.8352 215.22 29.0821C215.22 29.329 215.132 29.55 214.955 29.7189C214.779 29.9009 214.578 29.9788 214.326 29.9788C214.086 29.9788 213.872 29.8879 213.708 29.7189C213.532 29.537 213.457 29.329 213.457 29.0821C213.457 28.8352 213.545 28.6142 213.708 28.4453C213.885 28.2633 214.086 28.1854 214.326 28.1854C214.565 28.1854 214.779 28.2633 214.955 28.4453Z" fill="white"/>
<path d="M218.634 28.3543C218.634 28.1464 218.697 27.9774 218.811 27.8475C218.936 27.7175 219.088 27.6395 219.289 27.6395C219.466 27.6395 219.591 27.6785 219.692 27.7695C219.793 27.8605 219.881 28.0034 219.944 28.1854C220.02 28.3933 220.12 28.5493 220.246 28.6402C220.385 28.7312 220.574 28.7832 220.838 28.7832C221.116 28.7832 221.342 28.6922 221.519 28.5103C221.695 28.3283 221.796 28.0814 221.796 27.7565C221.796 27.4446 221.708 27.1977 221.544 27.0287C221.38 26.8598 221.141 26.7558 220.826 26.7428C220.662 26.7298 220.536 26.7038 220.448 26.6648C220.272 26.5608 220.171 26.3919 220.171 26.158C220.171 25.924 220.259 25.7551 220.448 25.6511C220.549 25.5991 220.675 25.5731 220.826 25.5731C221.103 25.5601 221.33 25.4822 221.493 25.3132C221.657 25.1573 221.733 24.9233 221.733 24.6374C221.733 24.3515 221.645 24.1176 221.481 23.9616C221.317 23.7927 221.103 23.7147 220.851 23.7147C220.637 23.7147 220.473 23.7537 220.347 23.8446C220.221 23.9356 220.12 24.0786 220.045 24.2735C219.969 24.4685 219.894 24.5984 219.793 24.6894C219.705 24.7804 219.566 24.8194 219.39 24.8194C219.214 24.8194 219.075 24.7674 218.962 24.6504C218.848 24.5334 218.785 24.3775 218.785 24.1825C218.785 24.0136 218.823 23.8446 218.886 23.6757C218.987 23.4158 219.125 23.1948 219.314 23.0259C219.705 22.675 220.221 22.506 220.864 22.506C221.279 22.506 221.645 22.584 221.972 22.74C222.3 22.8959 222.564 23.1429 222.753 23.4548C222.955 23.7797 223.043 24.1436 223.043 24.5724C223.043 25.2872 222.753 25.8071 222.174 26.132C222.791 26.4569 223.106 27.0287 223.106 27.8475C223.106 28.3023 223.005 28.6922 222.803 29.0301C222.602 29.368 222.337 29.6149 221.997 29.7709C221.657 29.9398 221.279 30.0178 220.851 30.0178C220.473 30.0178 220.158 29.9788 219.894 29.9009C219.629 29.8229 219.403 29.6799 219.188 29.498C218.823 29.1731 218.634 28.7962 218.634 28.3543Z" fill="white"/>
<path d="M228.485 24.5205C228.485 24.7934 228.447 25.0143 228.372 25.1963C228.296 25.3782 228.17 25.5992 227.994 25.8201L227.389 26.6389C227.251 26.8208 227.15 27.0288 227.099 27.2367C227.062 27.3926 226.986 27.5226 226.898 27.6266C226.772 27.7565 226.608 27.8215 226.407 27.8215C226.205 27.8215 226.041 27.7565 225.915 27.6136C225.815 27.4966 225.764 27.3537 225.764 27.1457C225.764 26.9768 225.79 26.8208 225.84 26.6779C225.89 26.5349 225.991 26.3789 226.117 26.197L226.873 25.2223C227.062 24.9754 227.162 24.7284 227.162 24.4945C227.162 24.2606 227.087 24.0656 226.948 23.9097C226.797 23.7537 226.608 23.6757 226.369 23.6757C226.104 23.6757 225.903 23.7537 225.752 23.9227C225.651 24.0396 225.563 24.1956 225.5 24.4165C225.462 24.5465 225.399 24.6635 225.323 24.7544C225.223 24.8714 225.072 24.9234 224.87 24.9234C224.694 24.9234 224.543 24.8584 224.429 24.7414C224.328 24.6245 224.278 24.4685 224.278 24.2606C224.278 24.0786 224.328 23.8707 224.429 23.6368C224.53 23.4158 224.668 23.2079 224.857 23.0259C225.26 22.636 225.764 22.4541 226.369 22.4541C226.759 22.4541 227.112 22.5321 227.44 22.688C227.754 22.844 228.019 23.0779 228.208 23.3898C228.384 23.7407 228.485 24.1046 228.485 24.5205ZM225.852 29.7449C225.701 29.589 225.626 29.3941 225.626 29.1731C225.626 28.9522 225.701 28.7572 225.852 28.6013C226.004 28.4453 226.193 28.3674 226.407 28.3674C226.621 28.3674 226.81 28.4453 226.961 28.6013C227.112 28.7572 227.188 28.9522 227.188 29.1731C227.188 29.3941 227.112 29.589 226.961 29.7449C226.81 29.9009 226.621 29.9789 226.407 29.9789C226.193 29.9919 226.016 29.9139 225.852 29.7449Z" fill="white"/>
<path d="M231.343 28.6014C231.494 28.7703 231.582 28.9523 231.582 29.1732C231.582 29.3941 231.506 29.5891 231.343 29.745C231.192 29.901 231.003 29.979 230.776 29.979C230.549 29.979 230.373 29.901 230.222 29.745C230.071 29.5891 229.995 29.3941 229.995 29.1732C229.995 28.9523 230.071 28.7573 230.222 28.5884C230.373 28.4324 230.562 28.3414 230.776 28.3414C230.99 28.3544 231.179 28.4324 231.343 28.6014ZM231.481 23.4939V26.7039C231.481 26.8859 231.481 27.0028 231.469 27.0938C231.456 27.1718 231.431 27.2628 231.393 27.3407C231.343 27.4447 231.255 27.5227 231.154 27.5877C231.04 27.6526 230.927 27.6786 230.789 27.6786C230.65 27.6786 230.537 27.6526 230.423 27.5877C230.31 27.5227 230.234 27.4447 230.184 27.3407C230.146 27.2498 230.121 27.1718 230.108 27.0938C230.096 27.0158 230.096 26.8859 230.096 26.7039V23.4939C230.096 23.3119 230.096 23.195 230.108 23.104C230.121 23.026 230.146 22.935 230.184 22.8571C230.234 22.7531 230.322 22.6751 230.423 22.6101C230.537 22.5452 230.65 22.5192 230.789 22.5192C230.927 22.5192 231.04 22.5452 231.154 22.6101C231.267 22.6751 231.343 22.7531 231.393 22.8571C231.431 22.948 231.456 23.026 231.469 23.104C231.481 23.182 231.481 23.3119 231.481 23.4939Z" fill="white"/>
<path d="M174.411 31.0316C174.411 33.7088 176.515 35.8791 179.11 35.8791C180.483 35.8791 181.717 35.2683 182.574 34.2936C183.405 35.8531 185.017 36.9188 186.869 36.9188C188.468 36.9188 189.892 36.1261 190.786 34.9044C192.852 36.7629 195.547 37.8805 198.495 37.8805C202.021 37.8805 205.196 36.269 207.349 33.7348C209.365 35.7622 212.123 37.0228 215.171 37.0228C217.678 37.0228 220.008 36.165 221.872 34.7225C223.926 37.1917 226.974 38.7513 230.375 38.7513C236.559 38.7513 241.572 33.5788 241.572 27.1977C241.572 21.8693 238.083 17.3856 233.322 16.047C233.335 15.7741 233.347 15.5012 233.347 15.2282C233.347 7.89841 227.591 1.95917 220.487 1.95917C214.92 1.95917 210.171 5.61109 208.382 10.7316C207.06 9.83484 205.485 9.31499 203.785 9.31499C199.729 9.31499 196.341 12.2911 195.56 16.2419C195.258 16.073 194.917 15.982 194.552 15.982C193.532 15.982 192.675 16.7098 192.436 17.6845C191.768 17.0087 190.849 16.5798 189.841 16.5798C187.801 16.5798 186.151 18.2823 186.151 20.3877C186.151 20.7906 186.214 21.1675 186.315 21.5314C186.012 21.4664 185.697 21.4404 185.382 21.4404C182.737 21.4404 180.609 23.6498 180.609 26.3659C180.609 26.3919 180.609 26.4309 180.609 26.4569C180.13 26.288 179.626 26.197 179.085 26.197C176.515 26.184 174.411 28.3544 174.411 31.0316Z" stroke="white" stroke-miterlimit="10" stroke-linejoin="round"/>
<defs>
<clipPath>
<rect width="93" height="90" fill="white" transform="translate(85 10)"/>
</clipPath>
</defs>
</svg>
