<svg width="35" height="35" viewBox="0 0 35 35" fill="none" xmlns="http://www.w3.org/2000/svg">
<path fill-rule="evenodd" clip-rule="evenodd" d="M34.3417 17.1709C34.3417 26.6541 26.6541 34.3417 17.1709 34.3417C7.68766 34.3417 0 26.6541 0 17.1709C0 7.68766 7.68766 0 17.1709 0C26.6541 0 34.3417 7.68766 34.3417 17.1709ZM16.6375 18.0871C19.9375 18.0871 22.6116 15.4129 22.6116 12.113C22.5548 8.81298 19.8806 6.13886 16.6375 6.13886C13.3376 6.13886 10.6634 8.81298 10.6634 12.113C10.6634 15.4129 13.3376 18.0871 16.6375 18.0871ZM16.6375 9.60953C18.0031 9.60953 19.0841 10.6906 19.0841 12.0561C19.0841 13.4216 18.0031 14.5026 16.6375 14.5026C15.272 14.5026 14.191 13.4216 14.191 12.0561C14.1341 10.7475 15.272 9.60953 16.6375 9.60953ZM22.4983 21.5011C21.4172 22.1839 20.2224 22.639 19.0276 22.9235L22.4983 26.2804C23.181 26.9632 23.181 28.0442 22.4983 28.7269C21.8155 29.4097 20.7345 29.4097 20.0517 28.7269L16.7517 25.427L13.4518 28.7269C13.1104 29.0683 12.6552 29.239 12.2 29.239C11.7449 29.239 11.2897 29.0683 10.9483 28.7269C10.2656 28.0442 10.2656 26.9632 10.9483 26.2804L14.3052 22.9235C13.1104 22.639 11.9156 22.1839 10.8345 21.5011C9.98109 20.9891 9.7535 19.908 10.2656 19.1115C10.7776 18.258 11.8587 18.0305 12.6552 18.5425C15.1017 20.0787 18.231 20.0787 20.6776 18.5425C21.4741 18.0305 22.5552 18.3149 23.0672 19.1115C23.5793 19.908 23.2948 20.9891 22.4983 21.5011Z" fill="#345DA3"/>
</svg>
