<svg  height="100%" width="76px" viewBox="0 0 69 411" xmlns="http://www.w3.org/2000/svg">
<path d="M3.37056 410.773C11.2737 409.818 19.4238 408.506 26.5859 405.166C28.5617 404.212 31.4019 402.9 32.6368 400.992C35.477 396.459 32.0193 390.734 27.9443 388.348C23.1283 385.605 16.8305 384.65 11.3972 385.366C10.6562 385.485 9.91532 385.843 10.9032 386.44C14.7313 388.706 16.5836 392.404 19.7942 395.266C22.8814 398.129 27.0799 398.964 31.1549 398.964C33.6247 398.964 32.0193 397.413 30.414 397.413C25.7215 397.413 23.2518 395.505 20.5351 392.165C18.5594 389.66 16.4601 387.513 13.6199 385.843C13.4964 386.201 13.2494 386.559 13.126 386.917C17.9419 386.32 23.7458 387.155 27.3269 390.495C29.6731 392.761 31.0315 397.652 28.9322 400.395C27.5738 402.184 24.7337 403.377 22.6344 404.332C16.0896 407.194 8.80395 408.387 1.64175 409.222C-0.704485 409.58 2.1357 410.892 3.37056 410.773Z" />
<path d="M27.5738 372.484C27.0799 371.053 26.8329 369.502 27.5738 368.19C28.3148 366.639 29.9201 365.327 31.2784 366.997C33.2542 369.502 30.661 375.228 27.4504 375.228C27.2034 375.228 25.9685 375.227 25.9685 375.705C27.0799 383.935 28.0678 395.744 38.8111 396.698C46.9612 397.533 52.6415 390.734 55.7287 384.173C59.8037 375.466 61.2856 365.566 62.6439 356.262C67.2129 325.249 67.9538 293.521 68.4478 262.15C69.0652 226.486 68.5712 190.702 67.8303 155.037C67.2129 131.062 66.472 107.087 65.6076 82.9924C64.8667 64.3848 63.0144 44.4651 53.259 28.0045C45.8498 15.5994 33.9951 7.36912 20.0412 2.95577C16.4601 1.88226 12.879 1.0473 9.29789 0.331623C6.95165 -0.145495 6.70468 1.28586 8.92743 1.76298C23.0048 4.62569 36.3414 10.4704 45.2324 21.6827C57.334 36.8312 60.5446 57.3473 61.5325 75.9549C62.7674 97.9024 63.1378 119.85 63.7553 141.797C64.6197 175.076 65.1136 208.475 64.9901 241.873C64.7432 273.959 64.2492 306.284 61.0386 338.251C59.9272 349.582 58.5689 361.033 55.8522 372.126C54.8643 375.943 53.7529 379.879 52.1476 383.458C49.5544 389.183 40.4164 400.753 33.9951 392.404C30.661 387.871 30.2905 381.669 29.5496 376.301C29.0557 376.42 28.5617 376.659 28.0678 376.778C31.2784 376.778 33.9951 375.108 35.1065 372.007C35.9709 369.502 35.23 366.52 32.7603 365.208C27.4504 362.584 21.8935 366.759 23.9927 372.365C24.2397 373.319 27.9443 373.438 27.5738 372.484Z" />
<path d="M31.5253 362.107C31.5253 359.005 31.6488 354.831 33.3776 352.087C33.8716 351.371 34.242 350.775 34.6125 351.252C35.1064 351.849 34.983 353.041 34.8595 353.757C34.3655 356.978 32.0193 359.721 29.6731 361.868C29.4261 362.107 31.0314 362.584 31.5253 362.107C33.9951 359.84 37.2057 356.262 36.8353 352.684C36.7118 351.014 35.4769 349.94 33.7481 350.298C29.6731 351.014 29.7965 359.005 29.7965 361.987C29.6731 362.465 31.5253 362.584 31.5253 362.107Z" />
<path d="M38.8109 367.117C39.6753 366.639 40.5398 366.162 41.4042 365.685C42.5155 365.208 45.4792 363.538 46.5906 364.373C47.5785 365.089 46.5906 366.401 45.8497 366.878C43.6269 368.19 40.6632 367.236 38.564 366.401C37.8231 366.162 35.7238 366.52 37.2056 367.117C40.1693 368.309 43.8739 369.144 46.961 368.071C48.4429 367.594 50.1717 366.043 49.0603 364.492C47.702 362.703 44.6148 363.061 42.7625 363.657C40.6632 364.254 38.6875 365.327 36.8352 366.401C36.0942 366.759 38.317 367.355 38.8109 367.117Z" />
<path d="M19.4237 372.245C18.3123 373.438 13.2494 378.567 11.6441 376.897C10.7797 375.943 11.6441 374.512 12.385 373.915C14.4842 372.126 17.6949 372.484 20.1646 372.961C21.1525 373.2 22.6343 372.484 20.9055 372.126C17.6949 371.41 13.6198 370.933 10.7797 372.842C9.29782 373.796 8.18644 375.585 9.54479 377.136C11.1501 378.925 14.2373 378.329 16.0896 377.374C18.1888 376.301 20.1646 374.631 21.7699 372.842C22.2639 372.245 19.9176 371.649 19.4237 372.245Z" />
<path d="M35.4769 375.824C37.5762 376.42 43.2565 378.329 42.6391 381.191C42.5156 381.669 42.2687 382.026 41.7747 382.265C41.4043 382.384 41.1573 382.265 40.6633 381.907C38.6876 380.476 37.8232 377.852 37.3292 375.585C37.2057 374.989 34.736 374.75 34.983 375.585C35.6004 378.329 36.7118 381.43 39.552 382.742C41.0338 383.458 43.5035 383.816 44.7384 382.503C47.5786 379.164 39.1815 375.943 36.9588 375.227C36.5883 375.108 35.6004 374.87 35.23 375.227C34.8595 375.466 35.1065 375.705 35.4769 375.824Z" />
<path d="M24.1162 364.612C23.2518 361.033 21.276 353.877 16.0896 354.831C14.1138 355.189 13.7434 356.859 14.2373 358.528C15.3487 361.868 19.1768 363.777 22.1404 364.97C22.8813 365.208 24.9806 364.85 23.4988 364.254C20.9056 363.18 18.0654 361.63 16.8305 359.125C16.5836 358.528 15.9661 355.785 17.3245 355.785C17.6949 355.785 18.6828 357.336 18.9298 357.693C19.5472 358.648 19.9177 359.602 20.2881 360.675C20.7821 361.988 21.1525 363.3 21.523 364.612C21.8935 365.208 24.2397 365.327 24.1162 364.612Z"/>
</svg>
