<svg width="299" height="372" viewBox="0 0 299 372" fill="none" xmlns="http://www.w3.org/2000/svg">
<path d="M293 166.69C293 282.169 273.331 307 146.073 307C23.8725 307 12.3212 307 6.68557 166.69C1.47692 37.0105 23.8714 14 146.073 14C270.342 14 293 13.8901 293 166.69Z" fill="#00CEFB"/>
<path d="M157.312 365.358C160.004 358.779 164.328 353.092 168.488 348.186C169.141 347.406 168.243 347.183 167.754 347.294C158.454 348.967 148.91 349.636 139.528 348.409C139.284 348.409 136.999 349.078 137.652 349.747C139.936 352.312 142.139 355.1 144.26 357.887C147.033 361.567 151.112 366.25 152.01 371.603C152.173 372.495 154.294 371.714 154.375 370.934C155.191 358.445 154.375 345.956 153.641 333.467C152.988 322.094 151.439 309.716 153.478 298.454C154.212 294.44 157.312 285.519 160.901 291.206C166.449 300.127 153.967 306.26 149.97 307.263C142.873 309.159 135.368 309.159 128.108 309.382C119.705 309.605 111.303 309.382 102.9 308.713C85.035 307.375 66.1908 304.81 49.4676 295.443C21.1604 279.498 12.1054 234.003 8.84234 196.202C5.90557 159.182 6.80292 120.378 10.2291 83.4689C11.4528 70.9801 13.1659 57.9338 17.9789 47.0061C22.5472 36.636 29.6444 29.9456 37.7205 25.5968C50.0386 19.0179 63.4988 16.6763 76.5511 14.6692C97.5163 11.4355 118.645 9.87437 139.61 7.42122C158.209 5.30259 176.809 2.84944 195.408 1.84588C209.766 1.06533 224.368 0.953822 238.481 5.07958C249.739 8.42478 260.507 15.0037 268.583 26.4889C275.843 36.859 280.004 49.4593 282.777 63.1746C289.956 99.1914 291.669 138.33 290.037 175.462C289.14 195.199 287.182 215.047 282.696 233.892C279.025 249.28 273.314 265.56 263.607 275.372C255.286 283.735 243.62 286.634 233.749 289.199C217.353 293.548 200.629 295.889 183.988 297.228C141.323 300.796 98.1689 298.454 55.9121 289.757C43.1862 287.192 31.1944 285.742 22.3841 271.692C15.2869 260.43 11.4528 245.823 8.76076 231.661C2.15304 196.648 1.74516 159.405 2.96881 123.5C3.45827 108.112 4.43719 92.724 5.82399 77.4475C6.88449 66.1853 7.78184 53.9196 11.8607 43.884C19.6105 24.3703 36.4153 17.2338 51.4254 13.7771C70.7591 9.31683 90.5823 9.65136 110.079 9.98588C130.31 10.3204 150.541 10.5434 170.772 10.8779C190.351 11.2125 210.011 11.77 229.507 14.8922C244.681 17.3453 261.078 20.9135 274.456 31.7297C283.919 39.4237 288.814 50.4629 291.424 64.7357C297.461 97.7418 297.624 133.647 295.666 167.434C293.708 202.558 289.14 241.697 274.375 271.469C268.42 283.512 260.344 293.771 249.902 297.562C248.515 298.12 248.76 299.458 250.146 298.9C273.804 290.091 284.98 255.301 290.935 225.752C298.603 187.17 300.235 145.913 298.195 106.105C297.379 90.6053 296.074 74.7714 292.974 59.7179C289.793 44.553 282.94 34.4059 272.662 27.3809C257.978 17.4568 240.928 14.3346 224.776 12.216C204.382 9.53985 183.906 9.20533 163.43 8.98231C141.486 8.7593 119.624 7.97875 97.6794 8.09026C78.8352 8.31327 59.2568 8.64779 40.8204 15.4497C27.8497 20.2445 14.7974 29.1651 8.76076 46.3371C4.92665 57.2648 4.11088 70.5341 3.05038 82.4653C-0.131109 118.371 -1.02845 155.168 1.33727 191.296C2.56092 209.583 4.68192 227.982 9.08707 245.377C12.5133 258.535 17.4895 272.138 25.8919 280.613C29.726 284.516 34.0496 286.746 38.6994 287.972C50.0386 290.872 61.4594 293.102 72.8801 294.886C95.4769 298.454 118.237 300.238 140.997 300.461C161.391 300.684 181.867 299.681 202.179 296.893C217.434 294.886 232.852 291.987 247.618 286.3C257.162 282.62 265.564 277.602 272.091 267.121C280.656 253.405 285.224 235.453 288.161 218.058C295.014 177.023 294.198 132.755 289.548 91.3859C286.122 61.056 280.33 29.6111 259.365 13.3311C248.27 4.74505 235.299 1.73437 222.737 0.619301C205.687 -0.941795 188.474 0.730808 171.425 2.51492C149.073 4.85656 126.802 7.64423 104.45 9.87437C87.3192 11.6585 70.1065 13.4426 53.2201 18.2374C43.1862 21.0251 32.7443 25.0393 24.5051 33.7368C17.6526 40.8733 13.4106 51.0204 11.0449 62.1711C7.61868 77.782 6.88449 94.5081 6.1503 110.677C5.17138 129.856 4.68192 149.146 5.17138 168.437C6.1503 208.357 10.3107 258.423 34.2943 285.742C46.8571 300.127 64.1514 304.475 79.9773 307.486C97.6794 310.72 115.626 311.612 133.492 310.72C140.752 310.385 148.257 310.051 155.191 306.929C159.351 305.033 165.062 301.019 164.409 293.771C164.083 289.757 161.717 287.415 158.78 287.749C154.783 288.195 152.581 292.879 151.52 297.785C149.318 308.155 150.541 319.752 151.194 330.345C152.01 343.949 152.988 357.664 152.173 371.38C152.988 371.157 153.723 370.934 154.538 370.711C153.641 365.581 149.889 361.121 147.197 357.553C144.831 354.431 142.465 351.42 139.936 348.521C139.284 348.967 138.713 349.413 138.06 349.859C147.768 351.085 157.72 350.528 167.346 348.744C167.101 348.409 166.857 348.075 166.612 347.852C162.207 352.981 157.802 358.891 154.946 365.804C154.62 366.473 156.904 366.25 157.312 365.358Z" fill="white"/>
</svg>

